<?xml version="1.0" encoding="utf-8"?>
<!-- Generator: Adobe Illustrator 24.0.3, SVG Export Plug-In . SVG Version: 6.00 Build 0)  -->
<svg version="1.1" id="Layer_1" xmlns="http://www.w3.org/2000/svg" xmlns:xlink="http://www.w3.org/1999/xlink" x="0px" y="0px"
	 viewBox="0 0 180 180" style="enable-background:new 0 0 180 180;" xml:space="preserve">
<style type="text/css">
	.st0{opacity:0.9;}
	.st1{clip-path:url(#SVGID_2_);}
	.st2{fill:none;stroke:#F05C5A;stroke-width:8.000000e-02;stroke-miterlimit:10;stroke-dasharray:1.61,1.61;}
	.st3{fill:none;stroke:#F05C5A;stroke-width:0.98;stroke-linecap:round;stroke-linejoin:round;}
	.st4{opacity:0.2;}
	.st5{fill:#FAFAF9;stroke:#000000;stroke-width:0.98;stroke-miterlimit:10;}
	.st6{fill:#231F20;}
</style>
<title>L on Full Bed</title>
<g class="st0">
	<g>
		<g>
			<defs>
				<rect id="SVGID_1_" x="37.1" y="26.2" width="104.7" height="140.6"/>
			</defs>
			<clipPath id="SVGID_2_">
				<use xlink:href="#SVGID_1_"  style="overflow:visible;"/>
			</clipPath>
			<g class="st1">
				<line class="st2" x1="4.2" y1="8.8" x2="4.2" y2="248.1"/>
				<line class="st2" x1="13" y1="9.2" x2="13" y2="248.6"/>
				<line class="st2" x1="21.5" y1="8.9" x2="21.5" y2="248.2"/>
				<line class="st2" x1="30.3" y1="9.3" x2="30.3" y2="248.6"/>
				<line class="st2" x1="39.4" y1="8.9" x2="39.4" y2="248.2"/>
				<line class="st2" x1="48.3" y1="9.3" x2="48.3" y2="248.6"/>
				<line class="st2" x1="56.7" y1="9" x2="56.7" y2="248.3"/>
				<line class="st2" x1="65.6" y1="9.4" x2="65.6" y2="248.7"/>
				<line class="st2" x1="74.2" y1="8.8" x2="74.2" y2="248.1"/>
				<line class="st2" x1="83.1" y1="9.2" x2="83.1" y2="248.6"/>
				<line class="st2" x1="91.6" y1="8.9" x2="91.6" y2="248.2"/>
				<line class="st2" x1="100.4" y1="9.3" x2="100.4" y2="248.6"/>
				<line class="st2" x1="109.5" y1="8.9" x2="109.5" y2="248.2"/>
				<line class="st2" x1="118.4" y1="9.3" x2="118.4" y2="248.6"/>
				<line class="st2" x1="126.8" y1="9" x2="126.8" y2="248.3"/>
				<line class="st2" x1="135.7" y1="9.4" x2="135.7" y2="248.7"/>
				<line class="st2" x1="150.4" y1="29.7" x2="-89" y2="29.7"/>
				<line class="st2" x1="149.9" y1="38.5" x2="-89.4" y2="38.5"/>
				<line class="st2" x1="150.3" y1="47" x2="-89.1" y2="47"/>
				<line class="st2" x1="149.9" y1="55.8" x2="-89.5" y2="55.8"/>
				<line class="st2" x1="150.3" y1="64.9" x2="-89" y2="64.9"/>
				<line class="st2" x1="149.9" y1="73.8" x2="-89.4" y2="73.8"/>
				<line class="st2" x1="150.2" y1="82.2" x2="-89.1" y2="82.2"/>
				<line class="st2" x1="149.8" y1="91.1" x2="-89.5" y2="91.1"/>
				<line class="st2" x1="150.3" y1="99.7" x2="-89" y2="99.7"/>
				<line class="st2" x1="149.9" y1="108.5" x2="-89.4" y2="108.5"/>
				<line class="st2" x1="150.2" y1="117" x2="-89.1" y2="117"/>
				<line class="st2" x1="149.8" y1="125.9" x2="-89.5" y2="125.9"/>
				<line class="st2" x1="150.3" y1="134.9" x2="-89.1" y2="134.9"/>
				<line class="st2" x1="149.9" y1="143.8" x2="-89.5" y2="143.8"/>
				<line class="st2" x1="150.2" y1="152.2" x2="-89.2" y2="152.2"/>
				<line class="st2" x1="149.8" y1="161.1" x2="-89.6" y2="161.1"/>
				<line class="st2" x1="150.3" y1="169.8" x2="-89" y2="169.8"/>
				<line class="st2" x1="149.9" y1="178.6" x2="-89.4" y2="178.6"/>
			</g>
		</g>
	</g>
</g>
<path class="st3" d="M40.9,26.2H138c2.1,0,3.8,1.7,3.8,3.8v133c0,2.1-1.7,3.8-3.8,3.8H40.9c-2.1,0-3.8-1.7-3.8-3.8V30
	C37.1,27.9,38.8,26.2,40.9,26.2z"/>
<g class="st4">
	<path class="st5" d="M48.6,18.5h82.1c3,0,5.4,2.4,5.4,5.4V142c0,3-2.4,5.4-5.4,5.4H48.6c-3,0-5.4-2.4-5.4-5.4V23.9
		C43.2,20.9,45.6,18.5,48.6,18.5z"/>
	<path class="st5" d="M93.6,20.5h37.5c1.6,0,2.9,1.3,2.9,2.9v24.9c0,1.6-1.3,2.9-2.9,2.9H93.6c-1.6,0-2.9-1.3-2.9-2.9v-25
		C90.7,21.8,92,20.5,93.6,20.5z"/>
	<path class="st5" d="M48,20.5h37.5c1.6,0,2.9,1.3,2.9,2.9v24.9c0,1.6-1.3,2.9-2.9,2.9H48c-1.6,0-2.9-1.3-2.9-2.9v-25
		C45.2,21.8,46.4,20.5,48,20.5z"/>
</g>
<g>
	<path class="st6" d="M43.2,8.7c-0.2-0.2-0.4-0.3-0.6-0.4c-0.3-0.1-0.5-0.2-0.9-0.2c-0.5,0-0.8,0.1-1,0.3c-0.2,0.2-0.3,0.4-0.3,0.7
		c0,0.2,0,0.3,0.1,0.4s0.1,0.2,0.3,0.3C40.9,9.9,41,10,41.2,10c0.2,0.1,0.4,0.1,0.7,0.2c0.3,0.1,0.5,0.1,0.8,0.2
		c0.2,0.1,0.4,0.2,0.6,0.3c0.2,0.1,0.3,0.2,0.4,0.4c0.1,0.2,0.1,0.4,0.1,0.6c0,0.2,0,0.5-0.1,0.6c-0.1,0.2-0.2,0.3-0.4,0.4
		S42.8,13,42.6,13c-0.2,0.1-0.5,0.1-0.8,0.1c-0.8,0-1.5-0.3-2.1-0.8l0.3-0.4c0.2,0.2,0.5,0.4,0.8,0.5c0.3,0.1,0.7,0.2,1.1,0.2
		c0.4,0,0.8-0.1,1-0.2c0.2-0.2,0.4-0.4,0.4-0.7c0-0.2,0-0.3-0.1-0.4c-0.1-0.1-0.2-0.2-0.3-0.3c-0.1-0.1-0.3-0.2-0.5-0.2
		c-0.2-0.1-0.4-0.1-0.7-0.2c-0.3-0.1-0.5-0.1-0.7-0.2s-0.4-0.2-0.5-0.3S40,9.9,40,9.8c-0.1-0.1-0.1-0.3-0.1-0.5c0-0.2,0-0.5,0.1-0.7
		s0.2-0.4,0.4-0.5C40.6,8,40.8,7.9,41,7.8c0.2-0.1,0.5-0.1,0.8-0.1c0.4,0,0.7,0.1,0.9,0.2C43,8,43.2,8.1,43.5,8.3L43.2,8.7z"/>
	<path class="st6" d="M47.8,13.1h-0.5v-2.2c0-0.4-0.1-0.8-0.2-1c-0.2-0.2-0.4-0.3-0.7-0.3c-0.1,0-0.3,0-0.4,0.1
		c-0.1,0.1-0.3,0.1-0.4,0.2s-0.2,0.2-0.3,0.4c-0.1,0.1-0.2,0.3-0.2,0.4v2.4h-0.5V7.6H45V10c0.2-0.3,0.4-0.5,0.7-0.7
		c0.3-0.2,0.6-0.3,0.9-0.3c0.2,0,0.4,0,0.6,0.1c0.2,0.1,0.3,0.2,0.4,0.3s0.2,0.3,0.2,0.5s0.1,0.4,0.1,0.7V13.1z"/>
	<path class="st6" d="M50.6,13.1c-0.3,0-0.5-0.1-0.8-0.2s-0.4-0.3-0.6-0.4c-0.2-0.2-0.3-0.4-0.4-0.6c-0.1-0.2-0.1-0.5-0.1-0.8
		c0-0.3,0-0.5,0.1-0.8c0.1-0.2,0.2-0.5,0.4-0.6c0.2-0.2,0.4-0.3,0.6-0.4c0.2-0.1,0.5-0.2,0.8-0.2c0.3,0,0.5,0.1,0.8,0.2
		s0.4,0.3,0.6,0.4c0.2,0.2,0.3,0.4,0.4,0.6c0.1,0.2,0.1,0.5,0.1,0.8c0,0.3,0,0.5-0.1,0.8s-0.2,0.5-0.4,0.6c-0.2,0.2-0.4,0.3-0.6,0.4
		S50.8,13.1,50.6,13.1z M49.1,11.1c0,0.2,0,0.4,0.1,0.6c0.1,0.2,0.2,0.4,0.3,0.5s0.3,0.3,0.5,0.3c0.2,0.1,0.4,0.1,0.6,0.1
		s0.4,0,0.6-0.1s0.3-0.2,0.5-0.3c0.1-0.1,0.2-0.3,0.3-0.5s0.1-0.4,0.1-0.6c0-0.2,0-0.4-0.1-0.6c-0.1-0.2-0.2-0.4-0.3-0.5
		c-0.1-0.1-0.3-0.3-0.4-0.3c-0.2-0.1-0.4-0.1-0.5-0.1c-0.2,0-0.4,0-0.6,0.1c-0.2,0.1-0.3,0.2-0.4,0.3s-0.2,0.3-0.3,0.5
		C49.2,10.7,49.1,10.9,49.1,11.1z"/>
	<path class="st6" d="M58.1,9.2h0.5L57,13.1h-0.4l-0.8-2l-0.8,2h-0.4l-1.7-3.9h0.5l1.4,3.4l0.7-1.8l-0.7-1.6h0.4l0.5,1.3l0.5-1.3
		h0.4L56,10.8l0.7,1.8L58.1,9.2z"/>
	<path class="st6" d="M62.6,13.1h-0.5v-2.2c0-0.5-0.1-0.8-0.2-1c-0.1-0.2-0.3-0.3-0.6-0.3c-0.2,0-0.3,0-0.5,0.1
		c-0.1,0.1-0.3,0.1-0.4,0.2c-0.1,0.1-0.2,0.2-0.3,0.4c-0.1,0.1-0.2,0.3-0.2,0.4v2.4h-0.5V9.2h0.5V10c0.1-0.1,0.2-0.3,0.3-0.4
		c0.1-0.1,0.2-0.2,0.4-0.3s0.3-0.1,0.5-0.2c0.2,0,0.3-0.1,0.5-0.1c0.2,0,0.4,0,0.6,0.1s0.3,0.2,0.4,0.3c0.1,0.1,0.2,0.3,0.2,0.5
		s0.1,0.4,0.1,0.7V13.1z"/>
	<path class="st6" d="M67.3,13.1c-0.3,0-0.5-0.1-0.8-0.2s-0.4-0.3-0.6-0.4c-0.2-0.2-0.3-0.4-0.4-0.6c-0.1-0.2-0.1-0.5-0.1-0.8
		c0-0.3,0-0.5,0.1-0.8c0.1-0.2,0.2-0.5,0.4-0.6c0.2-0.2,0.4-0.3,0.6-0.4c0.2-0.1,0.5-0.2,0.8-0.2c0.3,0,0.5,0.1,0.8,0.2
		s0.4,0.3,0.6,0.4c0.2,0.2,0.3,0.4,0.4,0.6c0.1,0.2,0.1,0.5,0.1,0.8c0,0.3,0,0.5-0.1,0.8s-0.2,0.5-0.4,0.6c-0.2,0.2-0.4,0.3-0.6,0.4
		S67.5,13.1,67.3,13.1z M65.8,11.1c0,0.2,0,0.4,0.1,0.6c0.1,0.2,0.2,0.4,0.3,0.5s0.3,0.3,0.5,0.3c0.2,0.1,0.4,0.1,0.6,0.1
		s0.4,0,0.6-0.1s0.3-0.2,0.5-0.3c0.1-0.1,0.2-0.3,0.3-0.5s0.1-0.4,0.1-0.6c0-0.2,0-0.4-0.1-0.6c-0.1-0.2-0.2-0.4-0.3-0.5
		c-0.1-0.1-0.3-0.3-0.4-0.3c-0.2-0.1-0.4-0.1-0.5-0.1c-0.2,0-0.4,0-0.6,0.1c-0.2,0.1-0.3,0.2-0.4,0.3s-0.2,0.3-0.3,0.5
		C65.9,10.7,65.8,10.9,65.8,11.1z"/>
	<path class="st6" d="M73.3,13.1h-0.5v-2.2c0-0.5-0.1-0.8-0.2-1c-0.1-0.2-0.3-0.3-0.6-0.3c-0.2,0-0.3,0-0.5,0.1
		c-0.1,0.1-0.3,0.1-0.4,0.2c-0.1,0.1-0.2,0.2-0.3,0.4c-0.1,0.1-0.2,0.3-0.2,0.4v2.4H70V9.2h0.5V10c0.1-0.1,0.2-0.3,0.3-0.4
		c0.1-0.1,0.2-0.2,0.4-0.3s0.3-0.1,0.5-0.2c0.2,0,0.3-0.1,0.5-0.1c0.2,0,0.4,0,0.6,0.1s0.3,0.2,0.4,0.3c0.1,0.1,0.2,0.3,0.2,0.5
		s0.1,0.4,0.1,0.7V13.1z"/>
	<path class="st6" d="M76.4,13.1V7.7h3.5v0.5h-3v2h2.5v0.4h-2.5v2.5H76.4z"/>
	<path class="st6" d="M81.7,13.1c-0.4,0-0.7-0.1-0.9-0.4c-0.2-0.3-0.3-0.7-0.3-1.3V9.2H81v2.2c0,0.9,0.3,1.3,0.9,1.3
		c0.1,0,0.3,0,0.4-0.1c0.1,0,0.3-0.1,0.4-0.2c0.1-0.1,0.2-0.2,0.3-0.3c0.1-0.1,0.2-0.3,0.2-0.4V9.2h0.5v3.2c0,0.1,0.1,0.2,0.2,0.2
		v0.5c-0.1,0-0.2,0-0.2,0c-0.1,0-0.2,0-0.3-0.1c-0.1-0.1-0.1-0.2-0.1-0.3v-0.5c-0.2,0.3-0.4,0.5-0.7,0.7S82,13.1,81.7,13.1z"/>
	<path class="st6" d="M85,7.6h0.5v4.6c0,0.1,0,0.3,0.1,0.3c0.1,0.1,0.2,0.1,0.3,0.1c0.1,0,0.1,0,0.2,0c0.1,0,0.1,0,0.2-0.1l0.1,0.4
		c-0.1,0-0.2,0.1-0.3,0.1c-0.1,0-0.3,0-0.4,0c-0.2,0-0.4-0.1-0.6-0.2C85,12.8,85,12.6,85,12.4V7.6z"/>
	<path class="st6" d="M86.9,7.6h0.5v4.6c0,0.1,0,0.3,0.1,0.3c0.1,0.1,0.2,0.1,0.3,0.1c0.1,0,0.1,0,0.2,0c0.1,0,0.1,0,0.2-0.1
		l0.1,0.4c-0.1,0-0.2,0.1-0.3,0.1c-0.1,0-0.3,0-0.4,0c-0.2,0-0.4-0.1-0.6-0.2c-0.1-0.1-0.2-0.3-0.2-0.6V7.6z"/>
	<path class="st6" d="M94.7,11.7c0,0.2,0,0.4-0.1,0.6s-0.2,0.3-0.3,0.4S94,12.9,93.8,13c-0.2,0.1-0.4,0.1-0.6,0.1h-2.5V7.7h2.6
		c0.2,0,0.4,0,0.5,0.1C94,7.9,94.1,8,94.2,8.2c0.1,0.1,0.2,0.3,0.2,0.4c0.1,0.2,0.1,0.3,0.1,0.5c0,0.3-0.1,0.5-0.2,0.7
		c-0.1,0.2-0.3,0.4-0.6,0.5c0.3,0.1,0.5,0.3,0.7,0.5S94.7,11.4,94.7,11.7z M91.3,8.2v2h1.8c0.1,0,0.3,0,0.4-0.1s0.2-0.1,0.3-0.2
		c0.1-0.1,0.1-0.2,0.2-0.3S94,9.3,94,9.2c0-0.1,0-0.3-0.1-0.4c0-0.1-0.1-0.2-0.2-0.3c-0.1-0.1-0.2-0.2-0.3-0.2
		c-0.1-0.1-0.2-0.1-0.3-0.1H91.3z M94.2,11.6c0-0.1,0-0.3-0.1-0.4S94,11,94,10.9c-0.1-0.1-0.2-0.2-0.3-0.2s-0.2-0.1-0.4-0.1h-2v2h2
		c0.1,0,0.3,0,0.4-0.1c0.1-0.1,0.2-0.1,0.3-0.2c0.1-0.1,0.2-0.2,0.2-0.3C94.2,11.9,94.2,11.7,94.2,11.6z"/>
	<path class="st6" d="M97.3,13.1c-0.3,0-0.5-0.1-0.8-0.2c-0.2-0.1-0.4-0.3-0.6-0.4s-0.3-0.4-0.4-0.6c-0.1-0.2-0.1-0.5-0.1-0.8
		c0-0.3,0-0.5,0.1-0.8c0.1-0.2,0.2-0.5,0.4-0.6c0.2-0.2,0.4-0.3,0.6-0.4c0.2-0.1,0.5-0.2,0.8-0.2s0.5,0.1,0.8,0.2
		c0.2,0.1,0.4,0.3,0.6,0.4s0.3,0.4,0.4,0.6c0.1,0.2,0.1,0.5,0.1,0.8c0,0,0,0.1,0,0.1c0,0,0,0.1,0,0.1h-3.3c0,0.2,0.1,0.4,0.1,0.6
		c0.1,0.2,0.2,0.3,0.3,0.5s0.3,0.2,0.4,0.3c0.2,0.1,0.3,0.1,0.5,0.1c0.1,0,0.3,0,0.4-0.1c0.1,0,0.2-0.1,0.3-0.1
		c0.1-0.1,0.2-0.1,0.3-0.2c0.1-0.1,0.1-0.2,0.2-0.3l0.4,0.1c-0.1,0.1-0.1,0.3-0.3,0.4c-0.1,0.1-0.2,0.2-0.4,0.3
		C98.2,13,98,13,97.9,13.1C97.7,13.1,97.5,13.1,97.3,13.1z M98.8,10.9c0-0.2-0.1-0.4-0.1-0.6c-0.1-0.2-0.2-0.3-0.3-0.4
		c-0.1-0.1-0.3-0.2-0.4-0.3c-0.2-0.1-0.3-0.1-0.5-0.1c-0.2,0-0.4,0-0.5,0.1c-0.2,0.1-0.3,0.2-0.4,0.3c-0.1,0.1-0.2,0.3-0.3,0.5
		c-0.1,0.2-0.1,0.4-0.1,0.6H98.8z"/>
	<path class="st6" d="M101.6,13.1c-0.3,0-0.5-0.1-0.8-0.2c-0.2-0.1-0.4-0.3-0.6-0.4c-0.2-0.2-0.3-0.4-0.4-0.6s-0.1-0.5-0.1-0.8
		c0-0.3,0-0.5,0.1-0.8s0.2-0.5,0.4-0.6s0.3-0.3,0.6-0.4c0.2-0.1,0.5-0.2,0.7-0.2c0.3,0,0.6,0.1,0.9,0.3s0.5,0.4,0.6,0.6V7.6h0.5v4.8
		c0,0.1,0.1,0.2,0.2,0.2v0.5c-0.1,0-0.2,0-0.2,0c-0.1,0-0.2,0-0.3-0.1c-0.1-0.1-0.1-0.2-0.1-0.3v-0.4c-0.2,0.3-0.4,0.5-0.6,0.6
		S101.9,13.1,101.6,13.1z M101.7,12.7c0.1,0,0.3,0,0.4-0.1c0.1,0,0.3-0.1,0.4-0.2c0.1-0.1,0.2-0.2,0.3-0.3c0.1-0.1,0.1-0.2,0.2-0.4
		v-1.2c0-0.1-0.1-0.3-0.2-0.4s-0.2-0.2-0.3-0.3c-0.1-0.1-0.3-0.2-0.4-0.2c-0.1,0-0.3-0.1-0.4-0.1c-0.2,0-0.4,0-0.6,0.1
		c-0.2,0.1-0.3,0.2-0.4,0.4s-0.2,0.3-0.3,0.5s-0.1,0.4-0.1,0.6c0,0.2,0,0.4,0.1,0.6c0.1,0.2,0.2,0.4,0.3,0.5
		c0.1,0.1,0.3,0.3,0.5,0.3C101.4,12.6,101.5,12.7,101.7,12.7z"/>
	<path class="st6" d="M106.4,10.5c0-0.3,0-0.5,0.1-0.8s0.1-0.5,0.2-0.7c0.1-0.2,0.2-0.5,0.3-0.7c0.1-0.2,0.3-0.5,0.4-0.7l0.4,0.2
		c-0.1,0.1-0.2,0.3-0.3,0.6c-0.1,0.2-0.2,0.5-0.3,0.7c-0.1,0.3-0.2,0.5-0.2,0.8c-0.1,0.3-0.1,0.5-0.1,0.8c0,0.4,0.1,0.8,0.3,1.3
		c0.2,0.5,0.4,0.9,0.7,1.4l-0.4,0.2c-0.3-0.5-0.6-0.9-0.8-1.4C106.5,11.4,106.4,10.9,106.4,10.5z"/>
	<path class="st6" d="M110.2,9.7c0.2,0,0.5,0,0.7,0.1s0.4,0.2,0.5,0.3c0.2,0.2,0.3,0.3,0.4,0.5s0.1,0.4,0.1,0.7c0,0.3,0,0.5-0.1,0.7
		c-0.1,0.2-0.2,0.4-0.4,0.6c-0.2,0.2-0.4,0.3-0.6,0.4c-0.2,0.1-0.5,0.1-0.7,0.1c-0.4,0-0.7-0.1-1-0.3c-0.3-0.2-0.5-0.4-0.7-0.8
		l0.3-0.3c0.1,0.2,0.3,0.4,0.6,0.6s0.5,0.2,0.8,0.2c0.2,0,0.4,0,0.5-0.1s0.3-0.1,0.4-0.3c0.1-0.1,0.2-0.2,0.3-0.4
		c0.1-0.2,0.1-0.3,0.1-0.5c0-0.2,0-0.4-0.1-0.5c-0.1-0.2-0.2-0.3-0.3-0.4c-0.1-0.1-0.2-0.2-0.4-0.3c-0.2-0.1-0.3-0.1-0.5-0.1
		c-0.2,0-0.5,0.1-0.7,0.2s-0.4,0.3-0.5,0.4h-0.5c0,0,0-0.1,0-0.2c0-0.1,0-0.2,0.1-0.4c0-0.1,0.1-0.3,0.1-0.5c0-0.2,0.1-0.4,0.1-0.5
		c0.1-0.4,0.2-0.9,0.3-1.4h2.6v0.5h-2.2l-0.4,1.9c0.1-0.1,0.3-0.3,0.5-0.3S110,9.7,110.2,9.7z"/>
	<path class="st6" d="M115.1,13.1v-1.4h-2.6v-0.5l2.8-3.4h0.4v3.4h0.7v0.5h-0.7v1.4H115.1z M113,11.2h2.1V8.5L113,11.2z"/>
	<path class="st6" d="M117,7.6c0.1,0,0.1,0,0.2,0s0.1,0,0.2,0.1s0.1,0.1,0.1,0.1s0.1,0.1,0.1,0.2V9h-0.4V8.1c0-0.1,0-0.1-0.1-0.1
		c0,0-0.1,0-0.1,0V7.6z M117.9,7.6c0.1,0,0.1,0,0.2,0s0.1,0,0.2,0.1s0.1,0.1,0.1,0.1s0.1,0.1,0.1,0.2V9h-0.4V8.1
		c0-0.1,0-0.1-0.1-0.1c0,0-0.1,0-0.1,0V7.6z"/>
	<path class="st6" d="M121.6,9.2l1.2,1.5l0.1,0.1l0.1-0.1l1.2-1.5h0.5l-1.5,2l1.5,1.9H124l-1.2-1.5l-0.1-0.1l-0.1,0.1l-1.2,1.5H121
		l1.5-1.9l-1.5-2H121.6z"/>
	<path class="st6" d="M129.7,8.2h-2.9V7.7h3.7l-2.7,5.3h-0.6L129.7,8.2z"/>
	<path class="st6" d="M132.6,9.7c0.2,0,0.5,0,0.7,0.1s0.4,0.2,0.5,0.3c0.2,0.2,0.3,0.3,0.4,0.5s0.1,0.4,0.1,0.7c0,0.3,0,0.5-0.1,0.7
		c-0.1,0.2-0.2,0.4-0.4,0.6c-0.2,0.2-0.4,0.3-0.6,0.4s-0.5,0.1-0.7,0.1c-0.4,0-0.7-0.1-1-0.3c-0.3-0.2-0.5-0.4-0.7-0.8l0.3-0.3
		c0.1,0.2,0.3,0.4,0.6,0.6c0.2,0.1,0.5,0.2,0.8,0.2c0.2,0,0.4,0,0.5-0.1s0.3-0.1,0.4-0.3c0.1-0.1,0.2-0.2,0.3-0.4
		c0.1-0.2,0.1-0.3,0.1-0.5c0-0.2,0-0.4-0.1-0.5c-0.1-0.2-0.2-0.3-0.3-0.4c-0.1-0.1-0.2-0.2-0.4-0.3s-0.3-0.1-0.5-0.1
		c-0.2,0-0.4,0.1-0.7,0.2s-0.4,0.3-0.5,0.4h-0.5c0,0,0-0.1,0-0.2c0-0.1,0-0.2,0.1-0.4c0-0.1,0.1-0.3,0.1-0.5c0-0.2,0.1-0.4,0.1-0.5
		c0.1-0.4,0.2-0.9,0.3-1.4h2.6v0.5h-2.2l-0.4,1.9c0.1-0.1,0.3-0.3,0.5-0.3S132.4,9.7,132.6,9.7z"/>
	<path class="st6" d="M135.1,7.6c0.1,0,0.1,0,0.2,0s0.1,0,0.2,0.1s0.1,0.1,0.1,0.1s0.1,0.1,0.1,0.2V9h-0.4V8.1c0-0.1,0-0.1-0.1-0.1
		c0,0-0.1,0-0.1,0V7.6z M136.1,7.6c0.1,0,0.1,0,0.2,0s0.1,0,0.2,0.1s0.1,0.1,0.1,0.1s0.1,0.1,0.1,0.2V9h-0.4V8.1
		c0-0.1,0-0.1-0.1-0.1c0,0-0.1,0-0.1,0V7.6z"/>
	<path class="st6" d="M138.8,10.5c0,0.5-0.1,1-0.3,1.4c-0.2,0.5-0.4,1-0.8,1.4l-0.4-0.2c0.3-0.5,0.5-0.9,0.7-1.4
		c0.2-0.5,0.3-0.9,0.3-1.3c0-0.2,0-0.5-0.1-0.8c-0.1-0.3-0.1-0.5-0.2-0.8c-0.1-0.2-0.2-0.5-0.3-0.7c-0.1-0.2-0.2-0.4-0.3-0.6
		l0.4-0.2c0.1,0.2,0.3,0.5,0.4,0.7c0.1,0.2,0.2,0.5,0.3,0.7c0.1,0.2,0.2,0.5,0.2,0.7C138.8,10,138.8,10.2,138.8,10.5z"/>
</g>
</svg>
