<?xml version="1.0" encoding="utf-8"?>
<!-- Generator: Adobe Illustrator 24.0.3, SVG Export Plug-In . SVG Version: 6.00 Build 0)  -->
<svg version="1.1" id="Layer_1" xmlns="http://www.w3.org/2000/svg" xmlns:xlink="http://www.w3.org/1999/xlink" x="0px" y="0px"
	 viewBox="0 0 180 180" style="enable-background:new 0 0 180 180;" xml:space="preserve">
<style type="text/css">
	.st0{opacity:0.2;}
	.st1{fill:#FBF9F9;stroke:#000000;stroke-width:1.02;stroke-miterlimit:10;}
	.st2{opacity:0.9;}
	.st3{clip-path:url(#SVGID_2_);}
	.st4{fill:none;stroke:#F15D5A;stroke-width:8.000000e-02;stroke-miterlimit:10;stroke-dasharray:1.56,1.56;}
	.st5{fill:none;stroke:#F15D5A;stroke-width:0.94;stroke-linecap:round;stroke-linejoin:round;}
	.st6{fill:#231F20;}
</style>
<title>L on Queen Bed-01</title>
<g class="st0">
	<path class="st1" d="M44.4,18.5h90.4c3,0,5.4,2.4,5.4,5.4c0,0,0,0,0,0v123c0,3-2.4,5.4-5.4,5.4c0,0,0,0,0,0H44.4
		c-3,0-5.4-2.4-5.4-5.4c0,0,0,0,0,0v-123C39,20.9,41.4,18.5,44.4,18.5C44.4,18.5,44.4,18.5,44.4,18.5z"/>
	<path class="st1" d="M93.8,20.7h41.4c1.6,0,2.9,1.3,2.9,2.9v27.7c0,1.6-1.3,2.9-2.9,2.9H93.8c-1.6,0-2.9-1.3-2.9-2.9c0,0,0,0,0,0
		V23.5C90.9,21.9,92.2,20.7,93.8,20.7C93.8,20.7,93.8,20.7,93.8,20.7z"/>
	<path class="st1" d="M44.1,20.7h41.4c1.6,0,2.9,1.3,2.9,2.9l0,0v27.7c0,1.6-1.3,2.9-2.9,2.9l0,0H44.1c-1.6,0-2.9-1.3-2.9-2.9
		c0,0,0,0,0,0V23.5C41.2,21.9,42.5,20.7,44.1,20.7C44.1,20.7,44.1,20.7,44.1,20.7z"/>
</g>
<g class="st2">
	<g>
		<defs>
			<rect id="SVGID_1_" x="38.3" y="29.4" width="101.3" height="136.1"/>
		</defs>
		<clipPath id="SVGID_2_">
			<use xlink:href="#SVGID_1_"  style="overflow:visible;"/>
		</clipPath>
		<g class="st3">
			<line class="st4" x1="6.5" y1="12.6" x2="6.5" y2="244.2"/>
			<line class="st4" x1="15.1" y1="13" x2="15.1" y2="244.6"/>
			<line class="st4" x1="23.2" y1="12.7" x2="23.2" y2="244.3"/>
			<line class="st4" x1="31.8" y1="13.1" x2="31.8" y2="244.7"/>
			<line class="st4" x1="40.6" y1="12.6" x2="40.6" y2="244.3"/>
			<line class="st4" x1="49.2" y1="13" x2="49.2" y2="244.6"/>
			<line class="st4" x1="57.4" y1="12.7" x2="57.4" y2="244.4"/>
			<line class="st4" x1="65.9" y1="13.1" x2="65.9" y2="244.7"/>
			<line class="st4" x1="74.3" y1="12.6" x2="74.3" y2="244.2"/>
			<line class="st4" x1="82.9" y1="13" x2="82.9" y2="244.6"/>
			<line class="st4" x1="91.1" y1="12.7" x2="91.1" y2="244.3"/>
			<line class="st4" x1="99.7" y1="13.1" x2="99.7" y2="244.7"/>
			<line class="st4" x1="108.5" y1="12.6" x2="108.5" y2="244.3"/>
			<line class="st4" x1="117" y1="13" x2="117" y2="244.6"/>
			<line class="st4" x1="125.2" y1="12.7" x2="125.2" y2="244.4"/>
			<line class="st4" x1="133.8" y1="13.1" x2="133.8" y2="244.7"/>
			<line class="st4" x1="148" y1="32.7" x2="-83.7" y2="32.7"/>
			<line class="st4" x1="147.6" y1="41.3" x2="-84.1" y2="41.3"/>
			<line class="st4" x1="147.9" y1="49.5" x2="-83.8" y2="49.5"/>
			<line class="st4" x1="147.5" y1="58.1" x2="-84.1" y2="58.1"/>
			<line class="st4" x1="147.9" y1="66.9" x2="-83.7" y2="66.9"/>
			<line class="st4" x1="147.6" y1="75.4" x2="-84.1" y2="75.4"/>
			<line class="st4" x1="147.9" y1="83.6" x2="-83.8" y2="83.6"/>
			<line class="st4" x1="147.5" y1="92.2" x2="-84.2" y2="92.2"/>
			<line class="st4" x1="148" y1="100.5" x2="-83.7" y2="100.5"/>
			<line class="st4" x1="147.6" y1="109.1" x2="-84.1" y2="109.1"/>
			<line class="st4" x1="147.9" y1="117.3" x2="-83.8" y2="117.3"/>
			<line class="st4" x1="147.5" y1="125.8" x2="-84.2" y2="125.8"/>
			<line class="st4" x1="147.9" y1="134.6" x2="-83.7" y2="134.6"/>
			<line class="st4" x1="147.5" y1="143.2" x2="-84.1" y2="143.2"/>
			<line class="st4" x1="147.8" y1="151.4" x2="-83.8" y2="151.4"/>
			<line class="st4" x1="147.4" y1="160" x2="-84.2" y2="160"/>
			<line class="st4" x1="148" y1="168.4" x2="-83.7" y2="168.4"/>
			<line class="st4" x1="147.6" y1="176.9" x2="-84.1" y2="176.9"/>
		</g>
	</g>
</g>
<path class="st5" d="M42.9,29.4h94c2,0,3.6,1.6,3.6,3.6c0,0,0,0,0,0v128.8c0,2-1.6,3.6-3.6,3.6c0,0,0,0,0,0h-94
	c-2,0-3.7-1.6-3.7-3.6V33C39.3,31,40.9,29.4,42.9,29.4z"/>
<g>
	<path class="st6" d="M36.5,8.9c-0.2-0.2-0.4-0.3-0.6-0.4S35.3,8.3,35,8.3c-0.5,0-0.8,0.1-1,0.3S33.6,9,33.6,9.3
		c0,0.2,0,0.3,0.1,0.4c0.1,0.1,0.1,0.2,0.3,0.3c0.1,0.1,0.3,0.1,0.5,0.2c0.2,0.1,0.4,0.1,0.7,0.2c0.3,0.1,0.5,0.1,0.8,0.2
		s0.4,0.2,0.6,0.3c0.2,0.1,0.3,0.3,0.4,0.4c0.1,0.2,0.1,0.4,0.1,0.6c0,0.2,0,0.5-0.1,0.6c-0.1,0.2-0.2,0.3-0.4,0.5s-0.4,0.2-0.6,0.3
		c-0.2,0.1-0.5,0.1-0.8,0.1c-0.8,0-1.6-0.3-2.2-0.8l0.3-0.4c0.2,0.2,0.5,0.4,0.8,0.5c0.3,0.1,0.7,0.2,1.1,0.2c0.4,0,0.8-0.1,1-0.2
		c0.2-0.2,0.4-0.4,0.4-0.7c0-0.2,0-0.3-0.1-0.4c-0.1-0.1-0.2-0.2-0.3-0.3c-0.1-0.1-0.3-0.2-0.5-0.2s-0.4-0.1-0.7-0.2
		c-0.3-0.1-0.5-0.1-0.7-0.2c-0.2-0.1-0.4-0.2-0.5-0.3c-0.1-0.1-0.3-0.2-0.3-0.4c-0.1-0.1-0.1-0.3-0.1-0.5c0-0.2,0-0.5,0.1-0.7
		c0.1-0.2,0.2-0.4,0.4-0.5C33.8,8.1,34,8,34.2,7.9c0.2-0.1,0.5-0.1,0.8-0.1c0.4,0,0.7,0.1,1,0.2c0.3,0.1,0.5,0.3,0.8,0.5L36.5,8.9z"
		/>
	<path class="st6" d="M41.1,13.2h-0.5V11c0-0.4-0.1-0.8-0.2-1S40,9.7,39.7,9.7c-0.1,0-0.3,0-0.4,0.1C39.1,9.8,39,9.9,38.9,10
		c-0.1,0.1-0.2,0.2-0.3,0.4s-0.2,0.3-0.2,0.4v2.4h-0.5V7.7h0.5v2.5c0.2-0.3,0.4-0.5,0.7-0.7c0.3-0.2,0.6-0.3,0.9-0.3
		c0.2,0,0.4,0,0.6,0.1c0.2,0.1,0.3,0.2,0.4,0.3c0.1,0.1,0.2,0.3,0.2,0.5s0.1,0.4,0.1,0.7V13.2z"/>
	<path class="st6" d="M43.9,13.3c-0.3,0-0.6-0.1-0.8-0.2s-0.4-0.3-0.6-0.4c-0.2-0.2-0.3-0.4-0.4-0.7c-0.1-0.2-0.1-0.5-0.1-0.8
		c0-0.3,0-0.5,0.1-0.8c0.1-0.2,0.2-0.5,0.4-0.7c0.2-0.2,0.4-0.3,0.6-0.4c0.2-0.1,0.5-0.2,0.8-0.2s0.5,0.1,0.8,0.2
		c0.2,0.1,0.4,0.3,0.6,0.4c0.2,0.2,0.3,0.4,0.4,0.7c0.1,0.2,0.1,0.5,0.1,0.8c0,0.3,0,0.5-0.1,0.8c-0.1,0.2-0.2,0.5-0.4,0.7
		c-0.2,0.2-0.4,0.3-0.6,0.4C44.4,13.3,44.2,13.3,43.9,13.3z M42.5,11.3c0,0.2,0,0.4,0.1,0.6c0.1,0.2,0.2,0.4,0.3,0.5
		c0.1,0.1,0.3,0.3,0.5,0.3s0.4,0.1,0.6,0.1c0.2,0,0.4,0,0.6-0.1c0.2-0.1,0.3-0.2,0.5-0.3c0.1-0.1,0.2-0.3,0.3-0.5
		c0.1-0.2,0.1-0.4,0.1-0.6c0-0.2,0-0.4-0.1-0.6c-0.1-0.2-0.2-0.4-0.3-0.5s-0.3-0.3-0.5-0.3c-0.2-0.1-0.4-0.1-0.6-0.1s-0.4,0-0.6,0.1
		c-0.2,0.1-0.3,0.2-0.5,0.3c-0.1,0.1-0.2,0.3-0.3,0.5S42.5,11.1,42.5,11.3z"/>
	<path class="st6" d="M51.5,9.3H52l-1.7,3.9h-0.4l-0.8-2l-0.8,2h-0.4l-1.7-3.9h0.5l1.4,3.4l0.7-1.8l-0.7-1.6h0.4l0.5,1.3l0.5-1.3H50
		l-0.7,1.6l0.7,1.8L51.5,9.3z"/>
	<path class="st6" d="M56,13.2h-0.5V11c0-0.5-0.1-0.8-0.2-1S55,9.7,54.7,9.7c-0.2,0-0.3,0-0.5,0.1s-0.3,0.1-0.4,0.2
		c-0.1,0.1-0.2,0.2-0.3,0.4c-0.1,0.1-0.2,0.3-0.2,0.5v2.4h-0.5V9.3h0.5v0.9c0.1-0.1,0.2-0.3,0.3-0.4s0.3-0.2,0.4-0.3
		s0.3-0.2,0.5-0.2c0.2,0,0.3-0.1,0.5-0.1c0.2,0,0.4,0,0.6,0.1c0.1,0.1,0.3,0.2,0.4,0.3s0.2,0.3,0.2,0.5s0.1,0.4,0.1,0.7V13.2z"/>
	<path class="st6" d="M60.7,13.3c-0.3,0-0.6-0.1-0.8-0.2s-0.4-0.3-0.6-0.4c-0.2-0.2-0.3-0.4-0.4-0.7c-0.1-0.2-0.1-0.5-0.1-0.8
		c0-0.3,0-0.5,0.1-0.8c0.1-0.2,0.2-0.5,0.4-0.7c0.2-0.2,0.4-0.3,0.6-0.4c0.2-0.1,0.5-0.2,0.8-0.2s0.5,0.1,0.8,0.2
		c0.2,0.1,0.4,0.3,0.6,0.4c0.2,0.2,0.3,0.4,0.4,0.7c0.1,0.2,0.1,0.5,0.1,0.8c0,0.3,0,0.5-0.1,0.8c-0.1,0.2-0.2,0.5-0.4,0.7
		c-0.2,0.2-0.4,0.3-0.6,0.4C61.3,13.3,61,13.3,60.7,13.3z M59.3,11.3c0,0.2,0,0.4,0.1,0.6c0.1,0.2,0.2,0.4,0.3,0.5
		c0.1,0.1,0.3,0.3,0.5,0.3s0.4,0.1,0.6,0.1c0.2,0,0.4,0,0.6-0.1c0.2-0.1,0.3-0.2,0.5-0.3c0.1-0.1,0.2-0.3,0.3-0.5
		c0.1-0.2,0.1-0.4,0.1-0.6c0-0.2,0-0.4-0.1-0.6c-0.1-0.2-0.2-0.4-0.3-0.5s-0.3-0.3-0.5-0.3c-0.2-0.1-0.4-0.1-0.6-0.1s-0.4,0-0.6,0.1
		c-0.2,0.1-0.3,0.2-0.5,0.3c-0.1,0.1-0.2,0.3-0.3,0.5S59.3,11.1,59.3,11.3z"/>
	<path class="st6" d="M66.9,13.2h-0.5V11c0-0.5-0.1-0.8-0.2-1s-0.3-0.3-0.6-0.3c-0.2,0-0.3,0-0.5,0.1s-0.3,0.1-0.4,0.2
		c-0.1,0.1-0.2,0.2-0.3,0.4c-0.1,0.1-0.2,0.3-0.2,0.5v2.4h-0.5V9.3H64v0.9c0.1-0.1,0.2-0.3,0.3-0.4s0.3-0.2,0.4-0.3s0.3-0.2,0.5-0.2
		c0.2,0,0.3-0.1,0.5-0.1c0.2,0,0.4,0,0.6,0.1c0.1,0.1,0.3,0.2,0.4,0.3s0.2,0.3,0.2,0.5s0.1,0.4,0.1,0.7V13.2z"/>
	<path class="st6" d="M73.6,12.8c-0.2,0.2-0.4,0.3-0.7,0.4s-0.5,0.1-0.8,0.1c-0.4,0-0.7-0.1-1-0.2c-0.3-0.2-0.6-0.4-0.8-0.6
		s-0.4-0.5-0.5-0.9c-0.1-0.3-0.2-0.7-0.2-1c0-0.4,0.1-0.7,0.2-1s0.3-0.6,0.5-0.9s0.5-0.5,0.8-0.6c0.3-0.1,0.6-0.2,1-0.2
		c0.4,0,0.7,0.1,1,0.2c0.3,0.2,0.6,0.4,0.8,0.6c0.2,0.3,0.4,0.5,0.5,0.9c0.1,0.3,0.2,0.7,0.2,1c0,0.4-0.1,0.7-0.2,1.1
		s-0.3,0.6-0.6,0.9l0.6,0.7h-0.5L73.6,12.8z M72.2,12.8c0.2,0,0.4,0,0.6-0.1s0.4-0.2,0.5-0.3l-0.7-0.8h0.5l0.4,0.5
		c0.2-0.2,0.3-0.5,0.4-0.7s0.1-0.5,0.1-0.8c0-0.3,0-0.6-0.1-0.8c-0.1-0.3-0.2-0.5-0.4-0.7S73.2,8.6,73,8.5c-0.2-0.1-0.5-0.2-0.8-0.2
		c-0.3,0-0.6,0.1-0.8,0.2c-0.2,0.1-0.5,0.3-0.6,0.5c-0.2,0.2-0.3,0.5-0.4,0.7c-0.1,0.3-0.1,0.5-0.1,0.8c0,0.3,0,0.6,0.1,0.8
		c0.1,0.3,0.2,0.5,0.4,0.7c0.2,0.2,0.4,0.4,0.6,0.5S71.9,12.8,72.2,12.8z"/>
	<path class="st6" d="M76.8,13.3c-0.4,0-0.7-0.1-0.9-0.4s-0.3-0.7-0.3-1.3V9.3h0.5v2.2c0,0.9,0.3,1.3,0.9,1.3c0.2,0,0.3,0,0.4-0.1
		s0.3-0.1,0.4-0.2c0.1-0.1,0.2-0.2,0.3-0.3c0.1-0.1,0.2-0.3,0.2-0.4V9.3h0.5v3.3c0,0.1,0.1,0.2,0.2,0.2v0.5c-0.1,0-0.2,0-0.2,0
		c-0.1,0-0.2,0-0.3-0.1c-0.1-0.1-0.1-0.2-0.1-0.3v-0.5c-0.2,0.3-0.4,0.5-0.7,0.7C77.5,13.2,77.2,13.3,76.8,13.3z"/>
	<path class="st6" d="M81.8,13.3c-0.3,0-0.6-0.1-0.8-0.2s-0.5-0.3-0.6-0.4S80.1,12.3,80,12c-0.1-0.2-0.1-0.5-0.1-0.8
		c0-0.3,0-0.5,0.1-0.8c0.1-0.2,0.2-0.5,0.4-0.6s0.4-0.3,0.6-0.4s0.5-0.2,0.8-0.2s0.6,0.1,0.8,0.2s0.4,0.3,0.6,0.4
		c0.2,0.2,0.3,0.4,0.4,0.6s0.1,0.5,0.1,0.8c0,0,0,0.1,0,0.1s0,0.1,0,0.1h-3.4c0,0.2,0.1,0.4,0.1,0.6c0.1,0.2,0.2,0.3,0.3,0.5
		c0.1,0.1,0.3,0.2,0.4,0.3s0.3,0.1,0.5,0.1c0.1,0,0.3,0,0.4-0.1c0.1,0,0.2-0.1,0.3-0.1s0.2-0.1,0.3-0.2c0.1-0.1,0.1-0.2,0.2-0.3
		l0.4,0.1c-0.1,0.1-0.1,0.3-0.3,0.4c-0.1,0.1-0.2,0.2-0.4,0.3s-0.3,0.2-0.5,0.2C82.2,13.3,82,13.3,81.8,13.3z M83.3,11.1
		c0-0.2-0.1-0.4-0.1-0.6c-0.1-0.2-0.2-0.3-0.3-0.5c-0.1-0.1-0.3-0.2-0.5-0.3S82,9.6,81.8,9.6s-0.4,0-0.5,0.1
		c-0.2,0.1-0.3,0.2-0.5,0.3c-0.1,0.1-0.2,0.3-0.3,0.5c-0.1,0.2-0.1,0.4-0.1,0.6H83.3z"/>
	<path class="st6" d="M86.3,13.3c-0.3,0-0.6-0.1-0.8-0.2s-0.5-0.3-0.6-0.4s-0.3-0.4-0.4-0.7c-0.1-0.2-0.1-0.5-0.1-0.8
		c0-0.3,0-0.5,0.1-0.8c0.1-0.2,0.2-0.5,0.4-0.6s0.4-0.3,0.6-0.4s0.5-0.2,0.8-0.2s0.6,0.1,0.8,0.2c0.2,0.1,0.4,0.3,0.6,0.4
		c0.2,0.2,0.3,0.4,0.4,0.6s0.1,0.5,0.1,0.8c0,0,0,0.1,0,0.1s0,0.1,0,0.1h-3.4c0,0.2,0.1,0.4,0.1,0.6c0.1,0.2,0.2,0.3,0.3,0.5
		c0.1,0.1,0.3,0.2,0.4,0.3s0.3,0.1,0.5,0.1c0.1,0,0.3,0,0.4-0.1c0.1,0,0.2-0.1,0.3-0.1c0.1-0.1,0.2-0.1,0.3-0.2
		c0.1-0.1,0.1-0.2,0.2-0.3l0.4,0.1c-0.1,0.1-0.1,0.3-0.3,0.4c-0.1,0.1-0.2,0.2-0.4,0.3s-0.3,0.2-0.5,0.2
		C86.6,13.3,86.4,13.3,86.3,13.3z M87.7,11.1c0-0.2-0.1-0.4-0.1-0.6c-0.1-0.2-0.2-0.3-0.3-0.5c-0.1-0.1-0.3-0.2-0.5-0.3
		c-0.2-0.1-0.4-0.1-0.5-0.1s-0.4,0-0.5,0.1c-0.2,0.1-0.3,0.2-0.5,0.3c-0.1,0.1-0.2,0.3-0.3,0.5c-0.1,0.2-0.1,0.4-0.1,0.6H87.7z"/>
	<path class="st6" d="M92.3,13.2h-0.5V11c0-0.5-0.1-0.8-0.2-1c-0.1-0.2-0.3-0.3-0.6-0.3c-0.2,0-0.3,0-0.5,0.1s-0.3,0.1-0.4,0.2
		c-0.1,0.1-0.2,0.2-0.3,0.4c-0.1,0.1-0.2,0.3-0.2,0.5v2.4H89V9.3h0.5v0.9c0.1-0.1,0.2-0.3,0.3-0.4c0.1-0.1,0.3-0.2,0.4-0.3
		c0.1-0.1,0.3-0.2,0.5-0.2s0.3-0.1,0.5-0.1c0.2,0,0.4,0,0.6,0.1c0.1,0.1,0.3,0.2,0.4,0.3c0.1,0.1,0.2,0.3,0.2,0.5s0.1,0.4,0.1,0.7
		V13.2z"/>
	<path class="st6" d="M99.5,11.9c0,0.2,0,0.4-0.1,0.6c-0.1,0.2-0.2,0.3-0.3,0.4c-0.1,0.1-0.3,0.2-0.5,0.3c-0.2,0.1-0.4,0.1-0.6,0.1
		h-2.5V7.9H98c0.2,0,0.4,0,0.5,0.1s0.3,0.2,0.4,0.3c0.1,0.1,0.2,0.3,0.2,0.4c0.1,0.2,0.1,0.3,0.1,0.5c0,0.3-0.1,0.5-0.2,0.7
		c-0.1,0.2-0.3,0.4-0.6,0.5c0.3,0.1,0.6,0.3,0.7,0.5C99.4,11.2,99.5,11.5,99.5,11.9z M95.9,8.3v2h1.8c0.1,0,0.3,0,0.4-0.1
		s0.2-0.1,0.3-0.2s0.1-0.2,0.2-0.3c0-0.1,0.1-0.2,0.1-0.4c0-0.1,0-0.3-0.1-0.4s-0.1-0.2-0.2-0.3c-0.1-0.1-0.2-0.2-0.3-0.2
		c-0.1-0.1-0.2-0.1-0.4-0.1H95.9z M98.9,11.8c0-0.1,0-0.3-0.1-0.4c0-0.1-0.1-0.2-0.2-0.3c-0.1-0.1-0.2-0.2-0.3-0.2
		c-0.1-0.1-0.2-0.1-0.4-0.1h-2.1v2h2c0.1,0,0.3,0,0.4-0.1s0.2-0.1,0.3-0.2c0.1-0.1,0.2-0.2,0.2-0.3S98.9,11.9,98.9,11.8z"/>
	<path class="st6" d="M102.1,13.3c-0.3,0-0.6-0.1-0.8-0.2s-0.5-0.3-0.6-0.4s-0.3-0.4-0.4-0.7c-0.1-0.2-0.1-0.5-0.1-0.8
		c0-0.3,0-0.5,0.1-0.8c0.1-0.2,0.2-0.5,0.4-0.6s0.4-0.3,0.6-0.4c0.2-0.1,0.5-0.2,0.8-0.2c0.3,0,0.6,0.1,0.8,0.2
		c0.2,0.1,0.4,0.3,0.6,0.4c0.2,0.2,0.3,0.4,0.4,0.6s0.1,0.5,0.1,0.8c0,0,0,0.1,0,0.1c0,0,0,0.1,0,0.1h-3.4c0,0.2,0.1,0.4,0.1,0.6
		c0.1,0.2,0.2,0.3,0.3,0.5c0.1,0.1,0.3,0.2,0.4,0.3c0.2,0.1,0.3,0.1,0.5,0.1c0.1,0,0.3,0,0.4-0.1c0.1,0,0.2-0.1,0.3-0.1
		c0.1-0.1,0.2-0.1,0.3-0.2c0.1-0.1,0.1-0.2,0.2-0.3l0.4,0.1c-0.1,0.1-0.1,0.3-0.3,0.4c-0.1,0.1-0.2,0.2-0.4,0.3
		c-0.1,0.1-0.3,0.2-0.5,0.2S102.3,13.3,102.1,13.3z M103.5,11.1c0-0.2-0.1-0.4-0.1-0.6c-0.1-0.2-0.2-0.3-0.3-0.5
		c-0.1-0.1-0.3-0.2-0.5-0.3c-0.2-0.1-0.4-0.1-0.5-0.1c-0.2,0-0.4,0-0.5,0.1c-0.2,0.1-0.3,0.2-0.5,0.3c-0.1,0.1-0.2,0.3-0.3,0.5
		s-0.1,0.4-0.1,0.6H103.5z"/>
	<path class="st6" d="M106.4,13.3c-0.3,0-0.5-0.1-0.8-0.2c-0.2-0.1-0.4-0.3-0.6-0.5s-0.3-0.4-0.4-0.6c-0.1-0.2-0.1-0.5-0.1-0.8
		c0-0.3,0-0.5,0.1-0.8c0.1-0.2,0.2-0.5,0.4-0.7c0.2-0.2,0.3-0.3,0.6-0.4s0.5-0.2,0.7-0.2c0.3,0,0.6,0.1,0.9,0.3
		c0.3,0.2,0.5,0.4,0.6,0.6V7.7h0.5v4.9c0,0.1,0.1,0.2,0.2,0.2v0.5c-0.1,0-0.2,0-0.2,0c-0.1,0-0.2,0-0.3-0.1s-0.1-0.2-0.1-0.3v-0.4
		c-0.2,0.3-0.4,0.5-0.6,0.6S106.7,13.3,106.4,13.3z M106.5,12.9c0.1,0,0.3,0,0.4-0.1s0.3-0.1,0.4-0.2c0.1-0.1,0.2-0.2,0.3-0.3
		s0.1-0.2,0.2-0.4v-1.2c-0.1-0.1-0.1-0.3-0.2-0.4c-0.1-0.1-0.2-0.2-0.3-0.3c-0.1-0.1-0.3-0.2-0.4-0.2c-0.1-0.1-0.3-0.1-0.4-0.1
		c-0.2,0-0.4,0-0.6,0.1c-0.2,0.1-0.3,0.2-0.4,0.4s-0.2,0.3-0.3,0.5c-0.1,0.2-0.1,0.4-0.1,0.6c0,0.2,0,0.4,0.1,0.6
		c0.1,0.2,0.2,0.4,0.3,0.5c0.1,0.1,0.3,0.3,0.5,0.3C106.1,12.8,106.3,12.9,106.5,12.9z"/>
	<path class="st6" d="M111.2,10.6c0-0.3,0-0.5,0.1-0.8c0.1-0.2,0.1-0.5,0.2-0.7c0.1-0.2,0.2-0.5,0.3-0.7s0.3-0.5,0.4-0.7l0.4,0.2
		c-0.1,0.2-0.2,0.3-0.3,0.6s-0.2,0.5-0.3,0.7c-0.1,0.3-0.2,0.5-0.2,0.8c-0.1,0.3-0.1,0.5-0.1,0.8c0,0.4,0.1,0.8,0.3,1.3
		c0.2,0.5,0.4,0.9,0.7,1.4l-0.4,0.2c-0.3-0.5-0.6-1-0.8-1.4C111.3,11.6,111.2,11.1,111.2,10.6z"/>
	<path class="st6" d="M117.1,11.5c0,0.3,0,0.5-0.1,0.7c-0.1,0.2-0.2,0.4-0.4,0.6c-0.2,0.2-0.4,0.3-0.6,0.4c-0.2,0.1-0.5,0.1-0.7,0.1
		c-0.3,0-0.5-0.1-0.8-0.2c-0.2-0.1-0.4-0.3-0.6-0.4c-0.2-0.2-0.3-0.4-0.4-0.7c-0.1-0.3-0.1-0.6-0.1-0.9c0-0.5,0-1,0.1-1.4
		c0.1-0.4,0.2-0.7,0.4-1c0.2-0.3,0.4-0.5,0.6-0.6c0.2-0.1,0.5-0.2,0.8-0.2c0.4,0,0.7,0.1,1,0.3c0.3,0.2,0.5,0.4,0.6,0.7l-0.3,0.3
		c-0.1-0.3-0.3-0.5-0.5-0.6c-0.2-0.2-0.5-0.2-0.8-0.2c-0.2,0-0.4,0.1-0.6,0.2s-0.3,0.3-0.5,0.5c-0.1,0.2-0.2,0.4-0.3,0.7
		c-0.1,0.3-0.1,0.6-0.1,1c0.1-0.3,0.3-0.5,0.6-0.7c0.3-0.2,0.6-0.3,0.9-0.3c0.3,0,0.5,0,0.7,0.1c0.2,0.1,0.4,0.2,0.6,0.4
		c0.2,0.2,0.3,0.4,0.4,0.6S117.1,11.2,117.1,11.5z M115.3,12.9c0.2,0,0.4,0,0.5-0.1s0.3-0.2,0.4-0.3c0.1-0.1,0.2-0.3,0.3-0.4
		s0.1-0.3,0.1-0.5c0-0.2,0-0.4-0.1-0.5c-0.1-0.2-0.2-0.3-0.3-0.4c-0.1-0.1-0.3-0.2-0.4-0.3c-0.2-0.1-0.4-0.1-0.5-0.1
		c-0.2,0-0.4,0-0.5,0.1c-0.2,0.1-0.3,0.2-0.5,0.3c-0.1,0.1-0.2,0.3-0.3,0.4s-0.1,0.3-0.1,0.5c0,0.2,0,0.4,0.1,0.5
		c0.1,0.2,0.2,0.3,0.3,0.4c0.1,0.1,0.3,0.2,0.4,0.3C114.9,12.8,115.1,12.9,115.3,12.9z"/>
	<path class="st6" d="M120.1,13.3c-0.4,0-0.7-0.1-1-0.3s-0.5-0.4-0.7-0.7c-0.2-0.3-0.3-0.6-0.4-0.9c-0.1-0.3-0.1-0.6-0.1-0.9
		c0-0.3,0.1-0.6,0.2-1c0.1-0.3,0.3-0.6,0.4-0.9c0.2-0.3,0.4-0.5,0.7-0.6s0.6-0.2,0.9-0.2c0.4,0,0.7,0.1,1,0.3
		c0.3,0.2,0.5,0.4,0.7,0.7s0.3,0.6,0.4,0.9c0.1,0.3,0.1,0.6,0.1,0.9c0,0.3-0.1,0.7-0.2,1c-0.1,0.3-0.3,0.6-0.4,0.9
		c-0.2,0.3-0.4,0.5-0.7,0.6C120.7,13.2,120.4,13.3,120.1,13.3z M118.4,10.6c0,0.3,0,0.5,0.1,0.8c0.1,0.3,0.2,0.5,0.3,0.7
		c0.1,0.2,0.3,0.4,0.5,0.5c0.2,0.1,0.5,0.2,0.7,0.2c0.3,0,0.5-0.1,0.7-0.2c0.2-0.1,0.4-0.3,0.5-0.5c0.1-0.2,0.2-0.5,0.3-0.7
		c0.1-0.3,0.1-0.5,0.1-0.8c0-0.3,0-0.5-0.1-0.8c-0.1-0.3-0.2-0.5-0.3-0.7c-0.1-0.2-0.3-0.4-0.5-0.5s-0.4-0.2-0.7-0.2
		c-0.3,0-0.5,0.1-0.7,0.2s-0.4,0.3-0.5,0.6c-0.1,0.2-0.2,0.5-0.3,0.7C118.4,10.1,118.4,10.3,118.4,10.6z"/>
	<path class="st6" d="M123.1,7.7c0.1,0,0.1,0,0.2,0c0.1,0,0.1,0,0.2,0.1c0.1,0,0.1,0.1,0.1,0.2c0,0.1,0.1,0.1,0.1,0.2v0.9h-0.4V8.3
		c0-0.1,0-0.1-0.1-0.1s-0.1,0-0.1,0V7.7z M124.1,7.7c0.1,0,0.1,0,0.2,0c0.1,0,0.1,0,0.2,0.1c0.1,0,0.1,0.1,0.1,0.2
		c0,0.1,0.1,0.1,0.1,0.2v0.9h-0.4V8.3c0-0.1,0-0.1-0.1-0.1c0,0-0.1,0-0.1,0V7.7z"/>
	<path class="st6" d="M127.8,9.3l1.2,1.5l0.1,0.1l0.1-0.1l1.2-1.5h0.6l-1.5,2l1.5,2h-0.6l-1.2-1.5l-0.1-0.1l-0.1,0.1l-1.2,1.5h-0.6
		l1.5-2l-1.5-2H127.8z"/>
	<path class="st6" d="M136.9,11.7c0,0.2-0.1,0.5-0.2,0.6c-0.1,0.2-0.2,0.4-0.4,0.5c-0.2,0.1-0.4,0.2-0.6,0.3
		c-0.2,0.1-0.5,0.1-0.7,0.1c-0.3,0-0.5,0-0.7-0.1c-0.2-0.1-0.4-0.2-0.6-0.3c-0.2-0.1-0.3-0.3-0.4-0.5s-0.1-0.4-0.1-0.6
		c0-0.2,0-0.3,0.1-0.5c0.1-0.1,0.1-0.3,0.2-0.4c0.1-0.1,0.2-0.2,0.3-0.3c0.1-0.1,0.3-0.1,0.4-0.2c-0.1-0.1-0.2-0.1-0.3-0.2
		c-0.1-0.1-0.2-0.2-0.3-0.3c-0.1-0.1-0.1-0.2-0.2-0.3c0-0.1-0.1-0.2-0.1-0.4c0-0.2,0.1-0.4,0.2-0.6c0.1-0.2,0.2-0.3,0.4-0.4
		c0.2-0.1,0.3-0.2,0.5-0.3s0.4-0.1,0.6-0.1s0.4,0,0.6,0.1s0.4,0.1,0.5,0.3c0.2,0.1,0.3,0.3,0.4,0.4c0.1,0.2,0.2,0.4,0.2,0.6
		c0,0.1,0,0.3-0.1,0.4s-0.1,0.2-0.2,0.3c-0.1,0.1-0.2,0.2-0.3,0.3s-0.2,0.1-0.3,0.2c0.1,0.1,0.3,0.1,0.4,0.2
		c0.1,0.1,0.2,0.2,0.3,0.3c0.1,0.1,0.2,0.2,0.2,0.4C136.9,11.4,136.9,11.6,136.9,11.7z M136.4,11.7c0-0.2,0-0.3-0.1-0.5
		s-0.2-0.3-0.3-0.4c-0.1-0.1-0.3-0.2-0.4-0.2c-0.2-0.1-0.3-0.1-0.5-0.1c-0.2,0-0.3,0-0.5,0.1c-0.2,0.1-0.3,0.1-0.4,0.2
		c-0.1,0.1-0.2,0.2-0.3,0.4c-0.1,0.1-0.1,0.3-0.1,0.5c0,0.2,0,0.3,0.1,0.5s0.2,0.3,0.3,0.4c0.1,0.1,0.3,0.2,0.4,0.2
		c0.2,0.1,0.3,0.1,0.5,0.1c0.2,0,0.3,0,0.5-0.1c0.2-0.1,0.3-0.1,0.4-0.2c0.1-0.1,0.2-0.2,0.3-0.4S136.4,11.9,136.4,11.7z M133.9,9.3
		c0,0.1,0,0.3,0.1,0.4c0.1,0.1,0.2,0.2,0.3,0.3c0.1,0.1,0.2,0.1,0.4,0.2c0.1,0,0.3,0.1,0.4,0.1c0.1,0,0.3,0,0.4-0.1
		c0.1,0,0.3-0.1,0.4-0.2c0.1-0.1,0.2-0.2,0.3-0.3c0.1-0.1,0.1-0.2,0.1-0.4c0-0.1,0-0.3-0.1-0.4c-0.1-0.1-0.2-0.2-0.3-0.3
		c-0.1-0.1-0.2-0.1-0.4-0.2s-0.3-0.1-0.4-0.1s-0.3,0-0.4,0.1c-0.1,0-0.3,0.1-0.4,0.2c-0.1,0.1-0.2,0.2-0.3,0.3
		C134,9,133.9,9.1,133.9,9.3z"/>
	<path class="st6" d="M139.9,13.3c-0.4,0-0.7-0.1-1-0.3s-0.5-0.4-0.7-0.7c-0.2-0.3-0.3-0.6-0.4-0.9c-0.1-0.3-0.1-0.6-0.1-0.9
		c0-0.3,0.1-0.6,0.2-1c0.1-0.3,0.3-0.6,0.4-0.9c0.2-0.3,0.4-0.5,0.7-0.6s0.6-0.2,0.9-0.2c0.4,0,0.7,0.1,1,0.3
		c0.3,0.2,0.5,0.4,0.7,0.7s0.3,0.6,0.4,0.9c0.1,0.3,0.1,0.6,0.1,0.9c0,0.3-0.1,0.7-0.2,1c-0.1,0.3-0.3,0.6-0.4,0.9
		c-0.2,0.3-0.4,0.5-0.7,0.6C140.6,13.2,140.3,13.3,139.9,13.3z M138.3,10.6c0,0.3,0,0.5,0.1,0.8c0.1,0.3,0.2,0.5,0.3,0.7
		c0.1,0.2,0.3,0.4,0.5,0.5c0.2,0.1,0.5,0.2,0.7,0.2c0.3,0,0.5-0.1,0.7-0.2c0.2-0.1,0.4-0.3,0.5-0.5c0.1-0.2,0.2-0.5,0.3-0.7
		c0.1-0.3,0.1-0.5,0.1-0.8c0-0.3,0-0.5-0.1-0.8c-0.1-0.3-0.2-0.5-0.3-0.7c-0.1-0.2-0.3-0.4-0.5-0.5s-0.4-0.2-0.7-0.2
		c-0.3,0-0.5,0.1-0.7,0.2s-0.4,0.3-0.5,0.6c-0.1,0.2-0.2,0.5-0.3,0.7C138.3,10.1,138.3,10.3,138.3,10.6z"/>
	<path class="st6" d="M142.9,7.7c0.1,0,0.1,0,0.2,0c0.1,0,0.1,0,0.2,0.1c0.1,0,0.1,0.1,0.1,0.2c0,0.1,0.1,0.1,0.1,0.2v0.9h-0.4V8.3
		c0-0.1,0-0.1-0.1-0.1s-0.1,0-0.1,0V7.7z M143.9,7.7c0.1,0,0.1,0,0.2,0c0.1,0,0.1,0,0.2,0.1c0.1,0,0.1,0.1,0.1,0.2
		c0,0.1,0.1,0.1,0.1,0.2v0.9h-0.4V8.3c0-0.1,0-0.1-0.1-0.1c0,0-0.1,0-0.1,0V7.7z"/>
	<path class="st6" d="M146.7,10.6c0,0.5-0.1,1-0.3,1.5c-0.2,0.5-0.5,1-0.8,1.4l-0.4-0.2c0.3-0.5,0.5-0.9,0.7-1.4
		c0.2-0.5,0.3-0.9,0.3-1.3c0-0.2,0-0.5-0.1-0.8c-0.1-0.3-0.1-0.5-0.2-0.8c-0.1-0.3-0.2-0.5-0.3-0.7c-0.1-0.2-0.2-0.4-0.3-0.6
		l0.4-0.2c0.1,0.2,0.3,0.5,0.4,0.7c0.1,0.2,0.2,0.5,0.3,0.7c0.1,0.2,0.2,0.5,0.2,0.7C146.7,10.1,146.7,10.4,146.7,10.6z"/>
</g>
</svg>
