<?xml version="1.0" encoding="utf-8"?>
<!-- Generator: Adobe Illustrator 24.0.3, SVG Export Plug-In . SVG Version: 6.00 Build 0)  -->
<svg version="1.1" id="Layer_1" xmlns="http://www.w3.org/2000/svg" xmlns:xlink="http://www.w3.org/1999/xlink" x="0px" y="0px"
	 viewBox="0 0 180 180" style="enable-background:new 0 0 180 180;" xml:space="preserve">
<style type="text/css">
	.st0{opacity:0.2;}
	.st1{fill:#FAFAF9;stroke:#000000;stroke-width:0.89;stroke-miterlimit:10;}
	.st2{opacity:0.9;}
	.st3{clip-path:url(#SVGID_2_);}
	.st4{fill:none;stroke:#F05C5A;stroke-width:7.000000e-02;stroke-miterlimit:10;stroke-dasharray:1.47,1.47;}
	.st5{fill:none;stroke:#F05C5A;stroke-width:0.89;stroke-linecap:round;stroke-linejoin:round;}
	.st6{fill:#231F20;}
</style>
<title>L on King Bed-01-01</title>
<g class="st0">
	<path class="st1" d="M27.6,18.5h122.5c3,0,5.4,2.4,5.4,5.4v130.2c0,3-2.4,5.4-5.4,5.4H27.6c-3,0-5.4-2.4-5.4-5.4V23.9
		C22.2,20.9,24.7,18.5,27.6,18.5z"/>
	<path class="st1" d="M93.4,20.8h56.4c1.6,0,2.9,1.3,2.9,2.9v29.5c0,1.6-1.3,2.9-2.9,2.9H93.4c-1.6,0-2.9-1.3-2.9-2.9V23.7
		C90.5,22.1,91.8,20.8,93.4,20.8z"/>
	<path class="st1" d="M28,20.8h56.4c1.6,0,2.9,1.3,2.9,2.9v29.5c0,1.6-1.3,2.9-2.9,2.9H28c-1.6,0-2.9-1.3-2.9-2.9V23.7
		C25.1,22.1,26.4,20.8,28,20.8z"/>
</g>
<g class="st2">
	<g>
		<g>
			<defs>
				<rect id="SVGID_1_" x="74.2" y="39" width="95.3" height="128"/>
			</defs>
			<clipPath id="SVGID_2_">
				<use xlink:href="#SVGID_1_"  style="overflow:visible;"/>
			</clipPath>
			<g class="st3">
				<line class="st4" x1="4.3" y1="23.6" x2="4.3" y2="241.5"/>
				<line class="st4" x1="12.5" y1="23.1" x2="12.5" y2="241.1"/>
				<line class="st4" x1="20.6" y1="23.5" x2="20.6" y2="241.5"/>
				<line class="st4" x1="28.3" y1="23.2" x2="28.3" y2="241.2"/>
				<line class="st4" x1="36.4" y1="23.6" x2="36.4" y2="241.6"/>
				<line class="st4" x1="44.2" y1="23.1" x2="44.2" y2="241.1"/>
				<line class="st4" x1="52.2" y1="23.5" x2="52.2" y2="241.4"/>
				<line class="st4" x1="60" y1="23.2" x2="60" y2="241.2"/>
				<line class="st4" x1="68" y1="23.6" x2="68" y2="241.5"/>
				<line class="st4" x1="76.3" y1="23.2" x2="76.3" y2="241.1"/>
				<line class="st4" x1="84.4" y1="23.5" x2="84.4" y2="241.5"/>
				<line class="st4" x1="92.1" y1="23.3" x2="92.1" y2="241.2"/>
				<line class="st4" x1="100.1" y1="23.6" x2="100.1" y2="241.6"/>
				<line class="st4" x1="108" y1="23.1" x2="108" y2="241.1"/>
				<line class="st4" x1="116.1" y1="23.5" x2="116.1" y2="241.4"/>
				<line class="st4" x1="123.8" y1="23.2" x2="123.8" y2="241.2"/>
				<line class="st4" x1="131.9" y1="23.6" x2="131.9" y2="241.5"/>
				<line class="st4" x1="140.1" y1="23.2" x2="140.1" y2="241.1"/>
				<line class="st4" x1="148.2" y1="23.5" x2="148.2" y2="241.5"/>
				<line class="st4" x1="155.9" y1="23.3" x2="155.9" y2="241.2"/>
				<line class="st4" x1="164" y1="23.6" x2="164" y2="241.6"/>
				<line class="st4" x1="177.3" y1="42.1" x2="-40.6" y2="42.1"/>
				<line class="st4" x1="176.9" y1="50.2" x2="-41" y2="50.2"/>
				<line class="st4" x1="177.2" y1="57.9" x2="-40.7" y2="57.9"/>
				<line class="st4" x1="176.9" y1="66" x2="-41.1" y2="66"/>
				<line class="st4" x1="177.3" y1="74.2" x2="-40.7" y2="74.2"/>
				<line class="st4" x1="176.9" y1="82.3" x2="-41" y2="82.3"/>
				<line class="st4" x1="177.2" y1="90" x2="-40.8" y2="90"/>
				<line class="st4" x1="176.8" y1="98.1" x2="-41.1" y2="98.1"/>
				<line class="st4" x1="177.3" y1="105.9" x2="-40.7" y2="105.9"/>
				<line class="st4" x1="176.9" y1="113.9" x2="-41" y2="113.9"/>
				<line class="st4" x1="177.2" y1="121.6" x2="-40.7" y2="121.6"/>
				<line class="st4" x1="176.8" y1="129.7" x2="-41.1" y2="129.7"/>
				<line class="st4" x1="177.2" y1="138" x2="-40.7" y2="138"/>
				<line class="st4" x1="176.9" y1="146" x2="-41.1" y2="146"/>
				<line class="st4" x1="177.2" y1="153.7" x2="-40.8" y2="153.7"/>
				<line class="st4" x1="176.8" y1="161.8" x2="-41.1" y2="161.8"/>
				<line class="st4" x1="177.3" y1="169.7" x2="-40.7" y2="169.7"/>
				<line class="st4" x1="176.9" y1="177.8" x2="-41" y2="177.8"/>
			</g>
		</g>
	</g>
</g>
<path class="st5" d="M77.6,39H166c1.9,0,3.4,1.5,3.4,3.4v121.1c0,1.9-1.5,3.4-3.4,3.4H77.6c-1.9,0-3.4-1.5-3.4-3.4V42.4
	C74.2,40.5,75.7,39,77.6,39z"/>
<g>
	<path class="st6" d="M40.3,8.7c-0.2-0.2-0.4-0.3-0.6-0.4c-0.3-0.1-0.5-0.2-0.9-0.2c-0.5,0-0.8,0.1-1,0.3c-0.2,0.2-0.3,0.4-0.3,0.7
		c0,0.2,0,0.3,0.1,0.4s0.1,0.2,0.3,0.3c0.1,0.1,0.3,0.1,0.5,0.2c0.2,0.1,0.4,0.1,0.7,0.2c0.3,0.1,0.5,0.1,0.8,0.2
		c0.2,0.1,0.4,0.2,0.6,0.3c0.2,0.1,0.3,0.2,0.4,0.4c0.1,0.2,0.1,0.4,0.1,0.6c0,0.2,0,0.5-0.1,0.6c-0.1,0.2-0.2,0.3-0.4,0.4
		s-0.4,0.2-0.6,0.3C39.4,13,39.1,13,38.9,13c-0.8,0-1.5-0.3-2.1-0.8l0.3-0.4c0.2,0.2,0.5,0.4,0.8,0.5c0.3,0.1,0.7,0.2,1.1,0.2
		c0.4,0,0.8-0.1,1-0.2c0.2-0.2,0.4-0.4,0.4-0.7c0-0.2,0-0.3-0.1-0.4C40.1,11.1,40,11,39.8,11c-0.1-0.1-0.3-0.2-0.5-0.2
		c-0.2-0.1-0.4-0.1-0.7-0.2c-0.3-0.1-0.5-0.1-0.7-0.2s-0.4-0.2-0.5-0.3S37.1,9.9,37,9.7c-0.1-0.1-0.1-0.3-0.1-0.5
		c0-0.2,0-0.5,0.1-0.7s0.2-0.4,0.4-0.5c0.2-0.1,0.4-0.2,0.6-0.3c0.2-0.1,0.5-0.1,0.8-0.1c0.4,0,0.7,0.1,0.9,0.2
		c0.3,0.1,0.5,0.3,0.8,0.5L40.3,8.7z"/>
	<path class="st6" d="M44.9,13h-0.5v-2.2c0-0.4-0.1-0.8-0.2-1c-0.2-0.2-0.4-0.3-0.7-0.3c-0.1,0-0.3,0-0.4,0.1
		c-0.1,0.1-0.3,0.1-0.4,0.2s-0.2,0.2-0.3,0.4c-0.1,0.1-0.2,0.3-0.2,0.4V13h-0.5V7.5h0.5V10c0.2-0.3,0.4-0.5,0.7-0.7
		C43,9.1,43.3,9,43.6,9c0.2,0,0.4,0,0.6,0.1c0.2,0.1,0.3,0.2,0.4,0.3s0.2,0.3,0.2,0.5s0.1,0.4,0.1,0.7V13z"/>
	<path class="st6" d="M47.6,13.1c-0.3,0-0.5-0.1-0.8-0.2s-0.4-0.3-0.6-0.4c-0.2-0.2-0.3-0.4-0.4-0.6c-0.1-0.2-0.1-0.5-0.1-0.8
		c0-0.3,0-0.5,0.1-0.8c0.1-0.2,0.2-0.5,0.4-0.6c0.2-0.2,0.4-0.3,0.6-0.4C47.1,9.1,47.4,9,47.6,9c0.3,0,0.5,0.1,0.8,0.2
		s0.4,0.3,0.6,0.4c0.2,0.2,0.3,0.4,0.4,0.6c0.1,0.2,0.1,0.5,0.1,0.8c0,0.3,0,0.5-0.1,0.8s-0.2,0.5-0.4,0.6c-0.2,0.2-0.4,0.3-0.6,0.4
		S47.9,13.1,47.6,13.1z M46.2,11.1c0,0.2,0,0.4,0.1,0.6c0.1,0.2,0.2,0.4,0.3,0.5s0.3,0.3,0.5,0.3c0.2,0.1,0.4,0.1,0.6,0.1
		s0.4,0,0.6-0.1s0.3-0.2,0.5-0.3c0.1-0.1,0.2-0.3,0.3-0.5s0.1-0.4,0.1-0.6c0-0.2,0-0.4-0.1-0.6c-0.1-0.2-0.2-0.4-0.3-0.5
		c-0.1-0.1-0.3-0.3-0.4-0.3c-0.2-0.1-0.4-0.1-0.5-0.1c-0.2,0-0.4,0-0.6,0.1c-0.2,0.1-0.3,0.2-0.4,0.3s-0.2,0.3-0.3,0.5
		C46.3,10.6,46.2,10.8,46.2,11.1z"/>
	<path class="st6" d="M55.2,9.1h0.5L54,13h-0.4l-0.8-2l-0.8,2h-0.4l-1.7-3.9h0.5l1.4,3.4l0.7-1.8l-0.7-1.6h0.4l0.5,1.3l0.5-1.3h0.4
		L53,10.7l0.7,1.8L55.2,9.1z"/>
	<path class="st6" d="M59.7,13h-0.5v-2.2c0-0.5-0.1-0.8-0.2-1c-0.1-0.2-0.3-0.3-0.6-0.3c-0.2,0-0.3,0-0.5,0.1
		c-0.1,0.1-0.3,0.1-0.4,0.2c-0.1,0.1-0.2,0.2-0.3,0.4c-0.1,0.1-0.2,0.3-0.2,0.4V13h-0.5V9.1h0.5V10c0.1-0.1,0.2-0.3,0.3-0.4
		c0.1-0.1,0.2-0.2,0.4-0.3s0.3-0.1,0.5-0.2C58.1,9,58.3,9,58.5,9c0.2,0,0.4,0,0.6,0.1s0.3,0.2,0.4,0.3c0.1,0.1,0.2,0.3,0.2,0.5
		s0.1,0.4,0.1,0.7V13z"/>
	<path class="st6" d="M64.3,13.1c-0.3,0-0.5-0.1-0.8-0.2s-0.4-0.3-0.6-0.4c-0.2-0.2-0.3-0.4-0.4-0.6c-0.1-0.2-0.1-0.5-0.1-0.8
		c0-0.3,0-0.5,0.1-0.8c0.1-0.2,0.2-0.5,0.4-0.6c0.2-0.2,0.4-0.3,0.6-0.4C63.8,9.1,64,9,64.3,9c0.3,0,0.5,0.1,0.8,0.2
		s0.4,0.3,0.6,0.4c0.2,0.2,0.3,0.4,0.4,0.6c0.1,0.2,0.1,0.5,0.1,0.8c0,0.3,0,0.5-0.1,0.8s-0.2,0.5-0.4,0.6c-0.2,0.2-0.4,0.3-0.6,0.4
		S64.6,13.1,64.3,13.1z M62.9,11.1c0,0.2,0,0.4,0.1,0.6c0.1,0.2,0.2,0.4,0.3,0.5s0.3,0.3,0.5,0.3c0.2,0.1,0.4,0.1,0.6,0.1
		s0.4,0,0.6-0.1s0.3-0.2,0.5-0.3c0.1-0.1,0.2-0.3,0.3-0.5s0.1-0.4,0.1-0.6c0-0.2,0-0.4-0.1-0.6c-0.1-0.2-0.2-0.4-0.3-0.5
		c-0.1-0.1-0.3-0.3-0.4-0.3c-0.2-0.1-0.4-0.1-0.5-0.1c-0.2,0-0.4,0-0.6,0.1c-0.2,0.1-0.3,0.2-0.4,0.3s-0.2,0.3-0.3,0.5
		C62.9,10.6,62.9,10.8,62.9,11.1z"/>
	<path class="st6" d="M70.4,13h-0.5v-2.2c0-0.5-0.1-0.8-0.2-1c-0.1-0.2-0.3-0.3-0.6-0.3c-0.2,0-0.3,0-0.5,0.1
		c-0.1,0.1-0.3,0.1-0.4,0.2c-0.1,0.1-0.2,0.2-0.3,0.4c-0.1,0.1-0.2,0.3-0.2,0.4V13h-0.5V9.1h0.5V10c0.1-0.1,0.2-0.3,0.3-0.4
		c0.1-0.1,0.2-0.2,0.4-0.3s0.3-0.1,0.5-0.2C68.9,9,69,9,69.2,9c0.2,0,0.4,0,0.6,0.1s0.3,0.2,0.4,0.3c0.1,0.1,0.2,0.3,0.2,0.5
		s0.1,0.4,0.1,0.7V13z"/>
	<path class="st6" d="M73.5,13V7.7H74v3.1l2.9-3.1h0.6L75.3,10l2.3,3h-0.6l-2-2.7l-1,1V13H73.5z"/>
	<path class="st6" d="M78.2,8.3V7.5h0.5v0.7H78.2z M78.2,13V9.1h0.5V13H78.2z"/>
	<path class="st6" d="M83.1,13h-0.5v-2.2c0-0.5-0.1-0.8-0.2-1c-0.1-0.2-0.3-0.3-0.6-0.3c-0.2,0-0.3,0-0.5,0.1
		c-0.1,0.1-0.3,0.1-0.4,0.2c-0.1,0.1-0.2,0.2-0.3,0.4c-0.1,0.1-0.2,0.3-0.2,0.4V13h-0.5V9.1h0.5V10c0.1-0.1,0.2-0.3,0.3-0.4
		c0.1-0.1,0.2-0.2,0.4-0.3s0.3-0.1,0.5-0.2C81.5,9,81.7,9,81.9,9c0.2,0,0.4,0,0.6,0.1s0.3,0.2,0.4,0.3C82.9,9.6,83,9.8,83,10
		s0.1,0.4,0.1,0.7V13z"/>
	<path class="st6" d="M85.7,13.1c-0.3,0-0.5-0.1-0.7-0.2c-0.2-0.1-0.4-0.3-0.6-0.4c-0.2-0.2-0.3-0.4-0.4-0.6
		c-0.1-0.2-0.1-0.5-0.1-0.7c0-0.3,0-0.5,0.1-0.8s0.2-0.5,0.4-0.6c0.2-0.2,0.4-0.3,0.6-0.4C85.2,9.1,85.4,9,85.7,9
		c0.3,0,0.6,0.1,0.9,0.3s0.5,0.4,0.6,0.6V9.1h0.5V13c0,0.3-0.1,0.5-0.2,0.7c-0.1,0.2-0.2,0.4-0.4,0.5s-0.4,0.2-0.6,0.3
		c-0.2,0.1-0.5,0.1-0.7,0.1c-0.4,0-0.8-0.1-1.1-0.2c-0.3-0.2-0.5-0.4-0.7-0.6l0.3-0.2c0.2,0.2,0.4,0.4,0.6,0.6
		c0.3,0.1,0.5,0.2,0.8,0.2c0.2,0,0.4,0,0.5-0.1c0.2-0.1,0.3-0.1,0.5-0.2c0.1-0.1,0.2-0.2,0.3-0.4c0.1-0.2,0.1-0.3,0.1-0.6v-0.8
		c-0.2,0.2-0.4,0.4-0.6,0.6C86.2,13,86,13.1,85.7,13.1z M85.8,12.6c0.1,0,0.3,0,0.4-0.1s0.3-0.1,0.4-0.2c0.1-0.1,0.2-0.2,0.3-0.3
		c0.1-0.1,0.1-0.2,0.2-0.4v-1.2c-0.1-0.1-0.1-0.3-0.2-0.4c-0.1-0.1-0.2-0.2-0.3-0.3c-0.1-0.1-0.2-0.2-0.4-0.2
		c-0.1,0-0.3-0.1-0.4-0.1c-0.2,0-0.4,0-0.6,0.1C85,9.7,84.9,9.8,84.7,10s-0.2,0.3-0.3,0.5c-0.1,0.2-0.1,0.4-0.1,0.6
		c0,0.2,0,0.4,0.1,0.6c0.1,0.2,0.2,0.4,0.3,0.5c0.1,0.1,0.3,0.3,0.5,0.3C85.4,12.6,85.6,12.6,85.8,12.6z"/>
	<path class="st6" d="M94.8,11.6c0,0.2,0,0.4-0.1,0.6s-0.2,0.3-0.3,0.4s-0.3,0.2-0.5,0.3C93.7,13,93.5,13,93.3,13h-2.5V7.7h2.6
		c0.2,0,0.4,0,0.5,0.1C94,7.9,94.1,8,94.2,8.1c0.1,0.1,0.2,0.3,0.2,0.4c0.1,0.2,0.1,0.3,0.1,0.5c0,0.3-0.1,0.5-0.2,0.7
		c-0.1,0.2-0.3,0.4-0.6,0.5c0.3,0.1,0.5,0.3,0.7,0.5S94.8,11.3,94.8,11.6z M91.3,8.1v2h1.8c0.1,0,0.2,0,0.4-0.1s0.2-0.1,0.3-0.2
		c0.1-0.1,0.1-0.2,0.2-0.3S94,9.2,94,9.1C94,9,94,8.9,94,8.7c0-0.1-0.1-0.2-0.2-0.3c-0.1-0.1-0.2-0.2-0.3-0.2
		c-0.1-0.1-0.2-0.1-0.3-0.1H91.3z M94.3,11.5c0-0.1,0-0.3-0.1-0.4s-0.1-0.2-0.2-0.3c-0.1-0.1-0.2-0.2-0.3-0.2
		c-0.1-0.1-0.2-0.1-0.4-0.1h-2v2h2c0.1,0,0.3,0,0.4-0.1c0.1-0.1,0.2-0.1,0.3-0.2c0.1-0.1,0.2-0.2,0.2-0.3
		C94.2,11.8,94.3,11.7,94.3,11.5z"/>
	<path class="st6" d="M97.4,13.1c-0.3,0-0.5-0.1-0.8-0.2c-0.2-0.1-0.4-0.3-0.6-0.4s-0.3-0.4-0.4-0.6c-0.1-0.2-0.1-0.5-0.1-0.8
		c0-0.3,0-0.5,0.1-0.8s0.2-0.5,0.4-0.6c0.2-0.2,0.4-0.3,0.6-0.4C96.8,9.1,97.1,9,97.4,9s0.5,0.1,0.8,0.2c0.2,0.1,0.4,0.3,0.6,0.4
		s0.3,0.4,0.4,0.6c0.1,0.2,0.1,0.5,0.1,0.8c0,0,0,0.1,0,0.1c0,0,0,0.1,0,0.1h-3.3c0,0.2,0.1,0.4,0.1,0.6c0.1,0.2,0.2,0.3,0.3,0.5
		c0.1,0.1,0.3,0.2,0.4,0.3c0.2,0.1,0.3,0.1,0.5,0.1c0.1,0,0.3,0,0.4-0.1c0.1,0,0.2-0.1,0.3-0.1c0.1-0.1,0.2-0.1,0.3-0.2
		c0.1-0.1,0.1-0.2,0.2-0.3l0.4,0.1c-0.1,0.1-0.1,0.3-0.3,0.4c-0.1,0.1-0.2,0.2-0.4,0.3c-0.1,0.1-0.3,0.2-0.5,0.2
		C97.7,13.1,97.6,13.1,97.4,13.1z M98.8,10.8c0-0.2-0.1-0.4-0.1-0.6c-0.1-0.2-0.2-0.3-0.3-0.4c-0.1-0.1-0.3-0.2-0.4-0.3
		c-0.2-0.1-0.3-0.1-0.5-0.1s-0.4,0-0.5,0.1c-0.2,0.1-0.3,0.2-0.4,0.3c-0.1,0.1-0.2,0.3-0.3,0.5c-0.1,0.2-0.1,0.4-0.1,0.6H98.8z"/>
	<path class="st6" d="M101.7,13.1c-0.3,0-0.5-0.1-0.8-0.2c-0.2-0.1-0.4-0.3-0.6-0.4c-0.2-0.2-0.3-0.4-0.4-0.6
		c-0.1-0.2-0.1-0.5-0.1-0.8c0-0.3,0-0.5,0.1-0.8s0.2-0.5,0.4-0.6s0.3-0.3,0.6-0.4c0.2-0.1,0.5-0.2,0.7-0.2c0.3,0,0.6,0.1,0.9,0.3
		s0.5,0.4,0.6,0.6V7.5h0.5v4.8c0,0.1,0.1,0.2,0.2,0.2V13c-0.1,0-0.2,0-0.2,0c-0.1,0-0.2,0-0.3-0.1c-0.1-0.1-0.1-0.2-0.1-0.3v-0.4
		c-0.2,0.3-0.4,0.5-0.6,0.6C102.2,13,102,13.1,101.7,13.1z M101.8,12.6c0.1,0,0.3,0,0.4-0.1c0.1,0,0.3-0.1,0.4-0.2
		c0.1-0.1,0.2-0.2,0.3-0.3c0.1-0.1,0.1-0.2,0.2-0.4v-1.2c0-0.1-0.1-0.3-0.2-0.4c-0.1-0.1-0.2-0.2-0.3-0.3c-0.1-0.1-0.3-0.2-0.4-0.2
		c-0.1,0-0.3-0.1-0.4-0.1c-0.2,0-0.4,0-0.6,0.1c-0.2,0.1-0.3,0.2-0.4,0.4s-0.2,0.3-0.3,0.5s-0.1,0.4-0.1,0.6c0,0.2,0,0.4,0.1,0.6
		c0.1,0.2,0.2,0.4,0.3,0.5s0.3,0.3,0.5,0.3C101.4,12.6,101.6,12.6,101.8,12.6z"/>
	<path class="st6" d="M106.4,10.4c0-0.3,0-0.5,0.1-0.8c0.1-0.2,0.1-0.5,0.2-0.7c0.1-0.2,0.2-0.5,0.3-0.7c0.1-0.2,0.3-0.5,0.4-0.7
		l0.4,0.2c-0.1,0.1-0.2,0.3-0.3,0.6c-0.1,0.2-0.2,0.5-0.3,0.7c-0.1,0.3-0.2,0.5-0.2,0.8c-0.1,0.3-0.1,0.5-0.1,0.8
		c0,0.4,0.1,0.8,0.3,1.3c0.2,0.5,0.4,0.9,0.7,1.4l-0.4,0.2c-0.3-0.5-0.6-0.9-0.8-1.4C106.5,11.4,106.4,10.9,106.4,10.4z"/>
	<path class="st6" d="M111.2,8.1h-2.9V7.7h3.7l-2.7,5.3h-0.6L111.2,8.1z"/>
	<path class="st6" d="M116.2,11.2c0,0.3,0,0.5-0.1,0.7c-0.1,0.2-0.2,0.4-0.4,0.6c-0.2,0.2-0.4,0.3-0.6,0.4c-0.2,0.1-0.5,0.1-0.7,0.1
		c-0.3,0-0.5-0.1-0.8-0.2c-0.2-0.1-0.4-0.2-0.6-0.4s-0.3-0.4-0.4-0.7c-0.1-0.3-0.1-0.6-0.1-0.9c0-0.5,0-1,0.1-1.4
		c0.1-0.4,0.2-0.7,0.4-1c0.2-0.3,0.4-0.5,0.6-0.6s0.5-0.2,0.8-0.2c0.3,0,0.7,0.1,0.9,0.3c0.3,0.2,0.5,0.4,0.6,0.7l-0.3,0.3
		c-0.1-0.3-0.3-0.5-0.5-0.6c-0.2-0.2-0.5-0.2-0.8-0.2c-0.2,0-0.4,0.1-0.6,0.2c-0.2,0.1-0.3,0.3-0.5,0.5c-0.1,0.2-0.2,0.4-0.3,0.7
		s-0.1,0.6-0.1,1c0.1-0.3,0.3-0.5,0.6-0.7c0.3-0.2,0.6-0.3,0.9-0.3c0.3,0,0.5,0,0.7,0.1c0.2,0.1,0.4,0.2,0.6,0.4s0.3,0.4,0.4,0.6
		C116.2,10.8,116.2,11,116.2,11.2z M114.3,12.6c0.2,0,0.4,0,0.5-0.1c0.2-0.1,0.3-0.2,0.4-0.3c0.1-0.1,0.2-0.3,0.3-0.4
		s0.1-0.3,0.1-0.5s0-0.4-0.1-0.5s-0.2-0.3-0.3-0.4S115,10,114.9,10c-0.2-0.1-0.3-0.1-0.5-0.1c-0.2,0-0.4,0-0.5,0.1
		c-0.2,0.1-0.3,0.2-0.4,0.3c-0.1,0.1-0.2,0.3-0.3,0.4c-0.1,0.2-0.1,0.3-0.1,0.5s0,0.4,0.1,0.5s0.2,0.3,0.3,0.4
		c0.1,0.1,0.3,0.2,0.4,0.3C114,12.6,114.2,12.6,114.3,12.6z"/>
	<path class="st6" d="M117,7.5c0.1,0,0.1,0,0.2,0c0.1,0,0.1,0,0.2,0.1c0.1,0,0.1,0.1,0.1,0.1s0.1,0.1,0.1,0.2v0.9h-0.4V8.1
		c0-0.1,0-0.1-0.1-0.1c0,0-0.1,0-0.1,0V7.5z M117.9,7.5c0.1,0,0.1,0,0.2,0c0.1,0,0.1,0,0.2,0.1c0.1,0,0.1,0.1,0.1,0.1
		s0.1,0.1,0.1,0.2v0.9h-0.4V8.1c0-0.1,0-0.1-0.1-0.1c0,0-0.1,0-0.1,0V7.5z"/>
	<path class="st6" d="M121.6,9.1l1.2,1.5l0.1,0.1l0.1-0.1l1.2-1.5h0.5l-1.5,2l1.5,1.9H124l-1.2-1.5l-0.1-0.1l-0.1,0.1l-1.2,1.5H121
		l1.5-1.9l-1.5-2H121.6z"/>
	<path class="st6" d="M130.7,11.5c0,0.2,0,0.4-0.2,0.6c-0.1,0.2-0.2,0.3-0.4,0.5c-0.2,0.1-0.4,0.2-0.6,0.3s-0.5,0.1-0.7,0.1
		c-0.3,0-0.5,0-0.7-0.1c-0.2-0.1-0.4-0.2-0.6-0.3c-0.2-0.1-0.3-0.3-0.4-0.5s-0.1-0.4-0.1-0.6c0-0.2,0-0.3,0.1-0.5s0.1-0.3,0.2-0.4
		c0.1-0.1,0.2-0.2,0.3-0.3c0.1-0.1,0.3-0.1,0.4-0.2c-0.1,0-0.2-0.1-0.3-0.2c-0.1-0.1-0.2-0.2-0.3-0.3c-0.1-0.1-0.1-0.2-0.2-0.3
		c0-0.1-0.1-0.2-0.1-0.4c0-0.2,0-0.4,0.1-0.6c0.1-0.2,0.2-0.3,0.4-0.4c0.2-0.1,0.3-0.2,0.5-0.3s0.4-0.1,0.6-0.1c0.2,0,0.4,0,0.6,0.1
		s0.4,0.1,0.5,0.3c0.2,0.1,0.3,0.3,0.4,0.4c0.1,0.2,0.2,0.4,0.2,0.6c0,0.1,0,0.3-0.1,0.4c0,0.1-0.1,0.2-0.2,0.3
		c-0.1,0.1-0.2,0.2-0.3,0.3s-0.2,0.1-0.3,0.2c0.1,0.1,0.3,0.1,0.4,0.2s0.2,0.2,0.3,0.3c0.1,0.1,0.2,0.2,0.2,0.4
		C130.6,11.2,130.7,11.4,130.7,11.5z M130.2,11.5c0-0.2,0-0.3-0.1-0.5s-0.2-0.3-0.3-0.3c-0.1-0.1-0.3-0.2-0.4-0.2
		c-0.2,0-0.3-0.1-0.5-0.1c-0.2,0-0.3,0-0.5,0.1c-0.2,0.1-0.3,0.1-0.4,0.2c-0.1,0.1-0.2,0.2-0.3,0.4c-0.1,0.1-0.1,0.3-0.1,0.5
		c0,0.2,0,0.3,0.1,0.5c0.1,0.1,0.2,0.3,0.3,0.3c0.1,0.1,0.3,0.2,0.4,0.2c0.2,0.1,0.3,0.1,0.5,0.1s0.3,0,0.5-0.1
		c0.2-0.1,0.3-0.1,0.4-0.2s0.2-0.2,0.3-0.4S130.2,11.7,130.2,11.5z M127.7,9.1c0,0.1,0,0.3,0.1,0.4c0.1,0.1,0.2,0.2,0.3,0.3
		c0.1,0.1,0.2,0.1,0.4,0.2s0.3,0.1,0.4,0.1c0.1,0,0.3,0,0.4-0.1c0.1,0,0.3-0.1,0.4-0.2c0.1-0.1,0.2-0.2,0.3-0.3
		c0.1-0.1,0.1-0.2,0.1-0.4c0-0.1,0-0.3-0.1-0.4c-0.1-0.1-0.2-0.2-0.3-0.3c-0.1-0.1-0.2-0.1-0.4-0.2c-0.1,0-0.3-0.1-0.4-0.1
		s-0.3,0-0.4,0.1s-0.3,0.1-0.4,0.2c-0.1,0.1-0.2,0.2-0.3,0.3C127.7,8.8,127.7,8.9,127.7,9.1z"/>
	<path class="st6" d="M133.6,13.1c-0.4,0-0.7-0.1-1-0.3c-0.3-0.2-0.5-0.4-0.7-0.6c-0.2-0.3-0.3-0.5-0.4-0.9
		c-0.1-0.3-0.1-0.6-0.1-0.9c0-0.3,0.1-0.6,0.2-1c0.1-0.3,0.2-0.6,0.4-0.9c0.2-0.3,0.4-0.5,0.7-0.6c0.3-0.2,0.6-0.2,0.9-0.2
		c0.4,0,0.7,0.1,1,0.3c0.3,0.2,0.5,0.4,0.7,0.7c0.2,0.3,0.3,0.6,0.4,0.9s0.1,0.6,0.1,0.9c0,0.3-0.1,0.6-0.2,1
		c-0.1,0.3-0.2,0.6-0.4,0.9c-0.2,0.3-0.4,0.5-0.7,0.6C134.3,13,134,13.1,133.6,13.1z M132,10.4c0,0.3,0,0.5,0.1,0.8s0.2,0.5,0.3,0.7
		c0.1,0.2,0.3,0.4,0.5,0.5c0.2,0.1,0.4,0.2,0.7,0.2c0.3,0,0.5-0.1,0.7-0.2c0.2-0.1,0.4-0.3,0.5-0.5c0.1-0.2,0.2-0.5,0.3-0.7
		c0.1-0.3,0.1-0.5,0.1-0.7c0-0.3,0-0.5-0.1-0.8c-0.1-0.3-0.2-0.5-0.3-0.7c-0.1-0.2-0.3-0.4-0.5-0.5c-0.2-0.1-0.4-0.2-0.7-0.2
		c-0.3,0-0.5,0.1-0.7,0.2c-0.2,0.1-0.4,0.3-0.5,0.5c-0.1,0.2-0.2,0.5-0.3,0.7C132,9.9,132,10.1,132,10.4z"/>
	<path class="st6" d="M136.6,7.5c0.1,0,0.1,0,0.2,0c0.1,0,0.1,0,0.2,0.1c0.1,0,0.1,0.1,0.1,0.1s0.1,0.1,0.1,0.2v0.9h-0.4V8.1
		c0-0.1,0-0.1-0.1-0.1c0,0-0.1,0-0.1,0V7.5z M137.6,7.5c0.1,0,0.1,0,0.2,0c0.1,0,0.1,0,0.2,0.1c0.1,0,0.1,0.1,0.1,0.1
		s0.1,0.1,0.1,0.2v0.9h-0.4V8.1c0-0.1,0-0.1-0.1-0.1c0,0-0.1,0-0.1,0V7.5z"/>
	<path class="st6" d="M140.3,10.4c0,0.5-0.1,1-0.3,1.4c-0.2,0.5-0.4,1-0.8,1.4l-0.4-0.2c0.3-0.5,0.5-0.9,0.7-1.4
		c0.2-0.5,0.3-0.9,0.3-1.3c0-0.2,0-0.5-0.1-0.8c-0.1-0.3-0.1-0.5-0.2-0.8c-0.1-0.2-0.2-0.5-0.3-0.7c-0.1-0.2-0.2-0.4-0.3-0.6
		l0.4-0.2c0.1,0.2,0.3,0.5,0.4,0.7c0.1,0.2,0.2,0.5,0.3,0.7c0.1,0.2,0.2,0.5,0.2,0.7C140.3,9.9,140.3,10.2,140.3,10.4z"/>
</g>
</svg>
