<?xml version="1.0" encoding="utf-8"?>
<!-- Generator: Adobe Illustrator 24.0.3, SVG Export Plug-In . SVG Version: 6.00 Build 0)  -->
<svg version="1.1" id="Layer_1" xmlns="http://www.w3.org/2000/svg" xmlns:xlink="http://www.w3.org/1999/xlink" x="0px" y="0px"
	 viewBox="0 0 180 180" style="enable-background:new 0 0 180 180;" xml:space="preserve">
<style type="text/css">
	.st0{opacity:0.2;}
	.st1{fill:#FBF9F9;stroke:#000000;stroke-width:1.02;stroke-miterlimit:10;}
	.st2{fill:none;stroke:#F15D5A;stroke-width:0.84;stroke-linecap:round;stroke-linejoin:round;}
	.st3{opacity:0.9;}
	.st4{clip-path:url(#SVGID_2_);}
	.st5{fill:none;stroke:#F15D5A;stroke-width:8.000000e-02;stroke-miterlimit:10;stroke-dasharray:1.56,1.56;}
	.st6{fill:#231F20;}
</style>
<title>M on Queen Bed-01-01</title>
<g class="st0">
	<path class="st1" d="M44.4,18.5h90.4c3,0,5.4,2.4,5.4,5.4c0,0,0,0,0,0v123c0,3-2.4,5.4-5.4,5.4c0,0,0,0,0,0H44.4
		c-3,0-5.4-2.4-5.4-5.4c0,0,0,0,0,0v-123C39,20.9,41.4,18.5,44.4,18.5C44.4,18.5,44.4,18.5,44.4,18.5z"/>
	<path class="st1" d="M93.8,20.7h41.4c1.6,0,2.9,1.3,2.9,2.9v27.7c0,1.6-1.3,2.9-2.9,2.9H93.8c-1.6,0-2.9-1.3-2.9-2.9c0,0,0,0,0,0
		V23.5C90.9,21.9,92.2,20.7,93.8,20.7C93.8,20.7,93.8,20.7,93.8,20.7z"/>
	<path class="st1" d="M44.1,20.7h41.4c1.6,0,2.9,1.3,2.9,2.9l0,0v27.7c0,1.6-1.3,2.9-2.9,2.9l0,0H44.1c-1.6,0-2.9-1.3-2.9-2.9
		c0,0,0,0,0,0V23.5C41.2,21.9,42.5,20.7,44.1,20.7C44.1,20.7,44.1,20.7,44.1,20.7z"/>
</g>
<path class="st2" d="M73.4,37.1h84.3c1.8,0,3.3,1.5,3.3,3.3v114.3c0,1.8-1.5,3.3-3.3,3.3H73.4c-1.8,0-3.3-1.5-3.3-3.3V40.4
	C70.2,38.6,71.6,37.2,73.4,37.1z"/>
<g class="st3">
	<g>
		<defs>
			<rect id="SVGID_1_" x="70" y="37.1" width="90.9" height="121"/>
		</defs>
		<clipPath id="SVGID_2_">
			<use xlink:href="#SVGID_1_"  style="overflow:visible;"/>
		</clipPath>
		<g class="st4">
			<line class="st5" x1="2.7" y1="20.7" x2="2.7" y2="252.4"/>
			<line class="st5" x1="10.9" y1="20.4" x2="10.9" y2="252.1"/>
			<line class="st5" x1="19.5" y1="20.8" x2="19.5" y2="252.4"/>
			<line class="st5" x1="27.8" y1="20.3" x2="27.8" y2="251.9"/>
			<line class="st5" x1="36.3" y1="20.7" x2="36.3" y2="252.3"/>
			<line class="st5" x1="44.5" y1="20.4" x2="44.5" y2="252"/>
			<line class="st5" x1="53.1" y1="20.8" x2="53.1" y2="252.4"/>
			<line class="st5" x1="61.9" y1="20.4" x2="61.9" y2="252"/>
			<line class="st5" x1="70.5" y1="20.7" x2="70.5" y2="252.4"/>
			<line class="st5" x1="78.7" y1="20.4" x2="78.7" y2="252.1"/>
			<line class="st5" x1="87.2" y1="20.8" x2="87.2" y2="252.5"/>
			<line class="st5" x1="95.6" y1="20.3" x2="95.6" y2="251.9"/>
			<line class="st5" x1="104.2" y1="20.7" x2="104.2" y2="252.3"/>
			<line class="st5" x1="112.4" y1="20.4" x2="112.4" y2="252"/>
			<line class="st5" x1="121" y1="20.8" x2="121" y2="252.4"/>
			<line class="st5" x1="129.7" y1="20.4" x2="129.7" y2="252"/>
			<line class="st5" x1="138.3" y1="20.7" x2="138.3" y2="252.4"/>
			<line class="st5" x1="146.5" y1="20.4" x2="146.5" y2="252.1"/>
			<line class="st5" x1="155.1" y1="20.8" x2="155.1" y2="252.5"/>
			<line class="st5" x1="169.3" y1="40.5" x2="-62.4" y2="40.5"/>
			<line class="st5" x1="168.9" y1="49" x2="-62.8" y2="49"/>
			<line class="st5" x1="169.2" y1="57.2" x2="-62.5" y2="57.2"/>
			<line class="st5" x1="168.8" y1="65.8" x2="-62.8" y2="65.8"/>
			<line class="st5" x1="169.2" y1="74.6" x2="-62.4" y2="74.6"/>
			<line class="st5" x1="168.8" y1="83.2" x2="-62.8" y2="83.2"/>
			<line class="st5" x1="169.1" y1="91.4" x2="-62.5" y2="91.4"/>
			<line class="st5" x1="168.8" y1="99.9" x2="-62.9" y2="99.9"/>
			<line class="st5" x1="169.2" y1="108.2" x2="-62.4" y2="108.2"/>
			<line class="st5" x1="168.9" y1="116.8" x2="-62.8" y2="116.8"/>
			<line class="st5" x1="169.2" y1="125" x2="-62.5" y2="125"/>
			<line class="st5" x1="168.8" y1="133.6" x2="-62.9" y2="133.6"/>
			<line class="st5" x1="169.2" y1="142.4" x2="-62.4" y2="142.4"/>
			<line class="st5" x1="168.8" y1="150.9" x2="-62.8" y2="150.9"/>
			<line class="st5" x1="169.1" y1="159.1" x2="-62.5" y2="159.1"/>
			<line class="st5" x1="168.7" y1="167.7" x2="-62.9" y2="167.7"/>
			<line class="st5" x1="169.2" y1="176.1" x2="-62.4" y2="176.1"/>
		</g>
	</g>
</g>
<g>
	<path class="st6" d="M36.6,8.5c-0.2-0.2-0.4-0.3-0.6-0.4c-0.3-0.1-0.5-0.2-0.9-0.2c-0.5,0-0.8,0.1-1,0.3s-0.3,0.4-0.3,0.7
		c0,0.2,0,0.3,0.1,0.4c0.1,0.1,0.1,0.2,0.3,0.3c0.1,0.1,0.3,0.1,0.5,0.2c0.2,0.1,0.4,0.1,0.7,0.2c0.3,0.1,0.5,0.1,0.8,0.2
		s0.4,0.2,0.6,0.3c0.2,0.1,0.3,0.3,0.4,0.4c0.1,0.2,0.1,0.4,0.1,0.6c0,0.2,0,0.5-0.1,0.6c-0.1,0.2-0.2,0.3-0.4,0.5s-0.4,0.2-0.6,0.3
		c-0.2,0.1-0.5,0.1-0.8,0.1c-0.8,0-1.6-0.3-2.2-0.8l0.3-0.4c0.2,0.2,0.5,0.4,0.8,0.5c0.3,0.1,0.7,0.2,1.1,0.2c0.4,0,0.8-0.1,1-0.2
		c0.2-0.2,0.4-0.4,0.4-0.7c0-0.2,0-0.3-0.1-0.4c-0.1-0.1-0.2-0.2-0.3-0.3c-0.1-0.1-0.3-0.2-0.5-0.2s-0.4-0.1-0.7-0.2
		c-0.3-0.1-0.5-0.1-0.7-0.2c-0.2-0.1-0.4-0.2-0.5-0.3c-0.1-0.1-0.3-0.2-0.3-0.4c-0.1-0.1-0.1-0.3-0.1-0.5c0-0.2,0-0.5,0.1-0.7
		c0.1-0.2,0.2-0.4,0.4-0.5c0.2-0.1,0.4-0.2,0.6-0.3c0.2-0.1,0.5-0.1,0.8-0.1c0.4,0,0.7,0.1,1,0.2c0.3,0.1,0.5,0.3,0.8,0.5L36.6,8.5z
		"/>
	<path class="st6" d="M41.2,12.9h-0.5v-2.2c0-0.4-0.1-0.8-0.2-1s-0.4-0.3-0.7-0.3c-0.1,0-0.3,0-0.4,0.1c-0.1,0.1-0.3,0.1-0.4,0.2
		c-0.1,0.1-0.2,0.2-0.3,0.4s-0.2,0.3-0.2,0.4v2.4h-0.5V7.3h0.5v2.5c0.2-0.3,0.4-0.5,0.7-0.7c0.3-0.2,0.6-0.3,0.9-0.3
		c0.2,0,0.4,0,0.6,0.1c0.2,0.1,0.3,0.2,0.4,0.3c0.1,0.1,0.2,0.3,0.2,0.5s0.1,0.4,0.1,0.7V12.9z"/>
	<path class="st6" d="M44,13c-0.3,0-0.6-0.1-0.8-0.2s-0.4-0.3-0.6-0.4c-0.2-0.2-0.3-0.4-0.4-0.7c-0.1-0.2-0.1-0.5-0.1-0.8
		c0-0.3,0-0.5,0.1-0.8c0.1-0.2,0.2-0.5,0.4-0.7C42.8,9.3,43,9.1,43.2,9c0.2-0.1,0.5-0.2,0.8-0.2s0.5,0.1,0.8,0.2
		c0.2,0.1,0.4,0.3,0.6,0.4c0.2,0.2,0.3,0.4,0.4,0.7c0.1,0.2,0.1,0.5,0.1,0.8c0,0.3,0,0.5-0.1,0.8c-0.1,0.2-0.2,0.5-0.4,0.7
		c-0.2,0.2-0.4,0.3-0.6,0.4C44.6,12.9,44.3,13,44,13z M42.6,10.9c0,0.2,0,0.4,0.1,0.6c0.1,0.2,0.2,0.4,0.3,0.5
		c0.1,0.1,0.3,0.3,0.5,0.3s0.4,0.1,0.6,0.1c0.2,0,0.4,0,0.6-0.1c0.2-0.1,0.3-0.2,0.5-0.3c0.1-0.1,0.2-0.3,0.3-0.5
		c0.1-0.2,0.1-0.4,0.1-0.6c0-0.2,0-0.4-0.1-0.6c-0.1-0.2-0.2-0.4-0.3-0.5s-0.3-0.3-0.5-0.3c-0.2-0.1-0.4-0.1-0.6-0.1s-0.4,0-0.6,0.1
		c-0.2,0.1-0.3,0.2-0.5,0.3c-0.1,0.1-0.2,0.3-0.3,0.5S42.6,10.7,42.6,10.9z"/>
	<path class="st6" d="M51.7,8.9h0.5l-1.7,3.9H50l-0.8-2l-0.8,2h-0.4l-1.7-3.9h0.5l1.4,3.4l0.7-1.8l-0.7-1.6h0.4l0.5,1.3l0.5-1.3h0.4
		l-0.7,1.6l0.7,1.8L51.7,8.9z"/>
	<path class="st6" d="M56.1,12.9h-0.5v-2.2c0-0.5-0.1-0.8-0.2-1s-0.3-0.3-0.6-0.3c-0.2,0-0.3,0-0.5,0.1S54,9.5,53.9,9.6
		c-0.1,0.1-0.2,0.2-0.3,0.4c-0.1,0.1-0.2,0.3-0.2,0.5v2.4h-0.5V8.9h0.5v0.9c0.1-0.1,0.2-0.3,0.3-0.4s0.3-0.2,0.4-0.3
		s0.3-0.2,0.5-0.2c0.2,0,0.3-0.1,0.5-0.1c0.2,0,0.4,0,0.6,0.1c0.1,0.1,0.3,0.2,0.4,0.3s0.2,0.3,0.2,0.5s0.1,0.4,0.1,0.7V12.9z"/>
	<path class="st6" d="M60.9,13c-0.3,0-0.6-0.1-0.8-0.2s-0.4-0.3-0.6-0.4c-0.2-0.2-0.3-0.4-0.4-0.7c-0.1-0.2-0.1-0.5-0.1-0.8
		c0-0.3,0-0.5,0.1-0.8c0.1-0.2,0.2-0.5,0.4-0.7c0.2-0.2,0.4-0.3,0.6-0.4c0.2-0.1,0.5-0.2,0.8-0.2s0.5,0.1,0.8,0.2
		c0.2,0.1,0.4,0.3,0.6,0.4c0.2,0.2,0.3,0.4,0.4,0.7c0.1,0.2,0.1,0.5,0.1,0.8c0,0.3,0,0.5-0.1,0.8c-0.1,0.2-0.2,0.5-0.4,0.7
		c-0.2,0.2-0.4,0.3-0.6,0.4C61.4,12.9,61.1,13,60.9,13z M59.4,10.9c0,0.2,0,0.4,0.1,0.6c0.1,0.2,0.2,0.4,0.3,0.5
		c0.1,0.1,0.3,0.3,0.5,0.3s0.4,0.1,0.6,0.1c0.2,0,0.4,0,0.6-0.1c0.2-0.1,0.3-0.2,0.5-0.3c0.1-0.1,0.2-0.3,0.3-0.5
		c0.1-0.2,0.1-0.4,0.1-0.6c0-0.2,0-0.4-0.1-0.6c-0.1-0.2-0.2-0.4-0.3-0.5s-0.3-0.3-0.5-0.3c-0.2-0.1-0.4-0.1-0.6-0.1s-0.4,0-0.6,0.1
		c-0.2,0.1-0.3,0.2-0.5,0.3c-0.1,0.1-0.2,0.3-0.3,0.5S59.4,10.7,59.4,10.9z"/>
	<path class="st6" d="M67,12.9h-0.5v-2.2c0-0.5-0.1-0.8-0.2-1s-0.3-0.3-0.6-0.3c-0.2,0-0.3,0-0.5,0.1s-0.3,0.1-0.4,0.2
		c-0.1,0.1-0.2,0.2-0.3,0.4c-0.1,0.1-0.2,0.3-0.2,0.5v2.4h-0.5V8.9h0.5v0.9c0.1-0.1,0.2-0.3,0.3-0.4s0.3-0.2,0.4-0.3
		s0.3-0.2,0.5-0.2c0.2,0,0.3-0.1,0.5-0.1c0.2,0,0.4,0,0.6,0.1c0.1,0.1,0.3,0.2,0.4,0.3s0.2,0.3,0.2,0.5s0.1,0.4,0.1,0.7V12.9z"/>
	<path class="st6" d="M73.8,12.4c-0.2,0.2-0.4,0.3-0.7,0.4s-0.5,0.1-0.8,0.1c-0.4,0-0.7-0.1-1-0.2c-0.3-0.2-0.6-0.4-0.8-0.6
		s-0.4-0.5-0.5-0.9c-0.1-0.3-0.2-0.7-0.2-1c0-0.4,0.1-0.7,0.2-1s0.3-0.6,0.5-0.9s0.5-0.5,0.8-0.6c0.3-0.1,0.6-0.2,1-0.2
		c0.4,0,0.7,0.1,1,0.2c0.3,0.2,0.6,0.4,0.8,0.6c0.2,0.3,0.4,0.5,0.5,0.9c0.1,0.3,0.2,0.7,0.2,1c0,0.4-0.1,0.7-0.2,1.1
		s-0.3,0.6-0.6,0.9l0.6,0.7h-0.5L73.8,12.4z M72.3,12.4c0.2,0,0.4,0,0.6-0.1s0.4-0.2,0.5-0.3l-0.7-0.8h0.5l0.4,0.5
		c0.2-0.2,0.3-0.5,0.4-0.7s0.1-0.5,0.1-0.8c0-0.3,0-0.6-0.1-0.8c-0.1-0.3-0.2-0.5-0.4-0.7s-0.4-0.4-0.6-0.5
		c-0.2-0.1-0.5-0.2-0.8-0.2c-0.3,0-0.6,0.1-0.8,0.2c-0.2,0.1-0.5,0.3-0.6,0.5c-0.2,0.2-0.3,0.5-0.4,0.7c-0.1,0.3-0.1,0.5-0.1,0.8
		c0,0.3,0,0.6,0.1,0.8c0.1,0.3,0.2,0.5,0.4,0.7c0.2,0.2,0.4,0.4,0.6,0.5S72,12.4,72.3,12.4z"/>
	<path class="st6" d="M76.9,13c-0.4,0-0.7-0.1-0.9-0.4s-0.3-0.7-0.3-1.3V8.9h0.5v2.2c0,0.9,0.3,1.3,0.9,1.3c0.2,0,0.3,0,0.4-0.1
		s0.3-0.1,0.4-0.2c0.1-0.1,0.2-0.2,0.3-0.3c0.1-0.1,0.2-0.3,0.2-0.4V8.9H79v3.3c0,0.1,0.1,0.2,0.2,0.2v0.5c-0.1,0-0.2,0-0.2,0
		c-0.1,0-0.2,0-0.3-0.1c-0.1-0.1-0.1-0.2-0.1-0.3V12c-0.2,0.3-0.4,0.5-0.7,0.7C77.6,12.9,77.3,13,76.9,13z"/>
	<path class="st6" d="M81.9,13c-0.3,0-0.6-0.1-0.8-0.2s-0.5-0.3-0.6-0.4s-0.3-0.4-0.4-0.7c-0.1-0.2-0.1-0.5-0.1-0.8
		c0-0.3,0-0.5,0.1-0.8c0.1-0.2,0.2-0.5,0.4-0.6s0.4-0.3,0.6-0.4s0.5-0.2,0.8-0.2s0.6,0.1,0.8,0.2s0.4,0.3,0.6,0.4
		c0.2,0.2,0.3,0.4,0.4,0.6s0.1,0.5,0.1,0.8c0,0,0,0.1,0,0.1s0,0.1,0,0.1h-3.4c0,0.2,0.1,0.4,0.1,0.6c0.1,0.2,0.2,0.3,0.3,0.5
		c0.1,0.1,0.3,0.2,0.4,0.3s0.3,0.1,0.5,0.1c0.1,0,0.3,0,0.4-0.1c0.1,0,0.2-0.1,0.3-0.1s0.2-0.1,0.3-0.2c0.1-0.1,0.1-0.2,0.2-0.3
		l0.4,0.1c-0.1,0.1-0.1,0.3-0.3,0.4c-0.1,0.1-0.2,0.2-0.4,0.3s-0.3,0.2-0.5,0.2C82.3,12.9,82.1,13,81.9,13z M83.4,10.7
		c0-0.2-0.1-0.4-0.1-0.6c-0.1-0.2-0.2-0.3-0.3-0.5c-0.1-0.1-0.3-0.2-0.5-0.3s-0.4-0.1-0.5-0.1s-0.4,0-0.5,0.1
		c-0.2,0.1-0.3,0.2-0.5,0.3c-0.1,0.1-0.2,0.3-0.3,0.5c-0.1,0.2-0.1,0.4-0.1,0.6H83.4z"/>
	<path class="st6" d="M86.4,13c-0.3,0-0.6-0.1-0.8-0.2s-0.5-0.3-0.6-0.4s-0.3-0.4-0.4-0.7c-0.1-0.2-0.1-0.5-0.1-0.8
		c0-0.3,0-0.5,0.1-0.8c0.1-0.2,0.2-0.5,0.4-0.6s0.4-0.3,0.6-0.4s0.5-0.2,0.8-0.2s0.6,0.1,0.8,0.2c0.2,0.1,0.4,0.3,0.6,0.4
		c0.2,0.2,0.3,0.4,0.4,0.6s0.1,0.5,0.1,0.8c0,0,0,0.1,0,0.1s0,0.1,0,0.1h-3.4c0,0.2,0.1,0.4,0.1,0.6c0.1,0.2,0.2,0.3,0.3,0.5
		c0.1,0.1,0.3,0.2,0.4,0.3s0.3,0.1,0.5,0.1c0.1,0,0.3,0,0.4-0.1c0.1,0,0.2-0.1,0.3-0.1c0.1-0.1,0.2-0.1,0.3-0.2
		c0.1-0.1,0.1-0.2,0.2-0.3L88,12c-0.1,0.1-0.1,0.3-0.3,0.4c-0.1,0.1-0.2,0.2-0.4,0.3s-0.3,0.2-0.5,0.2C86.7,12.9,86.6,13,86.4,13z
		 M87.8,10.7c0-0.2-0.1-0.4-0.1-0.6c-0.1-0.2-0.2-0.3-0.3-0.5c-0.1-0.1-0.3-0.2-0.5-0.3c-0.2-0.1-0.4-0.1-0.5-0.1s-0.4,0-0.5,0.1
		c-0.2,0.1-0.3,0.2-0.5,0.3c-0.1,0.1-0.2,0.3-0.3,0.5c-0.1,0.2-0.1,0.4-0.1,0.6H87.8z"/>
	<path class="st6" d="M92.4,12.9h-0.5v-2.2c0-0.5-0.1-0.8-0.2-1c-0.1-0.2-0.3-0.3-0.6-0.3c-0.2,0-0.3,0-0.5,0.1s-0.3,0.1-0.4,0.2
		C90,9.8,89.9,9.9,89.8,10c-0.1,0.1-0.2,0.3-0.2,0.5v2.4h-0.5V8.9h0.5v0.9c0.1-0.1,0.2-0.3,0.3-0.4c0.1-0.1,0.3-0.2,0.4-0.3
		C90.4,9,90.6,9,90.7,8.9s0.3-0.1,0.5-0.1c0.2,0,0.4,0,0.6,0.1c0.1,0.1,0.3,0.2,0.4,0.3c0.1,0.1,0.2,0.3,0.2,0.5s0.1,0.4,0.1,0.7
		V12.9z"/>
	<path class="st6" d="M99.6,11.5c0,0.2,0,0.4-0.1,0.6c-0.1,0.2-0.2,0.3-0.3,0.4c-0.1,0.1-0.3,0.2-0.5,0.3c-0.2,0.1-0.4,0.1-0.6,0.1
		h-2.5V7.5h2.6c0.2,0,0.4,0,0.5,0.1s0.3,0.2,0.4,0.3c0.1,0.1,0.2,0.3,0.2,0.4c0.1,0.2,0.1,0.3,0.1,0.5c0,0.3-0.1,0.5-0.2,0.7
		c-0.1,0.2-0.3,0.4-0.6,0.5c0.3,0.1,0.6,0.3,0.7,0.5C99.5,10.9,99.6,11.2,99.6,11.5z M96.1,8v2h1.8c0.1,0,0.3,0,0.4-0.1
		s0.2-0.1,0.3-0.2s0.1-0.2,0.2-0.3c0-0.1,0.1-0.2,0.1-0.4c0-0.1,0-0.3-0.1-0.4s-0.1-0.2-0.2-0.3c-0.1-0.1-0.2-0.2-0.3-0.2
		C98.2,8,98.1,8,97.9,8H96.1z M99,11.4c0-0.1,0-0.3-0.1-0.4c0-0.1-0.1-0.2-0.2-0.3c-0.1-0.1-0.2-0.2-0.3-0.2
		c-0.1-0.1-0.2-0.1-0.4-0.1h-2.1v2h2c0.1,0,0.3,0,0.4-0.1s0.2-0.1,0.3-0.2c0.1-0.1,0.2-0.2,0.2-0.3S99,11.5,99,11.4z"/>
	<path class="st6" d="M102.2,13c-0.3,0-0.6-0.1-0.8-0.2s-0.5-0.3-0.6-0.4s-0.3-0.4-0.4-0.7c-0.1-0.2-0.1-0.5-0.1-0.8
		c0-0.3,0-0.5,0.1-0.8c0.1-0.2,0.2-0.5,0.4-0.6s0.4-0.3,0.6-0.4c0.2-0.1,0.5-0.2,0.8-0.2c0.3,0,0.6,0.1,0.8,0.2
		c0.2,0.1,0.4,0.3,0.6,0.4c0.2,0.2,0.3,0.4,0.4,0.6s0.1,0.5,0.1,0.8c0,0,0,0.1,0,0.1c0,0,0,0.1,0,0.1h-3.4c0,0.2,0.1,0.4,0.1,0.6
		c0.1,0.2,0.2,0.3,0.3,0.5c0.1,0.1,0.3,0.2,0.4,0.3c0.2,0.1,0.3,0.1,0.5,0.1c0.1,0,0.3,0,0.4-0.1c0.1,0,0.2-0.1,0.3-0.1
		c0.1-0.1,0.2-0.1,0.3-0.2c0.1-0.1,0.1-0.2,0.2-0.3l0.4,0.1c-0.1,0.1-0.1,0.3-0.3,0.4c-0.1,0.1-0.2,0.2-0.4,0.3
		c-0.1,0.1-0.3,0.2-0.5,0.2S102.4,13,102.2,13z M103.6,10.7c0-0.2-0.1-0.4-0.1-0.6c-0.1-0.2-0.2-0.3-0.3-0.5
		c-0.1-0.1-0.3-0.2-0.5-0.3c-0.2-0.1-0.4-0.1-0.5-0.1c-0.2,0-0.4,0-0.5,0.1c-0.2,0.1-0.3,0.2-0.5,0.3c-0.1,0.1-0.2,0.3-0.3,0.5
		s-0.1,0.4-0.1,0.6H103.6z"/>
	<path class="st6" d="M106.5,13c-0.3,0-0.5-0.1-0.8-0.2c-0.2-0.1-0.4-0.3-0.6-0.5s-0.3-0.4-0.4-0.6c-0.1-0.2-0.1-0.5-0.1-0.8
		c0-0.3,0-0.5,0.1-0.8c0.1-0.2,0.2-0.5,0.4-0.7c0.2-0.2,0.3-0.3,0.6-0.4s0.5-0.2,0.7-0.2c0.3,0,0.6,0.1,0.9,0.3
		c0.3,0.2,0.5,0.4,0.6,0.6V7.3h0.5v4.9c0,0.1,0.1,0.2,0.2,0.2v0.5c-0.1,0-0.2,0-0.2,0c-0.1,0-0.2,0-0.3-0.1s-0.1-0.2-0.1-0.3v-0.4
		c-0.2,0.3-0.4,0.5-0.6,0.6S106.8,13,106.5,13z M106.6,12.5c0.1,0,0.3,0,0.4-0.1s0.3-0.1,0.4-0.2c0.1-0.1,0.2-0.2,0.3-0.3
		s0.1-0.2,0.2-0.4v-1.2c-0.1-0.1-0.1-0.3-0.2-0.4c-0.1-0.1-0.2-0.2-0.3-0.3c-0.1-0.1-0.3-0.2-0.4-0.2c-0.1-0.1-0.3-0.1-0.4-0.1
		c-0.2,0-0.4,0-0.6,0.1c-0.2,0.1-0.3,0.2-0.4,0.4s-0.2,0.3-0.3,0.5c-0.1,0.2-0.1,0.4-0.1,0.6c0,0.2,0,0.4,0.1,0.6
		c0.1,0.2,0.2,0.4,0.3,0.5c0.1,0.1,0.3,0.3,0.5,0.3C106.2,12.5,106.4,12.5,106.6,12.5z"/>
	<path class="st6" d="M111.3,10.3c0-0.3,0-0.5,0.1-0.8c0.1-0.2,0.1-0.5,0.2-0.7c0.1-0.2,0.2-0.5,0.3-0.7c0.1-0.2,0.3-0.5,0.4-0.7
		l0.4,0.2c-0.1,0.2-0.2,0.3-0.3,0.6c-0.1,0.2-0.2,0.5-0.3,0.7c-0.1,0.3-0.2,0.5-0.2,0.8c-0.1,0.3-0.1,0.5-0.1,0.8
		c0,0.4,0.1,0.8,0.3,1.3c0.2,0.5,0.4,0.9,0.7,1.4l-0.4,0.2c-0.3-0.5-0.6-1-0.8-1.4C111.4,11.2,111.3,10.7,111.3,10.3z"/>
	<path class="st6" d="M117.3,11.1c0,0.3,0,0.5-0.1,0.7c-0.1,0.2-0.2,0.4-0.4,0.6c-0.2,0.2-0.4,0.3-0.6,0.4c-0.2,0.1-0.5,0.1-0.7,0.1
		c-0.3,0-0.5-0.1-0.8-0.2c-0.2-0.1-0.4-0.3-0.6-0.4c-0.2-0.2-0.3-0.4-0.4-0.7c-0.1-0.3-0.1-0.6-0.1-0.9c0-0.5,0-1,0.1-1.4
		c0.1-0.4,0.2-0.7,0.4-1c0.2-0.3,0.4-0.5,0.6-0.6c0.2-0.1,0.5-0.2,0.8-0.2c0.4,0,0.7,0.1,1,0.3c0.3,0.2,0.5,0.4,0.6,0.7l-0.3,0.3
		c-0.1-0.3-0.3-0.5-0.5-0.6c-0.2-0.2-0.5-0.2-0.8-0.2c-0.2,0-0.4,0.1-0.6,0.2c-0.2,0.1-0.3,0.3-0.5,0.5c-0.1,0.2-0.2,0.4-0.3,0.7
		c-0.1,0.3-0.1,0.6-0.1,1c0.1-0.3,0.3-0.5,0.6-0.7c0.3-0.2,0.6-0.3,0.9-0.3c0.3,0,0.5,0,0.7,0.1c0.2,0.1,0.4,0.2,0.6,0.4
		c0.2,0.2,0.3,0.4,0.4,0.6S117.3,10.9,117.3,11.1z M115.4,12.5c0.2,0,0.4,0,0.5-0.1s0.3-0.2,0.4-0.3c0.1-0.1,0.2-0.3,0.3-0.4
		s0.1-0.3,0.1-0.5c0-0.2,0-0.4-0.1-0.5c-0.1-0.2-0.2-0.3-0.3-0.4c-0.1-0.1-0.3-0.2-0.4-0.3c-0.2-0.1-0.4-0.1-0.5-0.1
		c-0.2,0-0.4,0-0.5,0.1c-0.2,0.1-0.3,0.2-0.5,0.3c-0.1,0.1-0.2,0.3-0.3,0.4s-0.1,0.3-0.1,0.5c0,0.2,0,0.4,0.1,0.5
		c0.1,0.2,0.2,0.3,0.3,0.4c0.1,0.1,0.3,0.2,0.4,0.3C115,12.5,115.2,12.5,115.4,12.5z"/>
	<path class="st6" d="M120.2,13c-0.4,0-0.7-0.1-1-0.3s-0.5-0.4-0.7-0.7c-0.2-0.3-0.3-0.6-0.4-0.9c-0.1-0.3-0.1-0.6-0.1-0.9
		c0-0.3,0.1-0.6,0.2-1c0.1-0.3,0.3-0.6,0.4-0.9c0.2-0.3,0.4-0.5,0.7-0.6s0.6-0.2,0.9-0.2c0.4,0,0.7,0.1,1,0.3
		c0.3,0.2,0.5,0.4,0.7,0.7s0.3,0.6,0.4,0.9c0.1,0.3,0.1,0.6,0.1,0.9c0,0.3-0.1,0.7-0.2,1c-0.1,0.3-0.3,0.6-0.4,0.9
		c-0.2,0.3-0.4,0.5-0.7,0.6C120.9,12.9,120.5,12.9,120.2,13z M118.5,10.2c0,0.3,0,0.5,0.1,0.8c0.1,0.3,0.2,0.5,0.3,0.7
		c0.1,0.2,0.3,0.4,0.5,0.5c0.2,0.1,0.5,0.2,0.7,0.2c0.3,0,0.5-0.1,0.7-0.2c0.2-0.1,0.4-0.3,0.5-0.5c0.1-0.2,0.2-0.5,0.3-0.7
		c0.1-0.3,0.1-0.5,0.1-0.8c0-0.3,0-0.5-0.1-0.8c-0.1-0.3-0.2-0.5-0.3-0.7c-0.1-0.2-0.3-0.4-0.5-0.5S120.5,8,120.2,8
		c-0.3,0-0.5,0.1-0.7,0.2s-0.4,0.3-0.5,0.6c-0.1,0.2-0.2,0.5-0.3,0.7C118.5,9.7,118.5,10,118.5,10.2z"/>
	<path class="st6" d="M123.2,7.3c0.1,0,0.1,0,0.2,0c0.1,0,0.1,0,0.2,0.1c0.1,0,0.1,0.1,0.1,0.2c0,0.1,0.1,0.1,0.1,0.2v0.9h-0.4V7.9
		c0-0.1,0-0.1-0.1-0.1s-0.1,0-0.1,0V7.3z M124.2,7.3c0.1,0,0.1,0,0.2,0c0.1,0,0.1,0,0.2,0.1c0.1,0,0.1,0.1,0.1,0.2
		c0,0.1,0.1,0.1,0.1,0.2v0.9h-0.4V7.9c0-0.1,0-0.1-0.1-0.1c0,0-0.1,0-0.1,0V7.3z"/>
	<path class="st6" d="M127.9,8.9l1.2,1.5l0.1,0.1l0.1-0.1l1.2-1.5h0.6l-1.5,2l1.5,2h-0.6l-1.2-1.5l-0.1-0.1l-0.1,0.1l-1.2,1.5h-0.6
		l1.5-2l-1.5-2H127.9z"/>
	<path class="st6" d="M137.1,11.4c0,0.2-0.1,0.5-0.2,0.6c-0.1,0.2-0.2,0.4-0.4,0.5c-0.2,0.1-0.4,0.2-0.6,0.3
		c-0.2,0.1-0.5,0.1-0.7,0.1c-0.3,0-0.5,0-0.7-0.1c-0.2-0.1-0.4-0.2-0.6-0.3c-0.2-0.1-0.3-0.3-0.4-0.5s-0.1-0.4-0.1-0.6
		c0-0.2,0-0.3,0.1-0.5c0.1-0.1,0.1-0.3,0.2-0.4c0.1-0.1,0.2-0.2,0.3-0.3c0.1-0.1,0.3-0.1,0.4-0.2c-0.1-0.1-0.2-0.1-0.3-0.2
		c-0.1-0.1-0.2-0.2-0.3-0.3c-0.1-0.1-0.1-0.2-0.2-0.3c0-0.1-0.1-0.2-0.1-0.4c0-0.2,0.1-0.4,0.2-0.6c0.1-0.2,0.2-0.3,0.4-0.4
		c0.2-0.1,0.3-0.2,0.5-0.3s0.4-0.1,0.6-0.1s0.4,0,0.6,0.1s0.4,0.1,0.5,0.3c0.2,0.1,0.3,0.3,0.4,0.4c0.1,0.2,0.2,0.4,0.2,0.6
		c0,0.1,0,0.3-0.1,0.4s-0.1,0.2-0.2,0.3c-0.1,0.1-0.2,0.2-0.3,0.3s-0.2,0.1-0.3,0.2c0.1,0.1,0.3,0.1,0.4,0.2
		c0.1,0.1,0.2,0.2,0.3,0.3c0.1,0.1,0.2,0.2,0.2,0.4C137,11.1,137.1,11.2,137.1,11.4z M136.5,11.3c0-0.2,0-0.3-0.1-0.5
		s-0.2-0.3-0.3-0.4c-0.1-0.1-0.3-0.2-0.4-0.2c-0.2-0.1-0.3-0.1-0.5-0.1c-0.2,0-0.3,0-0.5,0.1c-0.2,0.1-0.3,0.1-0.4,0.2
		c-0.1,0.1-0.2,0.2-0.3,0.4c-0.1,0.1-0.1,0.3-0.1,0.5c0,0.2,0,0.3,0.1,0.5s0.2,0.3,0.3,0.4c0.1,0.1,0.3,0.2,0.4,0.2
		c0.2,0.1,0.3,0.1,0.5,0.1c0.2,0,0.3,0,0.5-0.1c0.2-0.1,0.3-0.1,0.4-0.2c0.1-0.1,0.2-0.2,0.3-0.4S136.5,11.5,136.5,11.3z M134,8.9
		c0,0.1,0,0.3,0.1,0.4c0.1,0.1,0.2,0.2,0.3,0.3c0.1,0.1,0.2,0.1,0.4,0.2c0.1,0,0.3,0.1,0.4,0.1c0.1,0,0.3,0,0.4-0.1
		c0.1,0,0.3-0.1,0.4-0.2c0.1-0.1,0.2-0.2,0.3-0.3c0.1-0.1,0.1-0.2,0.1-0.4c0-0.1,0-0.3-0.1-0.4c-0.1-0.1-0.2-0.2-0.3-0.3
		c-0.1-0.1-0.2-0.1-0.4-0.2c-0.1,0-0.3-0.1-0.4-0.1s-0.3,0-0.4,0.1c-0.1,0-0.3,0.1-0.4,0.2c-0.1,0.1-0.2,0.2-0.3,0.3
		C134.1,8.6,134,8.8,134,8.9z"/>
	<path class="st6" d="M140.1,13c-0.4,0-0.7-0.1-1-0.3s-0.5-0.4-0.7-0.7c-0.2-0.3-0.3-0.6-0.4-0.9c-0.1-0.3-0.1-0.6-0.1-0.9
		c0-0.3,0.1-0.6,0.2-1c0.1-0.3,0.3-0.6,0.4-0.9c0.2-0.3,0.4-0.5,0.7-0.6s0.6-0.2,0.9-0.2c0.4,0,0.7,0.1,1,0.3
		c0.3,0.2,0.5,0.4,0.7,0.7s0.3,0.6,0.4,0.9c0.1,0.3,0.1,0.6,0.1,0.9c0,0.3-0.1,0.7-0.2,1c-0.1,0.3-0.3,0.6-0.4,0.9
		c-0.2,0.3-0.4,0.5-0.7,0.6C140.7,12.9,140.4,12.9,140.1,13z M138.4,10.2c0,0.3,0,0.5,0.1,0.8c0.1,0.3,0.2,0.5,0.3,0.7
		c0.1,0.2,0.3,0.4,0.5,0.5c0.2,0.1,0.5,0.2,0.7,0.2c0.3,0,0.5-0.1,0.7-0.2c0.2-0.1,0.4-0.3,0.5-0.5c0.1-0.2,0.2-0.5,0.3-0.7
		c0.1-0.3,0.1-0.5,0.1-0.8c0-0.3,0-0.5-0.1-0.8c-0.1-0.3-0.2-0.5-0.3-0.7c-0.1-0.2-0.3-0.4-0.5-0.5S140.3,8,140.1,8
		c-0.3,0-0.5,0.1-0.7,0.2s-0.4,0.3-0.5,0.6c-0.1,0.2-0.2,0.5-0.3,0.7C138.4,9.7,138.4,10,138.4,10.2z"/>
	<path class="st6" d="M143.1,7.3c0.1,0,0.1,0,0.2,0c0.1,0,0.1,0,0.2,0.1c0.1,0,0.1,0.1,0.1,0.2c0,0.1,0.1,0.1,0.1,0.2v0.9h-0.4V7.9
		c0-0.1,0-0.1-0.1-0.1s-0.1,0-0.1,0V7.3z M144,7.3c0.1,0,0.1,0,0.2,0c0.1,0,0.1,0,0.2,0.1c0.1,0,0.1,0.1,0.1,0.2
		c0,0.1,0.1,0.1,0.1,0.2v0.9h-0.4V7.9c0-0.1,0-0.1-0.1-0.1c0,0-0.1,0-0.1,0V7.3z"/>
	<path class="st6" d="M146.8,10.3c0,0.5-0.1,1-0.3,1.5c-0.2,0.5-0.5,1-0.8,1.4l-0.4-0.2c0.3-0.5,0.5-0.9,0.7-1.4
		c0.2-0.5,0.3-0.9,0.3-1.3c0-0.2,0-0.5-0.1-0.8c-0.1-0.3-0.1-0.5-0.2-0.8c-0.1-0.3-0.2-0.5-0.3-0.7c-0.1-0.2-0.2-0.4-0.3-0.6
		l0.4-0.2c0.1,0.2,0.3,0.5,0.4,0.7c0.1,0.2,0.2,0.5,0.3,0.7c0.1,0.2,0.2,0.5,0.2,0.7C146.8,9.7,146.8,10,146.8,10.3z"/>
</g>
</svg>
