<?xml version="1.0" encoding="utf-8"?>
<!-- Generator: Adobe Illustrator 24.0.3, SVG Export Plug-In . SVG Version: 6.00 Build 0)  -->
<svg version="1.1" id="Layer_1" xmlns="http://www.w3.org/2000/svg" xmlns:xlink="http://www.w3.org/1999/xlink" x="0px" y="0px"
	 viewBox="0 0 180 180" style="enable-background:new 0 0 180 180;" xml:space="preserve">
<style type="text/css">
	.st0{opacity:0.2;}
	.st1{fill:#FBF9F9;stroke:#000000;stroke-width:0.86;stroke-miterlimit:10;}
	.st2{fill:#FBF9F9;stroke:#000000;stroke-width:1.03;stroke-miterlimit:10;}
	.st3{opacity:0.9;}
	.st4{clip-path:url(#SVGID_2_);}
	.st5{fill:none;stroke:#F15D5A;stroke-width:9.000000e-02;stroke-miterlimit:10;stroke-dasharray:1.7,1.7;}
	.st6{fill:none;stroke:#F15D5A;stroke-width:1.03;stroke-linecap:round;stroke-linejoin:round;}
	.st7{fill:#231F20;}
</style>
<title>M on Twin Bed-01</title>
<g class="st0">
	<path class="st1" d="M60.2,20.1h58.2c3,0,5.4,2.4,5.4,5.4c0,0,0,0,0,0v125.2c0,3-2.4,5.4-5.4,5.4c0,0,0,0,0,0H60.2
		c-3,0-5.4-2.4-5.4-5.4c0,0,0,0,0,0V25.5C54.8,22.5,57.2,20.1,60.2,20.1C60.2,20.1,60.2,20.1,60.2,20.1z"/>
	<path class="st2" d="M69.8,22.2h39.9c1.6,0,2.9,1.3,2.9,2.9l0,0v26.6c0,1.6-1.3,2.9-2.9,2.9l0,0H69.8c-1.6,0-2.9-1.3-2.9-2.9
		c0,0,0,0,0,0V25.1C66.9,23.5,68.2,22.2,69.8,22.2L69.8,22.2z"/>
</g>
<g class="st3">
	<g>
		<defs>
			<rect id="SVGID_1_" x="40.4" y="35.9" width="98.1" height="132.9"/>
		</defs>
		<clipPath id="SVGID_2_">
			<use xlink:href="#SVGID_1_"  style="overflow:visible;"/>
		</clipPath>
		<g class="st4">
			<line class="st5" x1="5.6" y1="17.5" x2="5.6" y2="270.2"/>
			<line class="st5" x1="15" y1="18" x2="15" y2="270.6"/>
			<line class="st5" x1="23.9" y1="17.6" x2="23.9" y2="270.3"/>
			<line class="st5" x1="33.3" y1="18" x2="33.3" y2="270.7"/>
			<line class="st5" x1="42.8" y1="17.6" x2="42.8" y2="270.2"/>
			<line class="st5" x1="52.2" y1="18" x2="52.2" y2="270.6"/>
			<line class="st5" x1="61.1" y1="17.7" x2="61.1" y2="270.3"/>
			<line class="st5" x1="70.5" y1="18.1" x2="70.5" y2="270.7"/>
			<line class="st5" x1="79.6" y1="17.5" x2="79.6" y2="270.2"/>
			<line class="st5" x1="89" y1="18" x2="89" y2="270.6"/>
			<line class="st5" x1="97.9" y1="17.6" x2="97.9" y2="270.3"/>
			<line class="st5" x1="107.3" y1="18" x2="107.3" y2="270.7"/>
			<line class="st5" x1="116.8" y1="17.6" x2="116.8" y2="270.2"/>
			<line class="st5" x1="126.2" y1="18" x2="126.2" y2="270.6"/>
			<line class="st5" x1="135.1" y1="17.7" x2="135.1" y2="270.3"/>
			<line class="st5" x1="144.5" y1="18.1" x2="144.5" y2="270.7"/>
			<line class="st5" x1="159.9" y1="39.5" x2="-92.7" y2="39.5"/>
			<line class="st5" x1="159.5" y1="48.9" x2="-93.1" y2="48.9"/>
			<line class="st5" x1="159.9" y1="57.8" x2="-92.8" y2="57.8"/>
			<line class="st5" x1="159.4" y1="67.2" x2="-93.2" y2="67.2"/>
			<line class="st5" x1="159.9" y1="76.7" x2="-92.7" y2="76.7"/>
			<line class="st5" x1="159.5" y1="86.1" x2="-93.2" y2="86.1"/>
			<line class="st5" x1="159.8" y1="95" x2="-92.8" y2="95"/>
			<line class="st5" x1="159.4" y1="104.4" x2="-93.3" y2="104.4"/>
			<line class="st5" x1="159.9" y1="113.4" x2="-92.7" y2="113.4"/>
			<line class="st5" x1="159.5" y1="122.8" x2="-93.1" y2="122.8"/>
			<line class="st5" x1="159.8" y1="131.7" x2="-92.8" y2="131.7"/>
			<line class="st5" x1="159.4" y1="141.1" x2="-93.2" y2="141.1"/>
			<line class="st5" x1="159.9" y1="150.6" x2="-92.8" y2="150.6"/>
			<line class="st5" x1="159.4" y1="160" x2="-93.2" y2="160"/>
			<line class="st5" x1="159.8" y1="168.9" x2="-92.9" y2="168.9"/>
			<line class="st5" x1="159.4" y1="178.3" x2="-93.3" y2="178.3"/>
		</g>
	</g>
</g>
<path class="st6" d="M44,35.9h90.8c2,0,3.6,1.6,3.6,3.6c0,0,0,0,0,0v125.9c0,2-1.6,3.6-3.6,3.6c0,0,0,0,0,0H44c-2,0-3.6-1.6-3.6-3.6
	c0,0,0,0,0,0V39.5C40.4,37.5,42,35.9,44,35.9C44,35.9,44,35.9,44,35.9z"/>
<g>
	<path class="st7" d="M40.1,8.6c-0.2-0.2-0.4-0.3-0.6-0.4C39.2,8.1,38.9,8,38.6,8c-0.5,0-0.8,0.1-1,0.3c-0.2,0.2-0.3,0.4-0.3,0.7
		c0,0.2,0,0.3,0.1,0.4s0.1,0.2,0.3,0.3c0.1,0.1,0.3,0.1,0.5,0.2c0.2,0.1,0.4,0.1,0.7,0.2c0.3,0.1,0.5,0.1,0.8,0.2
		c0.2,0.1,0.4,0.2,0.6,0.3c0.2,0.1,0.3,0.2,0.4,0.4c0.1,0.2,0.1,0.4,0.1,0.6c0,0.2,0,0.5-0.1,0.6c-0.1,0.2-0.2,0.3-0.4,0.4
		s-0.4,0.2-0.6,0.3C39.2,12.9,39,13,38.7,13c-0.8,0-1.5-0.3-2.1-0.8l0.3-0.4c0.2,0.2,0.5,0.4,0.8,0.5c0.3,0.1,0.7,0.2,1.1,0.2
		c0.4,0,0.8-0.1,1-0.2c0.2-0.2,0.4-0.4,0.4-0.7c0-0.2,0-0.3-0.1-0.4c-0.1-0.1-0.2-0.2-0.3-0.3c-0.1-0.1-0.3-0.2-0.5-0.2
		c-0.2-0.1-0.4-0.1-0.7-0.2c-0.3-0.1-0.5-0.1-0.7-0.2s-0.4-0.2-0.5-0.3s-0.2-0.2-0.3-0.4c-0.1-0.1-0.1-0.3-0.1-0.5
		c0-0.2,0-0.5,0.1-0.7s0.2-0.4,0.4-0.5s0.4-0.2,0.6-0.3c0.2-0.1,0.5-0.1,0.8-0.1c0.4,0,0.7,0.1,0.9,0.2c0.3,0.1,0.5,0.3,0.8,0.5
		L40.1,8.6z"/>
	<path class="st7" d="M44.7,12.9h-0.5v-2.2c0-0.4-0.1-0.8-0.2-1c-0.2-0.2-0.4-0.3-0.7-0.3c-0.1,0-0.3,0-0.4,0.1
		c-0.1,0.1-0.3,0.1-0.4,0.2s-0.2,0.2-0.3,0.4c-0.1,0.1-0.2,0.3-0.2,0.4v2.4h-0.5V7.5h0.5v2.5c0.2-0.3,0.4-0.5,0.7-0.7
		C42.8,9,43.1,9,43.5,9c0.2,0,0.4,0,0.6,0.1c0.2,0.1,0.3,0.2,0.4,0.3s0.2,0.3,0.2,0.5s0.1,0.4,0.1,0.7V12.9z"/>
	<path class="st7" d="M47.4,13c-0.3,0-0.5-0.1-0.8-0.2s-0.4-0.3-0.6-0.4c-0.2-0.2-0.3-0.4-0.4-0.6c-0.1-0.2-0.1-0.5-0.1-0.8
		c0-0.3,0-0.5,0.1-0.8c0.1-0.2,0.2-0.5,0.4-0.6c0.2-0.2,0.4-0.3,0.6-0.4C46.9,9,47.2,9,47.4,9C47.7,9,48,9,48.2,9.1s0.4,0.3,0.6,0.4
		c0.2,0.2,0.3,0.4,0.4,0.6c0.1,0.2,0.1,0.5,0.1,0.8c0,0.3,0,0.5-0.1,0.8s-0.2,0.5-0.4,0.6c-0.2,0.2-0.4,0.3-0.6,0.4S47.7,13,47.4,13
		z M46,11c0,0.2,0,0.4,0.1,0.6c0.1,0.2,0.2,0.4,0.3,0.5s0.3,0.3,0.5,0.3c0.2,0.1,0.4,0.1,0.6,0.1s0.4,0,0.6-0.1s0.3-0.2,0.5-0.3
		c0.1-0.1,0.2-0.3,0.3-0.5s0.1-0.4,0.1-0.6c0-0.2,0-0.4-0.1-0.6c-0.1-0.2-0.2-0.4-0.3-0.5c-0.1-0.1-0.3-0.3-0.4-0.3
		c-0.2-0.1-0.4-0.1-0.5-0.1c-0.2,0-0.4,0-0.6,0.1c-0.2,0.1-0.3,0.2-0.4,0.3s-0.2,0.3-0.3,0.5C46.1,10.6,46,10.8,46,11z"/>
	<path class="st7" d="M55,9h0.5l-1.7,3.9h-0.4l-0.8-2l-0.8,2h-0.4L49.6,9h0.5l1.4,3.4l0.7-1.8L51.6,9h0.4l0.5,1.3L53.1,9h0.4
		l-0.7,1.6l0.7,1.8L55,9z"/>
	<path class="st7" d="M59.5,12.9h-0.5v-2.2c0-0.5-0.1-0.8-0.2-1c-0.1-0.2-0.3-0.3-0.6-0.3c-0.2,0-0.3,0-0.5,0.1
		c-0.1,0.1-0.3,0.1-0.4,0.2c-0.1,0.1-0.2,0.2-0.3,0.4c-0.1,0.1-0.2,0.3-0.2,0.4v2.4h-0.5V9h0.5v0.9c0.1-0.1,0.2-0.3,0.3-0.4
		c0.1-0.1,0.2-0.2,0.4-0.3s0.3-0.1,0.5-0.2C58,9,58.1,9,58.3,9c0.2,0,0.4,0,0.6,0.1s0.3,0.2,0.4,0.3c0.1,0.1,0.2,0.3,0.2,0.5
		s0.1,0.4,0.1,0.7V12.9z"/>
	<path class="st7" d="M64.1,13c-0.3,0-0.5-0.1-0.8-0.2s-0.4-0.3-0.6-0.4c-0.2-0.2-0.3-0.4-0.4-0.6c-0.1-0.2-0.1-0.5-0.1-0.8
		c0-0.3,0-0.5,0.1-0.8c0.1-0.2,0.2-0.5,0.4-0.6c0.2-0.2,0.4-0.3,0.6-0.4C63.6,9,63.8,9,64.1,9c0.3,0,0.5,0.1,0.8,0.2
		s0.4,0.3,0.6,0.4c0.2,0.2,0.3,0.4,0.4,0.6c0.1,0.2,0.1,0.5,0.1,0.8c0,0.3,0,0.5-0.1,0.8s-0.2,0.5-0.4,0.6c-0.2,0.2-0.4,0.3-0.6,0.4
		S64.4,13,64.1,13z M62.7,11c0,0.2,0,0.4,0.1,0.6c0.1,0.2,0.2,0.4,0.3,0.5s0.3,0.3,0.5,0.3c0.2,0.1,0.4,0.1,0.6,0.1s0.4,0,0.6-0.1
		s0.3-0.2,0.5-0.3c0.1-0.1,0.2-0.3,0.3-0.5s0.1-0.4,0.1-0.6c0-0.2,0-0.4-0.1-0.6c-0.1-0.2-0.2-0.4-0.3-0.5c-0.1-0.1-0.3-0.3-0.4-0.3
		c-0.2-0.1-0.4-0.1-0.5-0.1c-0.2,0-0.4,0-0.6,0.1c-0.2,0.1-0.3,0.2-0.4,0.3s-0.2,0.3-0.3,0.5C62.7,10.6,62.7,10.8,62.7,11z"/>
	<path class="st7" d="M70.2,12.9h-0.5v-2.2c0-0.5-0.1-0.8-0.2-1c-0.1-0.2-0.3-0.3-0.6-0.3c-0.2,0-0.3,0-0.5,0.1
		c-0.1,0.1-0.3,0.1-0.4,0.2c-0.1,0.1-0.2,0.2-0.3,0.4c-0.1,0.1-0.2,0.3-0.2,0.4v2.4h-0.5V9h0.5v0.9c0.1-0.1,0.2-0.3,0.3-0.4
		c0.1-0.1,0.2-0.2,0.4-0.3s0.3-0.1,0.5-0.2C68.7,9,68.8,9,69,9c0.2,0,0.4,0,0.6,0.1s0.3,0.2,0.4,0.3c0.1,0.1,0.2,0.3,0.2,0.5
		s0.1,0.4,0.1,0.7V12.9z"/>
	<path class="st7" d="M76.9,8.1H75v4.9h-0.5V8.1h-1.9V7.6h4.3V8.1z"/>
	<path class="st7" d="M81.9,9h0.5l-1.7,3.9h-0.4l-0.8-2l-0.8,2h-0.4L76.6,9h0.5l1.4,3.4l0.7-1.8L78.6,9H79l0.5,1.3L80,9h0.4
		l-0.7,1.6l0.7,1.8L81.9,9z"/>
	<path class="st7" d="M83.1,8.2V7.5h0.5v0.8H83.1z M83.1,12.9V9h0.5v3.9H83.1z"/>
	<path class="st7" d="M88,12.9h-0.5v-2.2c0-0.5-0.1-0.8-0.2-1c-0.1-0.2-0.3-0.3-0.6-0.3c-0.2,0-0.3,0-0.5,0.1
		c-0.1,0.1-0.3,0.1-0.4,0.2c-0.1,0.1-0.2,0.2-0.3,0.4c-0.1,0.1-0.2,0.3-0.2,0.4v2.4h-0.5V9h0.5v0.9c0.1-0.1,0.2-0.3,0.3-0.4
		c0.1-0.1,0.2-0.2,0.4-0.3s0.3-0.1,0.5-0.2C86.5,9,86.7,9,86.8,9c0.2,0,0.4,0,0.6,0.1s0.3,0.2,0.4,0.3c0.1,0.1,0.2,0.3,0.2,0.5
		s0.1,0.4,0.1,0.7V12.9z"/>
	<path class="st7" d="M95.1,11.6c0,0.2,0,0.4-0.1,0.6c-0.1,0.2-0.2,0.3-0.3,0.4c-0.1,0.1-0.3,0.2-0.5,0.3c-0.2,0.1-0.4,0.1-0.6,0.1
		h-2.5V7.6h2.6c0.2,0,0.4,0,0.5,0.1c0.2,0.1,0.3,0.2,0.4,0.3c0.1,0.1,0.2,0.3,0.2,0.4c0.1,0.2,0.1,0.3,0.1,0.5
		c0,0.3-0.1,0.5-0.2,0.7c-0.1,0.2-0.3,0.4-0.6,0.5c0.3,0.1,0.5,0.3,0.7,0.5C95,10.9,95.1,11.2,95.1,11.6z M91.6,8.1v2h1.8
		c0.1,0,0.3,0,0.4-0.1s0.2-0.1,0.3-0.2c0.1-0.1,0.1-0.2,0.2-0.3s0.1-0.2,0.1-0.4c0-0.1,0-0.3-0.1-0.4c0-0.1-0.1-0.2-0.2-0.3
		s-0.2-0.2-0.3-0.2c-0.1-0.1-0.2-0.1-0.3-0.1H91.6z M94.6,11.5c0-0.1,0-0.3-0.1-0.4s-0.1-0.2-0.2-0.3c-0.1-0.1-0.2-0.2-0.3-0.2
		c-0.1-0.1-0.2-0.1-0.4-0.1h-2v2h2c0.1,0,0.3,0,0.4-0.1c0.1-0.1,0.2-0.1,0.3-0.2c0.1-0.1,0.2-0.2,0.2-0.3
		C94.5,11.7,94.6,11.6,94.6,11.5z"/>
	<path class="st7" d="M97.7,13c-0.3,0-0.5-0.1-0.8-0.2c-0.2-0.1-0.4-0.3-0.6-0.4S96,12,95.9,11.8c-0.1-0.2-0.1-0.5-0.1-0.8
		c0-0.3,0-0.5,0.1-0.8c0.1-0.2,0.2-0.5,0.4-0.6c0.2-0.2,0.4-0.3,0.6-0.4C97.1,9,97.4,9,97.7,9s0.5,0.1,0.8,0.2
		c0.2,0.1,0.4,0.3,0.6,0.4s0.3,0.4,0.4,0.6c0.1,0.2,0.1,0.5,0.1,0.8c0,0,0,0.1,0,0.1c0,0,0,0.1,0,0.1h-3.3c0,0.2,0.1,0.4,0.1,0.6
		c0.1,0.2,0.2,0.3,0.3,0.5s0.3,0.2,0.4,0.3c0.2,0.1,0.3,0.1,0.5,0.1c0.1,0,0.3,0,0.4-0.1c0.1,0,0.2-0.1,0.3-0.1
		c0.1-0.1,0.2-0.1,0.3-0.2c0.1-0.1,0.1-0.2,0.2-0.3l0.4,0.1c-0.1,0.1-0.1,0.3-0.3,0.4c-0.1,0.1-0.2,0.2-0.4,0.3
		c-0.1,0.1-0.3,0.2-0.5,0.2C98.1,13,97.9,13,97.7,13z M99.1,10.8c0-0.2-0.1-0.4-0.1-0.6c-0.1-0.2-0.2-0.3-0.3-0.4
		c-0.1-0.1-0.3-0.2-0.4-0.3c-0.2-0.1-0.3-0.1-0.5-0.1c-0.2,0-0.4,0-0.5,0.1c-0.2,0.1-0.3,0.2-0.4,0.3c-0.1,0.1-0.2,0.3-0.3,0.5
		c-0.1,0.2-0.1,0.4-0.1,0.6H99.1z"/>
	<path class="st7" d="M102,13c-0.3,0-0.5-0.1-0.8-0.2c-0.2-0.1-0.4-0.3-0.6-0.4c-0.2-0.2-0.3-0.4-0.4-0.6s-0.1-0.5-0.1-0.8
		c0-0.3,0-0.5,0.1-0.8s0.2-0.5,0.4-0.6s0.3-0.3,0.6-0.4c0.2-0.1,0.5-0.2,0.7-0.2c0.3,0,0.6,0.1,0.9,0.3s0.5,0.4,0.6,0.6V7.5h0.5v4.8
		c0,0.1,0.1,0.2,0.2,0.2v0.5c-0.1,0-0.2,0-0.2,0c-0.1,0-0.2,0-0.3-0.1c-0.1-0.1-0.1-0.2-0.1-0.3v-0.4c-0.2,0.3-0.4,0.5-0.6,0.6
		S102.3,13,102,13z M102.1,12.6c0.1,0,0.3,0,0.4-0.1c0.1,0,0.3-0.1,0.4-0.2c0.1-0.1,0.2-0.2,0.3-0.3c0.1-0.1,0.1-0.2,0.2-0.4v-1.2
		c0-0.1-0.1-0.3-0.2-0.4s-0.2-0.2-0.3-0.3c-0.1-0.1-0.3-0.2-0.4-0.2c-0.1,0-0.3-0.1-0.4-0.1c-0.2,0-0.4,0-0.6,0.1
		c-0.2,0.1-0.3,0.2-0.4,0.4s-0.2,0.3-0.3,0.5s-0.1,0.4-0.1,0.6c0,0.2,0,0.4,0.1,0.6c0.1,0.2,0.2,0.4,0.3,0.5
		c0.1,0.1,0.3,0.3,0.5,0.3C101.7,12.5,101.9,12.6,102.1,12.6z"/>
	<path class="st7" d="M106.8,10.3c0-0.3,0-0.5,0.1-0.8s0.1-0.5,0.2-0.7c0.1-0.2,0.2-0.5,0.3-0.7c0.1-0.2,0.3-0.5,0.4-0.7l0.4,0.2
		c-0.1,0.1-0.2,0.3-0.3,0.6c-0.1,0.2-0.2,0.5-0.3,0.7c-0.1,0.3-0.2,0.5-0.2,0.8c-0.1,0.3-0.1,0.5-0.1,0.8c0,0.4,0.1,0.8,0.3,1.3
		c0.2,0.5,0.4,0.9,0.7,1.4l-0.4,0.2c-0.3-0.5-0.6-0.9-0.8-1.4C106.9,11.3,106.8,10.8,106.8,10.3z"/>
	<path class="st7" d="M110.6,13c-0.2,0-0.5,0-0.7-0.1s-0.4-0.1-0.5-0.3c-0.2-0.1-0.3-0.2-0.4-0.4c-0.1-0.2-0.2-0.3-0.2-0.5l0.3-0.3
		c0,0.1,0.1,0.3,0.1,0.4s0.2,0.2,0.3,0.3c0.1,0.1,0.3,0.2,0.5,0.2c0.2,0.1,0.4,0.1,0.6,0.1c0.2,0,0.4,0,0.5-0.1
		c0.2-0.1,0.3-0.1,0.4-0.2c0.1-0.1,0.2-0.2,0.3-0.3s0.1-0.3,0.1-0.4c0-0.2,0-0.3-0.1-0.4c-0.1-0.1-0.2-0.2-0.3-0.3
		c-0.2-0.1-0.3-0.2-0.5-0.2s-0.4-0.1-0.7-0.1H110V10h0.3c0.5,0,0.9-0.1,1.2-0.2c0.3-0.2,0.4-0.4,0.4-0.7c0-0.2,0-0.3-0.1-0.4
		c-0.1-0.1-0.2-0.2-0.3-0.3c-0.1-0.1-0.2-0.2-0.4-0.2C110.9,8,110.7,8,110.6,8c-0.3,0-0.6,0.1-0.8,0.2c-0.2,0.1-0.4,0.3-0.5,0.5
		l-0.4-0.3c0.1-0.1,0.2-0.3,0.3-0.4c0.1-0.1,0.2-0.2,0.4-0.3c0.1-0.1,0.3-0.1,0.5-0.2c0.2,0,0.3-0.1,0.5-0.1c0.3,0,0.5,0,0.7,0.1
		c0.2,0.1,0.4,0.2,0.6,0.3s0.3,0.3,0.4,0.5s0.1,0.4,0.1,0.6c0,0.3-0.1,0.6-0.3,0.8c-0.2,0.2-0.4,0.3-0.8,0.4c0.2,0,0.3,0.1,0.5,0.2
		c0.1,0.1,0.3,0.2,0.4,0.3c0.1,0.1,0.2,0.3,0.2,0.4s0.1,0.3,0.1,0.5c0,0.2-0.1,0.4-0.2,0.6c-0.1,0.2-0.2,0.3-0.4,0.5
		s-0.4,0.2-0.6,0.3C111.1,13,110.8,13,110.6,13z"/>
	<path class="st7" d="M116.9,11.5c0,0.2-0.1,0.4-0.2,0.6s-0.2,0.3-0.4,0.5c-0.2,0.1-0.4,0.2-0.6,0.3s-0.5,0.1-0.7,0.1
		c-0.3,0-0.5,0-0.7-0.1c-0.2-0.1-0.4-0.2-0.6-0.3c-0.2-0.1-0.3-0.3-0.4-0.5s-0.1-0.4-0.1-0.6c0-0.2,0-0.3,0.1-0.5s0.1-0.3,0.2-0.4
		s0.2-0.2,0.3-0.3c0.1-0.1,0.3-0.1,0.4-0.2c-0.1,0-0.2-0.1-0.3-0.2c-0.1-0.1-0.2-0.2-0.3-0.3c-0.1-0.1-0.1-0.2-0.2-0.3
		c0-0.1-0.1-0.2-0.1-0.4c0-0.2,0.1-0.4,0.2-0.6s0.2-0.3,0.4-0.4c0.2-0.1,0.3-0.2,0.5-0.3s0.4-0.1,0.6-0.1c0.2,0,0.4,0,0.6,0.1
		s0.4,0.1,0.5,0.3c0.2,0.1,0.3,0.3,0.4,0.4c0.1,0.2,0.1,0.4,0.1,0.6c0,0.1,0,0.3-0.1,0.4c0,0.1-0.1,0.2-0.2,0.3
		c-0.1,0.1-0.2,0.2-0.3,0.3s-0.2,0.1-0.3,0.2c0.1,0.1,0.3,0.1,0.4,0.2s0.2,0.2,0.3,0.3c0.1,0.1,0.2,0.2,0.2,0.4
		C116.9,11.1,116.9,11.3,116.9,11.5z M116.4,11.4c0-0.2,0-0.3-0.1-0.5s-0.2-0.3-0.3-0.3c-0.1-0.1-0.3-0.2-0.4-0.2
		c-0.2,0-0.3-0.1-0.5-0.1c-0.2,0-0.3,0-0.5,0.1c-0.2,0.1-0.3,0.1-0.4,0.2c-0.1,0.1-0.2,0.2-0.3,0.4c-0.1,0.1-0.1,0.3-0.1,0.5
		c0,0.2,0,0.3,0.1,0.5c0.1,0.1,0.2,0.3,0.3,0.3c0.1,0.1,0.3,0.2,0.4,0.2c0.2,0.1,0.3,0.1,0.5,0.1s0.3,0,0.5-0.1
		c0.2-0.1,0.3-0.1,0.4-0.2s0.2-0.2,0.3-0.4C116.4,11.7,116.4,11.6,116.4,11.4z M113.9,9c0,0.1,0,0.3,0.1,0.4
		c0.1,0.1,0.2,0.2,0.3,0.3c0.1,0.1,0.2,0.1,0.4,0.2c0.1,0,0.3,0.1,0.4,0.1c0.1,0,0.3,0,0.4-0.1s0.3-0.1,0.4-0.2
		c0.1-0.1,0.2-0.2,0.3-0.3c0.1-0.1,0.1-0.2,0.1-0.4c0-0.1,0-0.3-0.1-0.4c-0.1-0.1-0.2-0.2-0.3-0.3c-0.1-0.1-0.2-0.1-0.4-0.2
		s-0.3-0.1-0.4-0.1c-0.2,0-0.3,0-0.4,0.1s-0.3,0.1-0.4,0.2c-0.1,0.1-0.2,0.2-0.3,0.3C114,8.7,113.9,8.8,113.9,9z"/>
	<path class="st7" d="M117.7,7.5c0.1,0,0.1,0,0.2,0c0.1,0,0.1,0,0.2,0.1c0.1,0,0.1,0.1,0.1,0.1s0.1,0.1,0.1,0.2v0.9h-0.4V8
		c0-0.1,0-0.1-0.1-0.1c0,0-0.1,0-0.1,0V7.5z M118.7,7.5c0.1,0,0.1,0,0.2,0c0.1,0,0.1,0,0.2,0.1c0.1,0,0.1,0.1,0.1,0.1
		s0.1,0.1,0.1,0.2v0.9h-0.4V8c0-0.1,0-0.1-0.1-0.1c0,0-0.1,0-0.1,0V7.5z"/>
	<path class="st7" d="M122.3,9l1.2,1.5l0.1,0.1l0.1-0.1l1.2-1.5h0.5l-1.5,2l1.5,1.9h-0.5l-1.2-1.5l-0.1-0.1l-0.1,0.1l-1.2,1.5h-0.6
		l1.5-1.9l-1.5-2H122.3z"/>
	<path class="st7" d="M130.5,8.1h-2.9V7.6h3.7l-2.7,5.3H128L130.5,8.1z"/>
	<path class="st7" d="M133.4,9.5c0.2,0,0.5,0,0.7,0.1s0.4,0.2,0.5,0.3c0.2,0.2,0.3,0.3,0.4,0.5s0.1,0.4,0.1,0.7c0,0.3,0,0.5-0.1,0.7
		c-0.1,0.2-0.2,0.4-0.4,0.6c-0.2,0.2-0.4,0.3-0.6,0.4c-0.2,0.1-0.5,0.1-0.7,0.1c-0.4,0-0.7-0.1-1-0.3c-0.3-0.2-0.5-0.4-0.7-0.8
		l0.3-0.3c0.1,0.2,0.3,0.4,0.6,0.6s0.5,0.2,0.8,0.2c0.2,0,0.4,0,0.5-0.1s0.3-0.1,0.4-0.3c0.1-0.1,0.2-0.2,0.3-0.4
		c0.1-0.2,0.1-0.3,0.1-0.5c0-0.2,0-0.4-0.1-0.5c-0.1-0.2-0.2-0.3-0.3-0.4c-0.1-0.1-0.2-0.2-0.4-0.3c-0.2-0.1-0.3-0.1-0.5-0.1
		c-0.2,0-0.5,0.1-0.7,0.2s-0.4,0.3-0.5,0.4h-0.5c0,0,0-0.1,0-0.2c0-0.1,0-0.2,0.1-0.4c0-0.1,0.1-0.3,0.1-0.5c0-0.2,0.1-0.4,0.1-0.5
		c0.1-0.4,0.2-0.9,0.3-1.4h2.6v0.5h-2.2l-0.4,1.9c0.1-0.1,0.3-0.3,0.5-0.3S133.2,9.5,133.4,9.5z"/>
	<path class="st7" d="M135.9,7.5c0.1,0,0.1,0,0.2,0c0.1,0,0.1,0,0.2,0.1c0.1,0,0.1,0.1,0.1,0.1s0.1,0.1,0.1,0.2v0.9H136V8
		c0-0.1,0-0.1-0.1-0.1c0,0-0.1,0-0.1,0V7.5z M136.8,7.5c0.1,0,0.1,0,0.2,0c0.1,0,0.1,0,0.2,0.1c0.1,0,0.1,0.1,0.1,0.1
		s0.1,0.1,0.1,0.2v0.9H137V8c0-0.1,0-0.1-0.1-0.1c0,0-0.1,0-0.1,0V7.5z"/>
	<path class="st7" d="M139.6,10.3c0,0.5-0.1,1-0.3,1.4c-0.2,0.5-0.4,1-0.8,1.4l-0.4-0.2c0.3-0.5,0.5-0.9,0.7-1.4
		c0.2-0.5,0.3-0.9,0.3-1.3c0-0.2,0-0.5-0.1-0.8c-0.1-0.3-0.1-0.5-0.2-0.8c-0.1-0.2-0.2-0.5-0.3-0.7c-0.1-0.2-0.2-0.4-0.3-0.6
		l0.4-0.2c0.1,0.2,0.3,0.5,0.4,0.7c0.1,0.2,0.2,0.5,0.3,0.7c0.1,0.2,0.2,0.5,0.2,0.7C139.6,9.8,139.6,10.1,139.6,10.3z"/>
</g>
</svg>
