<?xml version="1.0" encoding="utf-8"?>
<!-- Generator: Adobe Illustrator 24.0.3, SVG Export Plug-In . SVG Version: 6.00 Build 0)  -->
<svg version="1.1" id="Layer_1" xmlns="http://www.w3.org/2000/svg" xmlns:xlink="http://www.w3.org/1999/xlink" x="0px" y="0px"
	 viewBox="0 0 180 180" style="enable-background:new 0 0 180 180;" xml:space="preserve">
<style type="text/css">
	.st0{opacity:0.2;}
	.st1{fill:#FAFAF9;stroke:#000000;stroke-width:0.89;stroke-miterlimit:10;}
	.st2{fill:none;stroke:#F05C5A;stroke-width:0.79;stroke-linecap:round;stroke-linejoin:round;}
	.st3{opacity:0.9;}
	.st4{clip-path:url(#SVGID_2_);}
	.st5{fill:none;stroke:#F05C5A;stroke-width:7.000000e-02;stroke-miterlimit:10;stroke-dasharray:1.46,1.46;}
	.st6{fill:#231F20;}
</style>
<title>M on King Bed-01</title>
<g class="st0">
	<path class="st1" d="M28,18.5h122.2c3,0,5.4,2.4,5.4,5.4l0,0v129.9c0,3-2.4,5.4-5.4,5.4l0,0H28c-3,0-5.4-2.4-5.4-5.4l0,0V23.9
		C22.6,20.9,25,18.5,28,18.5z"/>
	<path class="st1" d="M93.6,20.8h56.2c1.6,0,2.9,1.3,2.9,2.9v29.4c0,1.6-1.3,2.9-2.9,2.9H93.6c-1.6,0-2.9-1.3-2.9-2.9l0,0V23.7
		C90.7,22.1,92,20.8,93.6,20.8L93.6,20.8z"/>
	<path class="st1" d="M28.3,20.8h56.3c1.6,0,2.9,1.3,2.9,2.9l0,0v29.4c0,1.6-1.3,2.9-2.9,2.9l0,0H28.3c-1.6,0-2.9-1.3-2.9-2.9l0,0
		V23.7C25.4,22.1,26.7,20.8,28.3,20.8L28.3,20.8z"/>
</g>
<path class="st2" d="M80.9,40.6H160c1.7,0,3.1,1.4,3.1,3.1V151c0,1.7-1.4,3.1-3.1,3.1H80.9c-1.7,0-3.1-1.4-3.1-3.1V43.6
	C77.9,41.9,79.2,40.6,80.9,40.6z"/>
<g class="st3">
	<g>
		<g>
			<defs>
				<rect id="SVGID_1_" x="77.7" y="40.6" width="85.4" height="113.6"/>
			</defs>
			<clipPath id="SVGID_2_">
				<use xlink:href="#SVGID_1_"  style="overflow:visible;"/>
			</clipPath>
			<g class="st4">
				<line class="st5" x1="6.4" y1="24.8" x2="6.4" y2="242.3"/>
				<line class="st5" x1="14.5" y1="25.2" x2="14.5" y2="242.7"/>
				<line class="st5" x1="22.2" y1="24.9" x2="22.2" y2="242.4"/>
				<line class="st5" x1="30.2" y1="25.3" x2="30.2" y2="242.8"/>
				<line class="st5" x1="38" y1="24.8" x2="38" y2="242.3"/>
				<line class="st5" x1="46" y1="25.2" x2="46" y2="242.6"/>
				<line class="st5" x1="53.7" y1="24.9" x2="53.7" y2="242.4"/>
				<line class="st5" x1="61.8" y1="25.2" x2="61.8" y2="242.7"/>
				<line class="st5" x1="70" y1="24.8" x2="70" y2="242.3"/>
				<line class="st5" x1="78.1" y1="25.2" x2="78.1" y2="242.7"/>
				<line class="st5" x1="85.8" y1="24.9" x2="85.8" y2="242.4"/>
				<line class="st5" x1="93.8" y1="25.3" x2="93.8" y2="242.8"/>
				<line class="st5" x1="101.7" y1="24.8" x2="101.7" y2="242.3"/>
				<line class="st5" x1="109.8" y1="25.2" x2="109.8" y2="242.6"/>
				<line class="st5" x1="117.4" y1="24.9" x2="117.4" y2="242.4"/>
				<line class="st5" x1="125.5" y1="25.2" x2="125.5" y2="242.7"/>
				<line class="st5" x1="133.7" y1="24.8" x2="133.7" y2="242.3"/>
				<line class="st5" x1="141.8" y1="25.2" x2="141.8" y2="242.7"/>
				<line class="st5" x1="149.5" y1="24.9" x2="149.5" y2="242.4"/>
				<line class="st5" x1="157.5" y1="25.3" x2="157.5" y2="242.8"/>
				<line class="st5" x1="170.9" y1="43.7" x2="-46.6" y2="43.7"/>
				<line class="st5" x1="170.5" y1="51.8" x2="-47" y2="51.8"/>
				<line class="st5" x1="170.8" y1="59.5" x2="-46.7" y2="59.5"/>
				<line class="st5" x1="170.4" y1="67.5" x2="-47.1" y2="67.5"/>
				<line class="st5" x1="170.8" y1="75.8" x2="-46.7" y2="75.8"/>
				<line class="st5" x1="170.4" y1="83.8" x2="-47" y2="83.8"/>
				<line class="st5" x1="170.7" y1="91.5" x2="-46.8" y2="91.5"/>
				<line class="st5" x1="170.4" y1="99.6" x2="-47.1" y2="99.6"/>
				<line class="st5" x1="170.8" y1="107.3" x2="-46.7" y2="107.3"/>
				<line class="st5" x1="170.5" y1="115.4" x2="-47" y2="115.4"/>
				<line class="st5" x1="170.8" y1="123.1" x2="-46.7" y2="123.1"/>
				<line class="st5" x1="170.4" y1="131.1" x2="-47.1" y2="131.1"/>
				<line class="st5" x1="170.8" y1="139.4" x2="-46.7" y2="139.4"/>
				<line class="st5" x1="170.4" y1="147.4" x2="-47.1" y2="147.4"/>
				<line class="st5" x1="170.7" y1="155.1" x2="-46.8" y2="155.1"/>
				<line class="st5" x1="170.3" y1="163.2" x2="-47.2" y2="163.2"/>
				<line class="st5" x1="170.8" y1="171.1" x2="-46.7" y2="171.1"/>
				<line class="st5" x1="170.5" y1="179.1" x2="-47" y2="179.1"/>
			</g>
		</g>
	</g>
</g>
<g>
	<path class="st6" d="M40.6,8.9c-0.2-0.2-0.4-0.3-0.6-0.4c-0.3-0.1-0.5-0.2-0.9-0.2c-0.5,0-0.8,0.1-1,0.3c-0.2,0.2-0.3,0.4-0.3,0.7
		c0,0.2,0,0.3,0.1,0.4S38,9.9,38.2,10c0.1,0.1,0.3,0.1,0.5,0.2c0.2,0.1,0.4,0.1,0.7,0.2c0.3,0.1,0.5,0.1,0.8,0.2
		c0.2,0.1,0.4,0.2,0.6,0.3c0.2,0.1,0.3,0.2,0.4,0.4c0.1,0.2,0.1,0.4,0.1,0.6c0,0.2,0,0.5-0.1,0.6c-0.1,0.2-0.2,0.3-0.4,0.4
		s-0.4,0.2-0.6,0.3c-0.2,0.1-0.5,0.1-0.8,0.1c-0.8,0-1.5-0.3-2.1-0.8l0.3-0.4c0.2,0.2,0.5,0.4,0.8,0.5c0.3,0.1,0.7,0.2,1.1,0.2
		c0.4,0,0.8-0.1,1-0.2c0.2-0.2,0.4-0.4,0.4-0.7c0-0.2,0-0.3-0.1-0.4c-0.1-0.1-0.2-0.2-0.3-0.3C40,11.1,39.9,11,39.7,11
		c-0.2-0.1-0.4-0.1-0.7-0.2c-0.3-0.1-0.5-0.1-0.7-0.2s-0.4-0.2-0.5-0.3s-0.2-0.2-0.3-0.4c-0.1-0.1-0.1-0.3-0.1-0.5
		c0-0.2,0-0.5,0.1-0.7s0.2-0.4,0.4-0.5S38.2,8,38.4,8c0.2-0.1,0.5-0.1,0.8-0.1c0.4,0,0.7,0.1,0.9,0.2c0.3,0.1,0.5,0.3,0.8,0.5
		L40.6,8.9z"/>
	<path class="st6" d="M45.2,13.2h-0.5v-2.2c0-0.4-0.1-0.8-0.2-1c-0.2-0.2-0.4-0.3-0.7-0.3c-0.1,0-0.3,0-0.4,0.1
		C43.2,9.9,43.1,9.9,43,10s-0.2,0.2-0.3,0.4c-0.1,0.1-0.2,0.3-0.2,0.4v2.4h-0.5V7.8h0.5v2.5c0.2-0.3,0.4-0.5,0.7-0.7
		c0.3-0.2,0.6-0.3,0.9-0.3c0.2,0,0.4,0,0.6,0.1c0.2,0.1,0.3,0.2,0.4,0.3s0.2,0.3,0.2,0.5s0.1,0.4,0.1,0.7V13.2z"/>
	<path class="st6" d="M48,13.3c-0.3,0-0.5-0.1-0.8-0.2s-0.4-0.3-0.6-0.4c-0.2-0.2-0.3-0.4-0.4-0.6c-0.1-0.2-0.1-0.5-0.1-0.8
		c0-0.3,0-0.5,0.1-0.8c0.1-0.2,0.2-0.5,0.4-0.6c0.2-0.2,0.4-0.3,0.6-0.4c0.2-0.1,0.5-0.2,0.8-0.2c0.3,0,0.5,0.1,0.8,0.2
		s0.4,0.3,0.6,0.4c0.2,0.2,0.3,0.4,0.4,0.6c0.1,0.2,0.1,0.5,0.1,0.8c0,0.3,0,0.5-0.1,0.8s-0.2,0.5-0.4,0.6c-0.2,0.2-0.4,0.3-0.6,0.4
		S48.3,13.3,48,13.3z M46.6,11.3c0,0.2,0,0.4,0.1,0.6c0.1,0.2,0.2,0.4,0.3,0.5s0.3,0.3,0.5,0.3c0.2,0.1,0.4,0.1,0.6,0.1
		s0.4,0,0.6-0.1s0.3-0.2,0.5-0.3c0.1-0.1,0.2-0.3,0.3-0.5s0.1-0.4,0.1-0.6c0-0.2,0-0.4-0.1-0.6c-0.1-0.2-0.2-0.4-0.3-0.5
		c-0.1-0.1-0.3-0.3-0.4-0.3c-0.2-0.1-0.4-0.1-0.5-0.1c-0.2,0-0.4,0-0.6,0.1c-0.2,0.1-0.3,0.2-0.4,0.3s-0.2,0.3-0.3,0.5
		C46.6,10.9,46.6,11.1,46.6,11.3z"/>
	<path class="st6" d="M55.6,9.3H56l-1.7,3.9h-0.4l-0.8-2l-0.8,2h-0.4l-1.7-3.9h0.5l1.4,3.4l0.7-1.8l-0.7-1.6h0.4l0.5,1.3l0.5-1.3
		h0.4l-0.7,1.6l0.7,1.8L55.6,9.3z"/>
	<path class="st6" d="M60,13.2h-0.5v-2.2c0-0.5-0.1-0.8-0.2-1c-0.1-0.2-0.3-0.3-0.6-0.3c-0.2,0-0.3,0-0.5,0.1
		c-0.1,0.1-0.3,0.1-0.4,0.2c-0.1,0.1-0.2,0.2-0.3,0.4c-0.1,0.1-0.2,0.3-0.2,0.4v2.4h-0.5V9.3h0.5v0.9c0.1-0.1,0.2-0.3,0.3-0.4
		c0.1-0.1,0.2-0.2,0.4-0.3s0.3-0.1,0.5-0.2c0.2,0,0.3-0.1,0.5-0.1c0.2,0,0.4,0,0.6,0.1s0.3,0.2,0.4,0.3c0.1,0.1,0.2,0.3,0.2,0.5
		s0.1,0.4,0.1,0.7V13.2z"/>
	<path class="st6" d="M64.7,13.3c-0.3,0-0.5-0.1-0.8-0.2s-0.4-0.3-0.6-0.4c-0.2-0.2-0.3-0.4-0.4-0.6c-0.1-0.2-0.1-0.5-0.1-0.8
		c0-0.3,0-0.5,0.1-0.8c0.1-0.2,0.2-0.5,0.4-0.6c0.2-0.2,0.4-0.3,0.6-0.4c0.2-0.1,0.5-0.2,0.8-0.2c0.3,0,0.5,0.1,0.8,0.2
		s0.4,0.3,0.6,0.4c0.2,0.2,0.3,0.4,0.4,0.6c0.1,0.2,0.1,0.5,0.1,0.8c0,0.3,0,0.5-0.1,0.8s-0.2,0.5-0.4,0.6c-0.2,0.2-0.4,0.3-0.6,0.4
		S64.9,13.3,64.7,13.3z M63.2,11.3c0,0.2,0,0.4,0.1,0.6c0.1,0.2,0.2,0.4,0.3,0.5s0.3,0.3,0.5,0.3c0.2,0.1,0.4,0.1,0.6,0.1
		s0.4,0,0.6-0.1s0.3-0.2,0.5-0.3c0.1-0.1,0.2-0.3,0.3-0.5s0.1-0.4,0.1-0.6c0-0.2,0-0.4-0.1-0.6c-0.1-0.2-0.2-0.4-0.3-0.5
		c-0.1-0.1-0.3-0.3-0.4-0.3c-0.2-0.1-0.4-0.1-0.5-0.1c-0.2,0-0.4,0-0.6,0.1c-0.2,0.1-0.3,0.2-0.4,0.3s-0.2,0.3-0.3,0.5
		C63.3,10.9,63.2,11.1,63.2,11.3z"/>
	<path class="st6" d="M70.7,13.2h-0.5v-2.2c0-0.5-0.1-0.8-0.2-1c-0.1-0.2-0.3-0.3-0.6-0.3c-0.2,0-0.3,0-0.5,0.1
		c-0.1,0.1-0.3,0.1-0.4,0.2c-0.1,0.1-0.2,0.2-0.3,0.4c-0.1,0.1-0.2,0.3-0.2,0.4v2.4h-0.5V9.3h0.5v0.9c0.1-0.1,0.2-0.3,0.3-0.4
		c0.1-0.1,0.2-0.2,0.4-0.3s0.3-0.1,0.5-0.2c0.2,0,0.3-0.1,0.5-0.1c0.2,0,0.4,0,0.6,0.1s0.3,0.2,0.4,0.3c0.1,0.1,0.2,0.3,0.2,0.5
		s0.1,0.4,0.1,0.7V13.2z"/>
	<path class="st6" d="M73.8,13.2V7.9h0.5V11l2.9-3.1h0.6l-2.2,2.3l2.3,3h-0.6l-2-2.7l-1,1v1.6H73.8z"/>
	<path class="st6" d="M78.5,8.5V7.8H79v0.8H78.5z M78.5,13.2V9.3H79v3.9H78.5z"/>
	<path class="st6" d="M83.4,13.2h-0.5v-2.2c0-0.5-0.1-0.8-0.2-1c-0.1-0.2-0.3-0.3-0.6-0.3c-0.2,0-0.3,0-0.5,0.1
		c-0.1,0.1-0.3,0.1-0.4,0.2c-0.1,0.1-0.2,0.2-0.3,0.4c-0.1,0.1-0.2,0.3-0.2,0.4v2.4h-0.5V9.3h0.5v0.9c0.1-0.1,0.2-0.3,0.3-0.4
		c0.1-0.1,0.2-0.2,0.4-0.3s0.3-0.1,0.5-0.2c0.2,0,0.3-0.1,0.5-0.1c0.2,0,0.4,0,0.6,0.1s0.3,0.2,0.4,0.3c0.1,0.1,0.2,0.3,0.2,0.5
		s0.1,0.4,0.1,0.7V13.2z"/>
	<path class="st6" d="M86,13.3c-0.3,0-0.5-0.1-0.7-0.2c-0.2-0.1-0.4-0.3-0.6-0.4c-0.2-0.2-0.3-0.4-0.4-0.6c-0.1-0.2-0.1-0.5-0.1-0.7
		c0-0.3,0-0.5,0.1-0.8s0.2-0.5,0.4-0.6c0.2-0.2,0.4-0.3,0.6-0.4c0.2-0.1,0.5-0.2,0.7-0.2c0.3,0,0.6,0.1,0.9,0.3s0.5,0.4,0.6,0.6V9.3
		H88v3.9c0,0.3-0.1,0.5-0.2,0.7c-0.1,0.2-0.2,0.4-0.4,0.5s-0.4,0.2-0.6,0.3c-0.2,0.1-0.5,0.1-0.7,0.1c-0.4,0-0.8-0.1-1.1-0.2
		c-0.3-0.2-0.5-0.4-0.7-0.6l0.3-0.2c0.2,0.2,0.4,0.4,0.6,0.6c0.3,0.1,0.5,0.2,0.8,0.2c0.2,0,0.4,0,0.5-0.1c0.2-0.1,0.3-0.1,0.5-0.2
		c0.1-0.1,0.2-0.2,0.3-0.4c0.1-0.2,0.1-0.3,0.1-0.6v-0.8c-0.2,0.2-0.4,0.4-0.6,0.6C86.6,13.2,86.3,13.3,86,13.3z M86.2,12.9
		c0.1,0,0.3,0,0.4-0.1s0.3-0.1,0.4-0.2c0.1-0.1,0.2-0.2,0.3-0.3c0.1-0.1,0.1-0.2,0.2-0.4v-1.2c-0.1-0.1-0.1-0.3-0.2-0.4
		c-0.1-0.1-0.2-0.2-0.3-0.3c-0.1-0.1-0.2-0.2-0.4-0.2c-0.1,0-0.3-0.1-0.4-0.1c-0.2,0-0.4,0-0.6,0.1c-0.2,0.1-0.3,0.2-0.4,0.4
		s-0.2,0.3-0.3,0.5c-0.1,0.2-0.1,0.4-0.1,0.6c0,0.2,0,0.4,0.1,0.6c0.1,0.2,0.2,0.4,0.3,0.5c0.1,0.1,0.3,0.3,0.5,0.3
		C85.8,12.8,86,12.9,86.2,12.9z"/>
	<path class="st6" d="M95.1,11.9c0,0.2,0,0.4-0.1,0.6s-0.2,0.3-0.3,0.4s-0.3,0.2-0.5,0.3c-0.2,0.1-0.4,0.1-0.6,0.1h-2.5V7.9h2.6
		c0.2,0,0.4,0,0.5,0.1c0.1,0.1,0.3,0.2,0.4,0.3c0.1,0.1,0.2,0.3,0.2,0.4c0.1,0.2,0.1,0.3,0.1,0.5c0,0.3-0.1,0.5-0.2,0.7
		c-0.1,0.2-0.3,0.4-0.6,0.5c0.3,0.1,0.5,0.3,0.7,0.5S95.1,11.5,95.1,11.9z M91.6,8.4v2h1.8c0.1,0,0.2,0,0.4-0.1s0.2-0.1,0.3-0.2
		c0.1-0.1,0.1-0.2,0.2-0.3s0.1-0.2,0.1-0.4c0-0.1,0-0.3-0.1-0.4c0-0.1-0.1-0.2-0.2-0.3c-0.1-0.1-0.2-0.2-0.3-0.2
		c-0.1-0.1-0.2-0.1-0.3-0.1H91.6z M94.6,11.8c0-0.1,0-0.3-0.1-0.4s-0.1-0.2-0.2-0.3c-0.1-0.1-0.2-0.2-0.3-0.2
		c-0.1-0.1-0.2-0.1-0.4-0.1h-2v2h2c0.1,0,0.3,0,0.4-0.1c0.1-0.1,0.2-0.1,0.3-0.2c0.1-0.1,0.2-0.2,0.2-0.3
		C94.6,12,94.6,11.9,94.6,11.8z"/>
	<path class="st6" d="M97.7,13.3c-0.3,0-0.5-0.1-0.8-0.2c-0.2-0.1-0.4-0.3-0.6-0.4s-0.3-0.4-0.4-0.6c-0.1-0.2-0.1-0.5-0.1-0.8
		c0-0.3,0-0.5,0.1-0.8s0.2-0.5,0.4-0.6c0.2-0.2,0.4-0.3,0.6-0.4c0.2-0.1,0.5-0.2,0.8-0.2s0.5,0.1,0.8,0.2c0.2,0.1,0.4,0.3,0.6,0.4
		s0.3,0.4,0.4,0.6c0.1,0.2,0.1,0.5,0.1,0.8c0,0,0,0.1,0,0.1c0,0,0,0.1,0,0.1h-3.3c0,0.2,0.1,0.4,0.1,0.6c0.1,0.2,0.2,0.3,0.3,0.5
		c0.1,0.1,0.3,0.2,0.4,0.3c0.2,0.1,0.3,0.1,0.5,0.1c0.1,0,0.3,0,0.4-0.1c0.1,0,0.2-0.1,0.3-0.1c0.1-0.1,0.2-0.1,0.3-0.2
		c0.1-0.1,0.1-0.2,0.2-0.3l0.4,0.1c-0.1,0.1-0.1,0.3-0.3,0.4c-0.1,0.1-0.2,0.2-0.4,0.3c-0.1,0.1-0.3,0.2-0.5,0.2
		C98.1,13.3,97.9,13.3,97.7,13.3z M99.2,11.1c0-0.2-0.1-0.4-0.1-0.6c-0.1-0.2-0.2-0.3-0.3-0.4c-0.1-0.1-0.3-0.2-0.4-0.3
		c-0.2-0.1-0.3-0.1-0.5-0.1s-0.4,0-0.5,0.1c-0.2,0.1-0.3,0.2-0.4,0.3c-0.1,0.1-0.2,0.3-0.3,0.5c-0.1,0.2-0.1,0.4-0.1,0.6H99.2z"/>
	<path class="st6" d="M102,13.3c-0.3,0-0.5-0.1-0.8-0.2c-0.2-0.1-0.4-0.3-0.6-0.4c-0.2-0.2-0.3-0.4-0.4-0.6
		c-0.1-0.2-0.1-0.5-0.1-0.8c0-0.3,0-0.5,0.1-0.8s0.2-0.5,0.4-0.6s0.3-0.3,0.6-0.4c0.2-0.1,0.5-0.2,0.7-0.2c0.3,0,0.6,0.1,0.9,0.3
		s0.5,0.4,0.6,0.6V7.8h0.5v4.8c0,0.1,0.1,0.2,0.2,0.2v0.5c-0.1,0-0.2,0-0.2,0c-0.1,0-0.2,0-0.3-0.1c-0.1-0.1-0.1-0.2-0.1-0.3v-0.4
		c-0.2,0.3-0.4,0.5-0.6,0.6C102.6,13.2,102.3,13.3,102,13.3z M102.1,12.9c0.1,0,0.3,0,0.4-0.1c0.1,0,0.3-0.1,0.4-0.2
		c0.1-0.1,0.2-0.2,0.3-0.3c0.1-0.1,0.1-0.2,0.2-0.4v-1.2c0-0.1-0.1-0.3-0.2-0.4c-0.1-0.1-0.2-0.2-0.3-0.3c-0.1-0.1-0.3-0.2-0.4-0.2
		c-0.1,0-0.3-0.1-0.4-0.1c-0.2,0-0.4,0-0.6,0.1c-0.2,0.1-0.3,0.2-0.4,0.4s-0.2,0.3-0.3,0.5s-0.1,0.4-0.1,0.6c0,0.2,0,0.4,0.1,0.6
		c0.1,0.2,0.2,0.4,0.3,0.5s0.3,0.3,0.5,0.3C101.7,12.8,101.9,12.9,102.1,12.9z"/>
	<path class="st6" d="M106.8,10.6c0-0.3,0-0.5,0.1-0.8c0.1-0.2,0.1-0.5,0.2-0.7c0.1-0.2,0.2-0.5,0.3-0.7c0.1-0.2,0.3-0.5,0.4-0.7
		l0.4,0.2c-0.1,0.1-0.2,0.3-0.3,0.6c-0.1,0.2-0.2,0.5-0.3,0.7c-0.1,0.3-0.2,0.5-0.2,0.8c-0.1,0.3-0.1,0.5-0.1,0.8
		c0,0.4,0.1,0.8,0.3,1.3c0.2,0.5,0.4,0.9,0.7,1.4l-0.4,0.2c-0.3-0.5-0.6-0.9-0.8-1.4C106.9,11.6,106.8,11.1,106.8,10.6z"/>
	<path class="st6" d="M111.6,8.4h-2.9V7.9h3.7l-2.7,5.3h-0.6L111.6,8.4z"/>
	<path class="st6" d="M116.6,11.5c0,0.3,0,0.5-0.1,0.7c-0.1,0.2-0.2,0.4-0.4,0.6c-0.2,0.2-0.4,0.3-0.6,0.4c-0.2,0.1-0.5,0.1-0.7,0.1
		c-0.3,0-0.5-0.1-0.8-0.2c-0.2-0.1-0.4-0.2-0.6-0.4s-0.3-0.4-0.4-0.7c-0.1-0.3-0.1-0.6-0.1-0.9c0-0.5,0-1,0.1-1.4
		c0.1-0.4,0.2-0.7,0.4-1c0.2-0.3,0.4-0.5,0.6-0.6s0.5-0.2,0.8-0.2c0.3,0,0.7,0.1,0.9,0.3c0.3,0.2,0.5,0.4,0.6,0.7L116,9.2
		c-0.1-0.3-0.3-0.5-0.5-0.6c-0.2-0.2-0.5-0.2-0.8-0.2c-0.2,0-0.4,0.1-0.6,0.2c-0.2,0.1-0.3,0.3-0.5,0.5c-0.1,0.2-0.2,0.4-0.3,0.7
		s-0.1,0.6-0.1,1c0.1-0.3,0.3-0.5,0.6-0.7c0.3-0.2,0.6-0.3,0.9-0.3c0.3,0,0.5,0,0.7,0.1c0.2,0.1,0.4,0.2,0.6,0.4s0.3,0.4,0.4,0.6
		C116.5,11,116.6,11.2,116.6,11.5z M114.7,12.9c0.2,0,0.4,0,0.5-0.1c0.2-0.1,0.3-0.2,0.4-0.3c0.1-0.1,0.2-0.3,0.3-0.4
		s0.1-0.3,0.1-0.5s0-0.4-0.1-0.5s-0.2-0.3-0.3-0.4s-0.3-0.2-0.4-0.3c-0.2-0.1-0.3-0.1-0.5-0.1c-0.2,0-0.4,0-0.5,0.1
		c-0.2,0.1-0.3,0.2-0.4,0.3c-0.1,0.1-0.2,0.3-0.3,0.4c-0.1,0.2-0.1,0.3-0.1,0.5s0,0.4,0.1,0.5s0.2,0.3,0.3,0.4
		c0.1,0.1,0.3,0.2,0.4,0.3C114.3,12.8,114.5,12.9,114.7,12.9z"/>
	<path class="st6" d="M117.3,7.8c0.1,0,0.1,0,0.2,0c0.1,0,0.1,0,0.2,0.1c0.1,0,0.1,0.1,0.1,0.1s0.1,0.1,0.1,0.2v0.9h-0.4V8.3
		c0-0.1,0-0.1-0.1-0.1c0,0-0.1,0-0.1,0V7.8z M118.3,7.8c0.1,0,0.1,0,0.2,0c0.1,0,0.1,0,0.2,0.1c0.1,0,0.1,0.1,0.1,0.1
		s0.1,0.1,0.1,0.2v0.9h-0.4V8.3c0-0.1,0-0.1-0.1-0.1c0,0-0.1,0-0.1,0V7.8z"/>
	<path class="st6" d="M121.9,9.3l1.2,1.5l0.1,0.1l0.1-0.1l1.2-1.5h0.5l-1.5,2l1.5,1.9h-0.5l-1.2-1.5l-0.1-0.1l-0.1,0.1l-1.2,1.5
		h-0.6l1.5-1.9l-1.5-2H121.9z"/>
	<path class="st6" d="M131,11.8c0,0.2,0,0.4-0.2,0.6c-0.1,0.2-0.2,0.3-0.4,0.5c-0.2,0.1-0.4,0.2-0.6,0.3s-0.5,0.1-0.7,0.1
		c-0.3,0-0.5,0-0.7-0.1s-0.4-0.2-0.6-0.3c-0.2-0.1-0.3-0.3-0.4-0.5s-0.1-0.4-0.1-0.6c0-0.2,0-0.3,0.1-0.5s0.1-0.3,0.2-0.4
		c0.1-0.1,0.2-0.2,0.3-0.3c0.1-0.1,0.3-0.1,0.4-0.2c-0.1,0-0.2-0.1-0.3-0.2c-0.1-0.1-0.2-0.2-0.3-0.3c-0.1-0.1-0.1-0.2-0.2-0.3
		c0-0.1-0.1-0.2-0.1-0.4c0-0.2,0-0.4,0.1-0.6c0.1-0.2,0.2-0.3,0.4-0.4c0.2-0.1,0.3-0.2,0.5-0.3s0.4-0.1,0.6-0.1c0.2,0,0.4,0,0.6,0.1
		s0.4,0.1,0.5,0.3c0.2,0.1,0.3,0.3,0.4,0.4c0.1,0.2,0.2,0.4,0.2,0.6c0,0.1,0,0.3-0.1,0.4c0,0.1-0.1,0.2-0.2,0.3
		c-0.1,0.1-0.2,0.2-0.3,0.3s-0.2,0.1-0.3,0.2c0.1,0.1,0.3,0.1,0.4,0.2s0.2,0.2,0.3,0.3c0.1,0.1,0.2,0.2,0.2,0.4
		C131,11.4,131,11.6,131,11.8z M130.5,11.7c0-0.2,0-0.3-0.1-0.5s-0.2-0.3-0.3-0.3c-0.1-0.1-0.3-0.2-0.4-0.2c-0.2,0-0.3-0.1-0.5-0.1
		c-0.2,0-0.3,0-0.5,0.1c-0.2,0.1-0.3,0.1-0.4,0.2c-0.1,0.1-0.2,0.2-0.3,0.4c-0.1,0.1-0.1,0.3-0.1,0.5c0,0.2,0,0.3,0.1,0.5
		c0.1,0.1,0.2,0.3,0.3,0.3c0.1,0.1,0.3,0.2,0.4,0.2c0.2,0.1,0.3,0.1,0.5,0.1s0.3,0,0.5-0.1c0.2-0.1,0.3-0.1,0.4-0.2s0.2-0.2,0.3-0.4
		S130.5,11.9,130.5,11.7z M128,9.3c0,0.1,0,0.3,0.1,0.4c0.1,0.1,0.2,0.2,0.3,0.3c0.1,0.1,0.2,0.1,0.4,0.2s0.3,0.1,0.4,0.1
		c0.1,0,0.3,0,0.4-0.1c0.1,0,0.3-0.1,0.4-0.2c0.1-0.1,0.2-0.2,0.3-0.3c0.1-0.1,0.1-0.2,0.1-0.4c0-0.1,0-0.3-0.1-0.4
		c-0.1-0.1-0.2-0.2-0.3-0.3c-0.1-0.1-0.2-0.1-0.4-0.2c-0.1,0-0.3-0.1-0.4-0.1s-0.3,0-0.4,0.1s-0.3,0.1-0.4,0.2
		c-0.1,0.1-0.2,0.2-0.3,0.3C128.1,9,128,9.1,128,9.3z"/>
	<path class="st6" d="M134,13.3c-0.4,0-0.7-0.1-1-0.3c-0.3-0.2-0.5-0.4-0.7-0.6c-0.2-0.3-0.3-0.5-0.4-0.9c-0.1-0.3-0.1-0.6-0.1-0.9
		c0-0.3,0.1-0.6,0.2-1c0.1-0.3,0.2-0.6,0.4-0.9c0.2-0.3,0.4-0.5,0.7-0.6c0.3-0.2,0.6-0.2,0.9-0.2c0.4,0,0.7,0.1,1,0.3
		c0.3,0.2,0.5,0.4,0.7,0.7c0.2,0.3,0.3,0.6,0.4,0.9s0.1,0.6,0.1,0.9c0,0.3-0.1,0.6-0.2,1c-0.1,0.3-0.2,0.6-0.4,0.9
		c-0.2,0.3-0.4,0.5-0.7,0.6C134.6,13.2,134.3,13.3,134,13.3z M132.3,10.6c0,0.3,0,0.5,0.1,0.8s0.2,0.5,0.3,0.7
		c0.1,0.2,0.3,0.4,0.5,0.5c0.2,0.1,0.4,0.2,0.7,0.2c0.3,0,0.5-0.1,0.7-0.2c0.2-0.1,0.4-0.3,0.5-0.5c0.1-0.2,0.2-0.5,0.3-0.7
		c0.1-0.3,0.1-0.5,0.1-0.7c0-0.3,0-0.5-0.1-0.8c-0.1-0.3-0.2-0.5-0.3-0.7c-0.1-0.2-0.3-0.4-0.5-0.5c-0.2-0.1-0.4-0.2-0.7-0.2
		c-0.3,0-0.5,0.1-0.7,0.2c-0.2,0.1-0.4,0.3-0.5,0.5c-0.1,0.2-0.2,0.5-0.3,0.7C132.3,10.1,132.3,10.4,132.3,10.6z"/>
	<path class="st6" d="M137,7.8c0.1,0,0.1,0,0.2,0c0.1,0,0.1,0,0.2,0.1c0.1,0,0.1,0.1,0.1,0.1s0.1,0.1,0.1,0.2v0.9h-0.4V8.3
		c0-0.1,0-0.1-0.1-0.1c0,0-0.1,0-0.1,0V7.8z M137.9,7.8c0.1,0,0.1,0,0.2,0c0.1,0,0.1,0,0.2,0.1c0.1,0,0.1,0.1,0.1,0.1
		s0.1,0.1,0.1,0.2v0.9h-0.4V8.3c0-0.1,0-0.1-0.1-0.1c0,0-0.1,0-0.1,0V7.8z"/>
	<path class="st6" d="M140.7,10.6c0,0.5-0.1,1-0.3,1.4c-0.2,0.5-0.4,1-0.8,1.4l-0.4-0.2c0.3-0.5,0.5-0.9,0.7-1.4
		c0.2-0.5,0.3-0.9,0.3-1.3c0-0.2,0-0.5-0.1-0.8c-0.1-0.3-0.1-0.5-0.2-0.8c-0.1-0.2-0.2-0.5-0.3-0.7c-0.1-0.2-0.2-0.4-0.3-0.6
		l0.4-0.2c0.1,0.2,0.3,0.5,0.4,0.7c0.1,0.2,0.2,0.5,0.3,0.7c0.1,0.2,0.2,0.5,0.2,0.7C140.7,10.1,140.7,10.4,140.7,10.6z"/>
</g>
</svg>
