<?xml version="1.0" encoding="utf-8"?>
<!-- Generator: Adobe Illustrator 24.0.3, SVG Export Plug-In . SVG Version: 6.00 Build 0)  -->
<svg version="1.1" id="Layer_1" xmlns="http://www.w3.org/2000/svg" xmlns:xlink="http://www.w3.org/1999/xlink" x="0px" y="0px"
	 viewBox="0 0 180 180" style="enable-background:new 0 0 180 180;" xml:space="preserve">
<style type="text/css">
	.st0{opacity:0.9;}
	.st1{clip-path:url(#SVGID_2_);}
	.st2{fill:none;stroke:#F05C5A;stroke-width:8.000000e-02;stroke-miterlimit:10;stroke-dasharray:1.61,1.61;}
	.st3{fill:none;stroke:#F05C5A;stroke-width:0.97;stroke-linecap:round;stroke-linejoin:round;}
	.st4{opacity:0.2;}
	.st5{fill:#FAFAF9;stroke:#000000;stroke-width:0.97;stroke-miterlimit:10;}
	.st6{fill:#231F20;}
</style>
<title>M on Full Bed</title>
<g class="st0">
	<g>
		<g>
			<defs>
				<rect id="SVGID_1_" x="43.3" y="33" width="92.8" height="125.7"/>
			</defs>
			<clipPath id="SVGID_2_">
				<use xlink:href="#SVGID_1_"  style="overflow:visible;"/>
			</clipPath>
			<g class="st1">
				<line class="st2" x1="1.9" y1="16.2" x2="1.9" y2="255.1"/>
				<line class="st2" x1="10.4" y1="15.7" x2="10.4" y2="254.6"/>
				<line class="st2" x1="19.3" y1="16.1" x2="19.3" y2="255"/>
				<line class="st2" x1="27.7" y1="15.8" x2="27.7" y2="254.7"/>
				<line class="st2" x1="36.5" y1="16.2" x2="36.5" y2="255.1"/>
				<line class="st2" x1="45.6" y1="15.8" x2="45.6" y2="254.6"/>
				<line class="st2" x1="54.4" y1="16.2" x2="54.4" y2="255"/>
				<line class="st2" x1="62.9" y1="15.9" x2="62.9" y2="254.7"/>
				<line class="st2" x1="71.7" y1="16.3" x2="71.7" y2="255.1"/>
				<line class="st2" x1="80.4" y1="15.7" x2="80.4" y2="254.6"/>
				<line class="st2" x1="89.2" y1="16.1" x2="89.2" y2="255"/>
				<line class="st2" x1="97.7" y1="15.8" x2="97.7" y2="254.7"/>
				<line class="st2" x1="106.5" y1="16.2" x2="106.5" y2="255.1"/>
				<line class="st2" x1="115.6" y1="15.8" x2="115.6" y2="254.6"/>
				<line class="st2" x1="124.4" y1="16.2" x2="124.4" y2="255"/>
				<line class="st2" x1="132.9" y1="15.9" x2="132.9" y2="254.7"/>
				<line class="st2" x1="141.7" y1="16.3" x2="141.7" y2="255.1"/>
				<line class="st2" x1="156.3" y1="36.5" x2="-82.5" y2="36.5"/>
				<line class="st2" x1="155.9" y1="45.4" x2="-82.9" y2="45.4"/>
				<line class="st2" x1="156.2" y1="53.8" x2="-82.6" y2="53.8"/>
				<line class="st2" x1="155.8" y1="62.7" x2="-83" y2="62.7"/>
				<line class="st2" x1="156.3" y1="71.7" x2="-82.6" y2="71.7"/>
				<line class="st2" x1="155.9" y1="80.6" x2="-83" y2="80.6"/>
				<line class="st2" x1="156.2" y1="89" x2="-82.7" y2="89"/>
				<line class="st2" x1="155.8" y1="97.8" x2="-83.1" y2="97.8"/>
				<line class="st2" x1="156.3" y1="106.4" x2="-82.6" y2="106.4"/>
				<line class="st2" x1="155.9" y1="115.2" x2="-83" y2="115.2"/>
				<line class="st2" x1="156.2" y1="123.7" x2="-82.7" y2="123.7"/>
				<line class="st2" x1="155.8" y1="132.5" x2="-83.1" y2="132.5"/>
				<line class="st2" x1="156.3" y1="141.6" x2="-82.6" y2="141.6"/>
				<line class="st2" x1="155.9" y1="150.4" x2="-83" y2="150.4"/>
				<line class="st2" x1="156.2" y1="158.9" x2="-82.7" y2="158.9"/>
				<line class="st2" x1="155.8" y1="167.7" x2="-83.1" y2="167.7"/>
				<line class="st2" x1="156.3" y1="176.4" x2="-82.6" y2="176.4"/>
			</g>
		</g>
	</g>
</g>
<path class="st3" d="M46.7,33h85.9c1.9,0,3.4,1.5,3.4,3.4v119c0,1.9-1.5,3.4-3.4,3.4H46.7c-1.9,0-3.4-1.5-3.4-3.4v-119
	C43.3,34.6,44.8,33,46.7,33z"/>
<g class="st4">
	<path class="st5" d="M48.7,18.5h81.9c3,0,5.4,2.4,5.4,5.4v117.8c0,3-2.4,5.4-5.4,5.4H48.7c-3,0-5.4-2.4-5.4-5.4V23.9
		C43.3,20.9,45.7,18.5,48.7,18.5z"/>
	<path class="st5" d="M93.6,20.5H131c1.6,0,2.9,1.3,2.9,2.9v24.9c0,1.6-1.3,2.9-2.9,2.9H93.6c-1.6,0-2.9-1.3-2.9-2.9v-25
		C90.8,21.8,92,20.5,93.6,20.5z"/>
	<path class="st5" d="M48.2,20.5h37.4c1.6,0,2.9,1.3,2.9,2.9v24.9c0,1.6-1.3,2.9-2.9,2.9H48.2c-1.6,0-2.9-1.3-2.9-2.9v-25
		C45.3,21.8,46.6,20.5,48.2,20.5z"/>
</g>
<g>
	<path class="st6" d="M43.4,8.7c-0.2-0.2-0.4-0.3-0.6-0.4c-0.3-0.1-0.5-0.2-0.9-0.2c-0.5,0-0.8,0.1-1,0.3c-0.2,0.2-0.3,0.4-0.3,0.7
		c0,0.2,0,0.3,0.1,0.4s0.1,0.2,0.3,0.3c0.1,0.1,0.3,0.1,0.5,0.2c0.2,0.1,0.4,0.1,0.7,0.2c0.3,0.1,0.5,0.1,0.8,0.2
		c0.2,0.1,0.4,0.2,0.6,0.3c0.2,0.1,0.3,0.2,0.4,0.4c0.1,0.2,0.1,0.4,0.1,0.6c0,0.2,0,0.5-0.1,0.6c-0.1,0.2-0.2,0.3-0.4,0.4
		S43,12.9,42.8,13c-0.2,0.1-0.5,0.1-0.8,0.1c-0.8,0-1.5-0.3-2.1-0.8l0.3-0.4c0.2,0.2,0.5,0.4,0.8,0.5c0.3,0.1,0.7,0.2,1.1,0.2
		c0.4,0,0.8-0.1,1-0.2c0.2-0.2,0.4-0.4,0.4-0.7c0-0.2,0-0.3-0.1-0.4c-0.1-0.1-0.2-0.2-0.3-0.3c-0.1-0.1-0.3-0.2-0.5-0.2
		c-0.2-0.1-0.4-0.1-0.7-0.2c-0.3-0.1-0.5-0.1-0.7-0.2s-0.4-0.2-0.5-0.3s-0.2-0.2-0.3-0.4C40.1,9.6,40,9.4,40,9.2
		c0-0.2,0-0.5,0.1-0.7s0.2-0.4,0.4-0.5s0.4-0.2,0.6-0.3c0.2-0.1,0.5-0.1,0.8-0.1c0.4,0,0.7,0.1,0.9,0.2c0.3,0.1,0.5,0.3,0.8,0.5
		L43.4,8.7z"/>
	<path class="st6" d="M48,13h-0.5v-2.2c0-0.4-0.1-0.8-0.2-1c-0.2-0.2-0.4-0.3-0.7-0.3c-0.1,0-0.3,0-0.4,0.1
		c-0.1,0.1-0.3,0.1-0.4,0.2s-0.2,0.2-0.3,0.4c-0.1,0.1-0.2,0.3-0.2,0.4V13h-0.5V7.5h0.5V10c0.2-0.3,0.4-0.5,0.7-0.7
		C46.2,9.1,46.4,9,46.8,9c0.2,0,0.4,0,0.6,0.1c0.2,0.1,0.3,0.2,0.4,0.3s0.2,0.3,0.2,0.5s0.1,0.4,0.1,0.7V13z"/>
	<path class="st6" d="M50.7,13.1c-0.3,0-0.5-0.1-0.8-0.2s-0.4-0.3-0.6-0.4c-0.2-0.2-0.3-0.4-0.4-0.6c-0.1-0.2-0.1-0.5-0.1-0.8
		c0-0.3,0-0.5,0.1-0.8c0.1-0.2,0.2-0.5,0.4-0.6c0.2-0.2,0.4-0.3,0.6-0.4C50.2,9.1,50.5,9,50.7,9c0.3,0,0.5,0.1,0.8,0.2
		s0.4,0.3,0.6,0.4c0.2,0.2,0.3,0.4,0.4,0.6c0.1,0.2,0.1,0.5,0.1,0.8c0,0.3,0,0.5-0.1,0.8s-0.2,0.5-0.4,0.6c-0.2,0.2-0.4,0.3-0.6,0.4
		S51,13.1,50.7,13.1z M49.3,11.1c0,0.2,0,0.4,0.1,0.6c0.1,0.2,0.2,0.4,0.3,0.5s0.3,0.3,0.5,0.3c0.2,0.1,0.4,0.1,0.6,0.1
		s0.4,0,0.6-0.1s0.3-0.2,0.5-0.3c0.1-0.1,0.2-0.3,0.3-0.5s0.1-0.4,0.1-0.6c0-0.2,0-0.4-0.1-0.6c-0.1-0.2-0.2-0.4-0.3-0.5
		c-0.1-0.1-0.3-0.3-0.4-0.3c-0.2-0.1-0.4-0.1-0.5-0.1c-0.2,0-0.4,0-0.6,0.1c-0.2,0.1-0.3,0.2-0.4,0.3s-0.2,0.3-0.3,0.5
		C49.4,10.6,49.3,10.9,49.3,11.1z"/>
	<path class="st6" d="M58.3,9.1h0.5L57.1,13h-0.4l-0.8-2l-0.8,2h-0.4L53,9.1h0.5l1.4,3.4l0.7-1.8l-0.7-1.6h0.4l0.5,1.3l0.5-1.3h0.4
		l-0.7,1.6l0.7,1.8L58.3,9.1z"/>
	<path class="st6" d="M62.8,13h-0.5v-2.2c0-0.5-0.1-0.8-0.2-1c-0.1-0.2-0.3-0.3-0.6-0.3c-0.2,0-0.3,0-0.5,0.1
		c-0.1,0.1-0.3,0.1-0.4,0.2c-0.1,0.1-0.2,0.2-0.3,0.4c-0.1,0.1-0.2,0.3-0.2,0.4V13h-0.5V9.1h0.5V10c0.1-0.1,0.2-0.3,0.3-0.4
		c0.1-0.1,0.2-0.2,0.4-0.3s0.3-0.1,0.5-0.2c0.2,0,0.3-0.1,0.5-0.1c0.2,0,0.4,0,0.6,0.1s0.3,0.2,0.4,0.3c0.1,0.1,0.2,0.3,0.2,0.5
		s0.1,0.4,0.1,0.7V13z"/>
	<path class="st6" d="M67.4,13.1c-0.3,0-0.5-0.1-0.8-0.2s-0.4-0.3-0.6-0.4c-0.2-0.2-0.3-0.4-0.4-0.6c-0.1-0.2-0.1-0.5-0.1-0.8
		c0-0.3,0-0.5,0.1-0.8c0.1-0.2,0.2-0.5,0.4-0.6c0.2-0.2,0.4-0.3,0.6-0.4C66.9,9.1,67.2,9,67.4,9c0.3,0,0.5,0.1,0.8,0.2
		s0.4,0.3,0.6,0.4c0.2,0.2,0.3,0.4,0.4,0.6c0.1,0.2,0.1,0.5,0.1,0.8c0,0.3,0,0.5-0.1,0.8s-0.2,0.5-0.4,0.6c-0.2,0.2-0.4,0.3-0.6,0.4
		S67.7,13.1,67.4,13.1z M66,11.1c0,0.2,0,0.4,0.1,0.6c0.1,0.2,0.2,0.4,0.3,0.5s0.3,0.3,0.5,0.3c0.2,0.1,0.4,0.1,0.6,0.1
		s0.4,0,0.6-0.1s0.3-0.2,0.5-0.3c0.1-0.1,0.2-0.3,0.3-0.5s0.1-0.4,0.1-0.6c0-0.2,0-0.4-0.1-0.6c-0.1-0.2-0.2-0.4-0.3-0.5
		c-0.1-0.1-0.3-0.3-0.4-0.3c-0.2-0.1-0.4-0.1-0.5-0.1c-0.2,0-0.4,0-0.6,0.1c-0.2,0.1-0.3,0.2-0.4,0.3s-0.2,0.3-0.3,0.5
		C66.1,10.6,66,10.9,66,11.1z"/>
	<path class="st6" d="M73.5,13H73v-2.2c0-0.5-0.1-0.8-0.2-1c-0.1-0.2-0.3-0.3-0.6-0.3c-0.2,0-0.3,0-0.5,0.1
		c-0.1,0.1-0.3,0.1-0.4,0.2c-0.1,0.1-0.2,0.2-0.3,0.4c-0.1,0.1-0.2,0.3-0.2,0.4V13h-0.5V9.1h0.5V10c0.1-0.1,0.2-0.3,0.3-0.4
		c0.1-0.1,0.2-0.2,0.4-0.3s0.3-0.1,0.5-0.2C72,9.1,72.2,9,72.3,9c0.2,0,0.4,0,0.6,0.1s0.3,0.2,0.4,0.3c0.1,0.1,0.2,0.3,0.2,0.5
		s0.1,0.4,0.1,0.7V13z"/>
	<path class="st6" d="M76.6,13V7.7h3.5v0.5h-3v2h2.5v0.4h-2.5V13H76.6z"/>
	<path class="st6" d="M81.9,13.1c-0.4,0-0.7-0.1-0.9-0.4c-0.2-0.3-0.3-0.7-0.3-1.3V9.1h0.5v2.2c0,0.9,0.3,1.3,0.9,1.3
		c0.1,0,0.3,0,0.4-0.1c0.1,0,0.3-0.1,0.4-0.2c0.1-0.1,0.2-0.2,0.3-0.3c0.1-0.1,0.2-0.3,0.2-0.4V9.1H84v3.2c0,0.1,0.1,0.2,0.2,0.2V13
		c-0.1,0-0.2,0-0.2,0c-0.1,0-0.2,0-0.3-0.1c-0.1-0.1-0.1-0.2-0.1-0.3v-0.5c-0.2,0.3-0.4,0.5-0.7,0.7S82.2,13.1,81.9,13.1z"/>
	<path class="st6" d="M85.1,7.5h0.5v4.6c0,0.1,0,0.3,0.1,0.3c0.1,0.1,0.2,0.1,0.3,0.1c0.1,0,0.1,0,0.2,0c0.1,0,0.1,0,0.2-0.1
		l0.1,0.4c-0.1,0-0.2,0.1-0.3,0.1c-0.1,0-0.3,0-0.4,0c-0.2,0-0.4-0.1-0.6-0.2c-0.1-0.1-0.2-0.3-0.2-0.6V7.5z"/>
	<path class="st6" d="M87.1,7.5h0.5v4.6c0,0.1,0,0.3,0.1,0.3c0.1,0.1,0.2,0.1,0.3,0.1c0.1,0,0.1,0,0.2,0c0.1,0,0.1,0,0.2-0.1
		l0.1,0.4c-0.1,0-0.2,0.1-0.3,0.1c-0.1,0-0.3,0-0.4,0c-0.2,0-0.4-0.1-0.6-0.2c-0.1-0.1-0.2-0.3-0.2-0.6V7.5z"/>
	<path class="st6" d="M94.9,11.6c0,0.2,0,0.4-0.1,0.6s-0.2,0.3-0.3,0.4s-0.3,0.2-0.5,0.3C93.8,13,93.6,13,93.4,13h-2.5V7.7h2.6
		c0.2,0,0.4,0,0.5,0.1c0.1,0.1,0.3,0.2,0.4,0.3c0.1,0.1,0.2,0.3,0.2,0.4c0.1,0.2,0.1,0.3,0.1,0.5c0,0.3-0.1,0.5-0.2,0.7
		c-0.1,0.2-0.3,0.4-0.6,0.5c0.3,0.1,0.5,0.3,0.7,0.5S94.9,11.3,94.9,11.6z M91.4,8.1v2h1.8c0.1,0,0.3,0,0.4-0.1s0.2-0.1,0.3-0.2
		c0.1-0.1,0.1-0.2,0.2-0.3s0.1-0.2,0.1-0.4c0-0.1,0-0.3-0.1-0.4c0-0.1-0.1-0.2-0.2-0.3c-0.1-0.1-0.2-0.2-0.3-0.2
		c-0.1-0.1-0.2-0.1-0.3-0.1H91.4z M94.4,11.5c0-0.1,0-0.3-0.1-0.4s-0.1-0.2-0.2-0.3c-0.1-0.1-0.2-0.2-0.3-0.2s-0.2-0.1-0.4-0.1h-2v2
		h2c0.1,0,0.3,0,0.4-0.1c0.1-0.1,0.2-0.1,0.3-0.2c0.1-0.1,0.2-0.2,0.2-0.3C94.4,11.8,94.4,11.7,94.4,11.5z"/>
	<path class="st6" d="M97.5,13.1c-0.3,0-0.5-0.1-0.8-0.2c-0.2-0.1-0.4-0.3-0.6-0.4s-0.3-0.4-0.4-0.6c-0.1-0.2-0.1-0.5-0.1-0.8
		c0-0.3,0-0.5,0.1-0.8c0.1-0.2,0.2-0.5,0.4-0.6c0.2-0.2,0.4-0.3,0.6-0.4C97,9.1,97.2,9,97.5,9s0.5,0.1,0.8,0.2
		c0.2,0.1,0.4,0.3,0.6,0.4s0.3,0.4,0.4,0.6c0.1,0.2,0.1,0.5,0.1,0.8c0,0,0,0.1,0,0.1c0,0,0,0.1,0,0.1h-3.3c0,0.2,0.1,0.4,0.1,0.6
		c0.1,0.2,0.2,0.3,0.3,0.5s0.3,0.2,0.4,0.3c0.2,0.1,0.3,0.1,0.5,0.1c0.1,0,0.3,0,0.4-0.1c0.1,0,0.2-0.1,0.3-0.1
		c0.1-0.1,0.2-0.1,0.3-0.2c0.1-0.1,0.1-0.2,0.2-0.3l0.4,0.1c-0.1,0.1-0.1,0.3-0.3,0.4c-0.1,0.1-0.2,0.2-0.4,0.3
		c-0.1,0.1-0.3,0.2-0.5,0.2C97.9,13.1,97.7,13.1,97.5,13.1z M99,10.8c0-0.2-0.1-0.4-0.1-0.6c-0.1-0.2-0.2-0.3-0.3-0.4
		c-0.1-0.1-0.3-0.2-0.4-0.3c-0.2-0.1-0.3-0.1-0.5-0.1c-0.2,0-0.4,0-0.5,0.1c-0.2,0.1-0.3,0.2-0.4,0.3c-0.1,0.1-0.2,0.3-0.3,0.5
		c-0.1,0.2-0.1,0.4-0.1,0.6H99z"/>
	<path class="st6" d="M101.8,13.1c-0.3,0-0.5-0.1-0.8-0.2c-0.2-0.1-0.4-0.3-0.6-0.4c-0.2-0.2-0.3-0.4-0.4-0.6s-0.1-0.5-0.1-0.8
		c0-0.3,0-0.5,0.1-0.8s0.2-0.5,0.4-0.6s0.3-0.3,0.6-0.4c0.2-0.1,0.5-0.2,0.7-0.2c0.3,0,0.6,0.1,0.9,0.3s0.5,0.4,0.6,0.6V7.5h0.5v4.8
		c0,0.1,0.1,0.2,0.2,0.2V13c-0.1,0-0.2,0-0.2,0c-0.1,0-0.2,0-0.3-0.1c-0.1-0.1-0.1-0.2-0.1-0.3v-0.4c-0.2,0.3-0.4,0.5-0.6,0.6
		S102.1,13.1,101.8,13.1z M101.9,12.6c0.1,0,0.3,0,0.4-0.1c0.1,0,0.3-0.1,0.4-0.2c0.1-0.1,0.2-0.2,0.3-0.3c0.1-0.1,0.1-0.2,0.2-0.4
		v-1.2c0-0.1-0.1-0.3-0.2-0.4s-0.2-0.2-0.3-0.3c-0.1-0.1-0.3-0.2-0.4-0.2c-0.1,0-0.3-0.1-0.4-0.1c-0.2,0-0.4,0-0.6,0.1
		c-0.2,0.1-0.3,0.2-0.4,0.4s-0.2,0.3-0.3,0.5s-0.1,0.4-0.1,0.6c0,0.2,0,0.4,0.1,0.6c0.1,0.2,0.2,0.4,0.3,0.5
		c0.1,0.1,0.3,0.3,0.5,0.3C101.5,12.6,101.7,12.6,101.9,12.6z"/>
	<path class="st6" d="M106.6,10.4c0-0.3,0-0.5,0.1-0.8s0.1-0.5,0.2-0.7c0.1-0.2,0.2-0.5,0.3-0.7c0.1-0.2,0.3-0.5,0.4-0.7l0.4,0.2
		c-0.1,0.1-0.2,0.3-0.3,0.6c-0.1,0.2-0.2,0.5-0.3,0.7c-0.1,0.3-0.2,0.5-0.2,0.8c-0.1,0.3-0.1,0.5-0.1,0.8c0,0.4,0.1,0.8,0.3,1.3
		c0.2,0.5,0.4,0.9,0.7,1.4l-0.4,0.2c-0.3-0.5-0.6-0.9-0.8-1.4C106.7,11.4,106.6,10.9,106.6,10.4z"/>
	<path class="st6" d="M110.4,9.6c0.2,0,0.5,0,0.7,0.1s0.4,0.2,0.5,0.3c0.2,0.2,0.3,0.3,0.4,0.5s0.1,0.4,0.1,0.7c0,0.3,0,0.5-0.1,0.7
		c-0.1,0.2-0.2,0.4-0.4,0.6c-0.2,0.2-0.4,0.3-0.6,0.4c-0.2,0.1-0.5,0.1-0.7,0.1c-0.4,0-0.7-0.1-1-0.3c-0.3-0.2-0.5-0.4-0.7-0.8
		l0.3-0.3c0.1,0.2,0.3,0.4,0.6,0.6s0.5,0.2,0.8,0.2c0.2,0,0.4,0,0.5-0.1s0.3-0.1,0.4-0.3c0.1-0.1,0.2-0.2,0.3-0.4
		c0.1-0.2,0.1-0.3,0.1-0.5c0-0.2,0-0.4-0.1-0.5c-0.1-0.2-0.2-0.3-0.3-0.4c-0.1-0.1-0.2-0.2-0.4-0.3c-0.2-0.1-0.3-0.1-0.5-0.1
		c-0.2,0-0.5,0.1-0.7,0.2s-0.4,0.3-0.5,0.4h-0.5c0,0,0-0.1,0-0.2c0-0.1,0-0.2,0.1-0.4c0-0.1,0.1-0.3,0.1-0.5c0-0.2,0.1-0.4,0.1-0.5
		c0.1-0.4,0.2-0.9,0.3-1.4h2.6v0.5h-2.2l-0.4,1.9c0.1-0.1,0.3-0.3,0.5-0.3S110.2,9.6,110.4,9.6z"/>
	<path class="st6" d="M115.3,13v-1.4h-2.6v-0.5l2.8-3.4h0.4v3.4h0.7v0.5h-0.7V13H115.3z M113.2,11.1h2.1V8.5L113.2,11.1z"/>
	<path class="st6" d="M117.1,7.5c0.1,0,0.1,0,0.2,0s0.1,0,0.2,0.1s0.1,0.1,0.1,0.1s0.1,0.1,0.1,0.2v0.9h-0.4V8.1
		c0-0.1,0-0.1-0.1-0.1c0,0-0.1,0-0.1,0V7.5z M118.1,7.5c0.1,0,0.1,0,0.2,0s0.1,0,0.2,0.1s0.1,0.1,0.1,0.1s0.1,0.1,0.1,0.2v0.9h-0.4
		V8.1c0-0.1,0-0.1-0.1-0.1c0,0-0.1,0-0.1,0V7.5z"/>
	<path class="st6" d="M121.8,9.1l1.2,1.5l0.1,0.1l0.1-0.1l1.2-1.5h0.5l-1.5,2l1.5,1.9h-0.5l-1.2-1.5l-0.1-0.1l-0.1,0.1l-1.2,1.5
		h-0.6l1.5-1.9l-1.5-2H121.8z"/>
	<path class="st6" d="M129.9,8.2H127V7.7h3.7L128,13h-0.6L129.9,8.2z"/>
	<path class="st6" d="M132.8,9.6c0.2,0,0.5,0,0.7,0.1s0.4,0.2,0.5,0.3c0.2,0.2,0.3,0.3,0.4,0.5s0.1,0.4,0.1,0.7c0,0.3,0,0.5-0.1,0.7
		c-0.1,0.2-0.2,0.4-0.4,0.6c-0.2,0.2-0.4,0.3-0.6,0.4s-0.5,0.1-0.7,0.1c-0.4,0-0.7-0.1-1-0.3c-0.3-0.2-0.5-0.4-0.7-0.8l0.3-0.3
		c0.1,0.2,0.3,0.4,0.6,0.6c0.2,0.1,0.5,0.2,0.8,0.2c0.2,0,0.4,0,0.5-0.1s0.3-0.1,0.4-0.3c0.1-0.1,0.2-0.2,0.3-0.4
		c0.1-0.2,0.1-0.3,0.1-0.5c0-0.2,0-0.4-0.1-0.5c-0.1-0.2-0.2-0.3-0.3-0.4c-0.1-0.1-0.2-0.2-0.4-0.3s-0.3-0.1-0.5-0.1
		c-0.2,0-0.4,0.1-0.7,0.2s-0.4,0.3-0.5,0.4h-0.5c0,0,0-0.1,0-0.2c0-0.1,0-0.2,0.1-0.4c0-0.1,0.1-0.3,0.1-0.5c0-0.2,0.1-0.4,0.1-0.5
		c0.1-0.4,0.2-0.9,0.3-1.4h2.6v0.5h-2.2l-0.4,1.9c0.1-0.1,0.3-0.3,0.5-0.3S132.6,9.6,132.8,9.6z"/>
	<path class="st6" d="M135.3,7.5c0.1,0,0.1,0,0.2,0s0.1,0,0.2,0.1s0.1,0.1,0.1,0.1s0.1,0.1,0.1,0.2v0.9h-0.4V8.1
		c0-0.1,0-0.1-0.1-0.1c0,0-0.1,0-0.1,0V7.5z M136.3,7.5c0.1,0,0.1,0,0.2,0s0.1,0,0.2,0.1s0.1,0.1,0.1,0.1s0.1,0.1,0.1,0.2v0.9h-0.4
		V8.1c0-0.1,0-0.1-0.1-0.1c0,0-0.1,0-0.1,0V7.5z"/>
	<path class="st6" d="M139,10.4c0,0.5-0.1,1-0.3,1.4c-0.2,0.5-0.4,1-0.8,1.4l-0.4-0.2c0.3-0.5,0.5-0.9,0.7-1.4
		c0.2-0.5,0.3-0.9,0.3-1.3c0-0.2,0-0.5-0.1-0.8c-0.1-0.3-0.1-0.5-0.2-0.8c-0.1-0.2-0.2-0.5-0.3-0.7c-0.1-0.2-0.2-0.4-0.3-0.6
		l0.4-0.2c0.1,0.2,0.3,0.5,0.4,0.7c0.1,0.2,0.2,0.5,0.3,0.7c0.1,0.2,0.2,0.5,0.2,0.7C139,9.9,139,10.2,139,10.4z"/>
</g>
</svg>
