<?xml version="1.0" encoding="utf-8"?>
<!-- Generator: Adobe Illustrator 24.0.3, SVG Export Plug-In . SVG Version: 6.00 Build 0)  -->
<svg version="1.1" id="Layer_1" xmlns="http://www.w3.org/2000/svg" xmlns:xlink="http://www.w3.org/1999/xlink" x="0px" y="0px"
	 viewBox="0 0 180 180" style="enable-background:new 0 0 180 180;" xml:space="preserve">
<style type="text/css">
	.st0{opacity:0.2;}
	.st1{fill:#FBF9F9;stroke:#000000;stroke-width:0.86;stroke-miterlimit:10;}
	.st2{fill:#FBF9F9;stroke:#000000;stroke-width:1.02;stroke-miterlimit:10;}
	.st3{opacity:0.9;}
	.st4{clip-path:url(#SVGID_2_);}
	.st5{fill:none;stroke:#F15D5A;stroke-width:8.000000e-02;stroke-miterlimit:10;stroke-dasharray:1.69,1.69;}
	.st6{fill:none;stroke:#F15D5A;stroke-width:1.02;stroke-linecap:round;stroke-linejoin:round;}
	.st7{fill:none;stroke:#231F20;stroke-width:3.000000e-02;stroke-miterlimit:10;}
	.st8{fill:#231F20;}
</style>
<title>S on Twin Bed-01</title>
<g class="st0">
	<path class="st1" d="M60.5,20.5h57.7c3,0,5.4,2.4,5.4,5.4c0,0,0,0,0,0v124.2c0,3-2.4,5.4-5.4,5.4c0,0,0,0,0,0H60.5
		c-3,0-5.4-2.4-5.4-5.4c0,0,0,0,0,0V25.9C55.1,22.9,57.5,20.5,60.5,20.5z"/>
	<path class="st2" d="M70,22.6h39.6c1.6,0,2.9,1.3,2.9,2.9l0,0v26.4c0,1.6-1.3,2.9-2.9,2.9l0,0H70c-1.6,0-2.9-1.3-2.9-2.9
		c0,0,0,0,0,0V25.5C67.1,23.9,68.4,22.6,70,22.6L70,22.6z"/>
</g>
<g class="st3">
	<g>
		<defs>
			<rect id="SVGID_1_" x="51.1" y="48.2" width="76" height="101.3"/>
		</defs>
		<clipPath id="SVGID_2_">
			<use xlink:href="#SVGID_1_"  style="overflow:visible;"/>
		</clipPath>
		<g class="st4">
			<line class="st5" x1="7.6" y1="-0.1" x2="7.6" y2="250.7"/>
			<line class="st5" x1="16.6" y1="-0.6" x2="16.6" y2="250.2"/>
			<line class="st5" x1="25.8" y1="-0.2" x2="25.8" y2="250.6"/>
			<line class="st5" x1="34.7" y1="-0.5" x2="34.7" y2="250.3"/>
			<line class="st5" x1="44" y1="-0.1" x2="44" y2="250.7"/>
			<line class="st5" x1="53.5" y1="-0.6" x2="53.5" y2="250.2"/>
			<line class="st5" x1="62.8" y1="-0.1" x2="62.8" y2="250.6"/>
			<line class="st5" x1="71.7" y1="-0.4" x2="71.7" y2="250.3"/>
			<line class="st5" x1="80.9" y1="0" x2="80.9" y2="250.7"/>
			<line class="st5" x1="90" y1="-0.6" x2="90" y2="250.2"/>
			<line class="st5" x1="99.3" y1="-0.2" x2="99.3" y2="250.6"/>
			<line class="st5" x1="108.2" y1="-0.5" x2="108.2" y2="250.3"/>
			<line class="st5" x1="117.4" y1="-0.1" x2="117.4" y2="250.7"/>
			<line class="st5" x1="126.9" y1="-0.6" x2="126.9" y2="250.2"/>
			<line class="st5" x1="136.2" y1="-0.1" x2="136.2" y2="250.6"/>
			<line class="st5" x1="145.1" y1="-0.4" x2="145.1" y2="250.3"/>
			<line class="st5" x1="154.4" y1="0" x2="154.4" y2="250.7"/>
			<line class="st5" x1="169.8" y1="21.2" x2="-81" y2="21.2"/>
			<line class="st5" x1="169.3" y1="30.5" x2="-81.4" y2="30.5"/>
			<line class="st5" x1="169.6" y1="39.4" x2="-81.1" y2="39.4"/>
			<line class="st5" x1="169.2" y1="48.7" x2="-81.5" y2="48.7"/>
			<line class="st5" x1="169.7" y1="58.2" x2="-81.1" y2="58.2"/>
			<line class="st5" x1="169.3" y1="67.5" x2="-81.5" y2="67.5"/>
			<line class="st5" x1="169.6" y1="76.3" x2="-81.2" y2="76.3"/>
			<line class="st5" x1="169.2" y1="85.6" x2="-81.6" y2="85.6"/>
			<line class="st5" x1="169.7" y1="94.6" x2="-81" y2="94.6"/>
			<line class="st5" x1="169.3" y1="103.9" x2="-81.5" y2="103.9"/>
			<line class="st5" x1="169.6" y1="112.7" x2="-81.1" y2="112.7"/>
			<line class="st5" x1="169.2" y1="122" x2="-81.6" y2="122"/>
			<line class="st5" x1="169.7" y1="131.5" x2="-81.1" y2="131.5"/>
			<line class="st5" x1="169.2" y1="140.8" x2="-81.5" y2="140.8"/>
			<line class="st5" x1="169.6" y1="149.7" x2="-81.2" y2="149.7"/>
			<line class="st5" x1="169.1" y1="159" x2="-81.6" y2="159"/>
			<line class="st5" x1="169.7" y1="168" x2="-81" y2="168"/>
			<line class="st5" x1="169.3" y1="177.3" x2="-81.5" y2="177.3"/>
		</g>
	</g>
</g>
<path class="st6" d="M53.8,47.7h71c1.5,0,2.8,1.3,2.8,2.8c0,0,0,0,0,0v96.4c0,1.5-1.3,2.8-2.8,2.8h0h-71c-1.5,0-2.8-1.3-2.8-2.8l0,0
	V50.5C51.1,49,52.3,47.8,53.8,47.7z"/>
<rect x="51.1" y="47.7" class="st7" width="76.5" height="102"/>
<g>
	<path class="st8" d="M41.4,8.3C41.2,8.1,41,8,40.8,7.9c-0.3-0.1-0.5-0.2-0.9-0.2c-0.5,0-0.8,0.1-1,0.3c-0.2,0.2-0.3,0.4-0.3,0.7
		c0,0.2,0,0.3,0.1,0.4s0.1,0.2,0.3,0.3c0.1,0.1,0.3,0.1,0.5,0.2c0.2,0.1,0.4,0.1,0.7,0.2c0.3,0.1,0.5,0.1,0.8,0.2
		c0.2,0.1,0.4,0.2,0.6,0.3c0.2,0.1,0.3,0.2,0.4,0.4c0.1,0.2,0.1,0.4,0.1,0.6c0,0.2,0,0.5-0.1,0.6c-0.1,0.2-0.2,0.3-0.4,0.4
		s-0.4,0.2-0.6,0.3c-0.2,0.1-0.5,0.1-0.8,0.1c-0.8,0-1.5-0.3-2.1-0.8l0.3-0.4c0.2,0.2,0.5,0.4,0.8,0.5c0.3,0.1,0.7,0.2,1.1,0.2
		c0.4,0,0.8-0.1,1-0.2c0.2-0.2,0.4-0.4,0.4-0.7c0-0.2,0-0.3-0.1-0.4c-0.1-0.1-0.2-0.2-0.3-0.3c-0.1-0.1-0.3-0.2-0.5-0.2
		c-0.2-0.1-0.4-0.1-0.7-0.2c-0.3-0.1-0.5-0.1-0.7-0.2s-0.4-0.2-0.5-0.3s-0.2-0.2-0.3-0.4C38.1,9.2,38,9,38,8.8c0-0.2,0-0.5,0.1-0.7
		s0.2-0.4,0.4-0.5s0.4-0.2,0.6-0.3c0.2-0.1,0.5-0.1,0.8-0.1c0.4,0,0.7,0.1,0.9,0.2c0.3,0.1,0.5,0.3,0.8,0.5L41.4,8.3z"/>
	<path class="st8" d="M46,12.6h-0.5v-2.2c0-0.4-0.1-0.8-0.2-1c-0.2-0.2-0.4-0.3-0.7-0.3c-0.1,0-0.3,0-0.4,0.1
		c-0.1,0.1-0.3,0.1-0.4,0.2s-0.2,0.2-0.3,0.4c-0.1,0.1-0.2,0.3-0.2,0.4v2.4h-0.5V7.2h0.5v2.5c0.2-0.3,0.4-0.5,0.7-0.7
		c0.3-0.2,0.6-0.3,0.9-0.3c0.2,0,0.4,0,0.6,0.1c0.2,0.1,0.3,0.2,0.4,0.3s0.2,0.3,0.2,0.5s0.1,0.4,0.1,0.7V12.6z"/>
	<path class="st8" d="M48.7,12.7c-0.3,0-0.5-0.1-0.8-0.2s-0.4-0.3-0.6-0.4c-0.2-0.2-0.3-0.4-0.4-0.6c-0.1-0.2-0.1-0.5-0.1-0.8
		c0-0.3,0-0.5,0.1-0.8c0.1-0.2,0.2-0.5,0.4-0.6c0.2-0.2,0.4-0.3,0.6-0.4c0.2-0.1,0.5-0.2,0.8-0.2c0.3,0,0.5,0.1,0.8,0.2
		s0.4,0.3,0.6,0.4c0.2,0.2,0.3,0.4,0.4,0.6c0.1,0.2,0.1,0.5,0.1,0.8c0,0.3,0,0.5-0.1,0.8s-0.2,0.5-0.4,0.6c-0.2,0.2-0.4,0.3-0.6,0.4
		S49,12.7,48.7,12.7z M47.3,10.7c0,0.2,0,0.4,0.1,0.6c0.1,0.2,0.2,0.4,0.3,0.5s0.3,0.3,0.5,0.3c0.2,0.1,0.4,0.1,0.6,0.1
		s0.4,0,0.6-0.1s0.3-0.2,0.5-0.3c0.1-0.1,0.2-0.3,0.3-0.5s0.1-0.4,0.1-0.6c0-0.2,0-0.4-0.1-0.6c-0.1-0.2-0.2-0.4-0.3-0.5
		c-0.1-0.1-0.3-0.3-0.4-0.3c-0.2-0.1-0.4-0.1-0.5-0.1c-0.2,0-0.4,0-0.6,0.1c-0.2,0.1-0.3,0.2-0.4,0.3s-0.2,0.3-0.3,0.5
		C47.4,10.3,47.3,10.5,47.3,10.7z"/>
	<path class="st8" d="M56.3,8.7h0.5l-1.7,3.9h-0.4l-0.8-2l-0.8,2h-0.4l-1.7-3.9h0.5l1.4,3.4l0.7-1.8l-0.7-1.6h0.4l0.5,1.3l0.5-1.3
		h0.4l-0.7,1.6l0.7,1.8L56.3,8.7z"/>
	<path class="st8" d="M60.8,12.6h-0.5v-2.2c0-0.5-0.1-0.8-0.2-1c-0.1-0.2-0.3-0.3-0.6-0.3c-0.2,0-0.3,0-0.5,0.1
		c-0.1,0.1-0.3,0.1-0.4,0.2c-0.1,0.1-0.2,0.2-0.3,0.4c-0.1,0.1-0.2,0.3-0.2,0.4v2.4h-0.5V8.7h0.5v0.9c0.1-0.1,0.2-0.3,0.3-0.4
		c0.1-0.1,0.2-0.2,0.4-0.3s0.3-0.1,0.5-0.2c0.2,0,0.3-0.1,0.5-0.1c0.2,0,0.4,0,0.6,0.1s0.3,0.2,0.4,0.3c0.1,0.1,0.2,0.3,0.2,0.5
		s0.1,0.4,0.1,0.7V12.6z"/>
	<path class="st8" d="M65.4,12.7c-0.3,0-0.5-0.1-0.8-0.2s-0.4-0.3-0.6-0.4c-0.2-0.2-0.3-0.4-0.4-0.6c-0.1-0.2-0.1-0.5-0.1-0.8
		c0-0.3,0-0.5,0.1-0.8c0.1-0.2,0.2-0.5,0.4-0.6c0.2-0.2,0.4-0.3,0.6-0.4c0.2-0.1,0.5-0.2,0.8-0.2c0.3,0,0.5,0.1,0.8,0.2
		s0.4,0.3,0.6,0.4c0.2,0.2,0.3,0.4,0.4,0.6c0.1,0.2,0.1,0.5,0.1,0.8c0,0.3,0,0.5-0.1,0.8s-0.2,0.5-0.4,0.6c-0.2,0.2-0.4,0.3-0.6,0.4
		S65.7,12.7,65.4,12.7z M64,10.7c0,0.2,0,0.4,0.1,0.6c0.1,0.2,0.2,0.4,0.3,0.5s0.3,0.3,0.5,0.3c0.2,0.1,0.4,0.1,0.6,0.1
		s0.4,0,0.6-0.1s0.3-0.2,0.5-0.3c0.1-0.1,0.2-0.3,0.3-0.5s0.1-0.4,0.1-0.6c0-0.2,0-0.4-0.1-0.6c-0.1-0.2-0.2-0.4-0.3-0.5
		c-0.1-0.1-0.3-0.3-0.4-0.3c-0.2-0.1-0.4-0.1-0.5-0.1c-0.2,0-0.4,0-0.6,0.1c-0.2,0.1-0.3,0.2-0.4,0.3s-0.2,0.3-0.3,0.5
		C64.1,10.3,64,10.5,64,10.7z"/>
	<path class="st8" d="M71.5,12.6H71v-2.2c0-0.5-0.1-0.8-0.2-1c-0.1-0.2-0.3-0.3-0.6-0.3c-0.2,0-0.3,0-0.5,0.1
		c-0.1,0.1-0.3,0.1-0.4,0.2c-0.1,0.1-0.2,0.2-0.3,0.4c-0.1,0.1-0.2,0.3-0.2,0.4v2.4h-0.5V8.7h0.5v0.9c0.1-0.1,0.2-0.3,0.3-0.4
		c0.1-0.1,0.2-0.2,0.4-0.3s0.3-0.1,0.5-0.2c0.2,0,0.3-0.1,0.5-0.1c0.2,0,0.4,0,0.6,0.1s0.3,0.2,0.4,0.3c0.1,0.1,0.2,0.3,0.2,0.5
		s0.1,0.4,0.1,0.7V12.6z"/>
	<path class="st8" d="M78.2,7.8h-1.9v4.9h-0.5V7.8h-1.9V7.3h4.3V7.8z"/>
	<path class="st8" d="M83.3,8.7h0.5l-1.7,3.9h-0.4l-0.8-2l-0.8,2h-0.4l-1.7-3.9h0.5l1.4,3.4l0.7-1.8l-0.7-1.6h0.4l0.5,1.3l0.5-1.3
		h0.4l-0.7,1.6l0.7,1.8L83.3,8.7z"/>
	<path class="st8" d="M84.4,7.9V7.2h0.5v0.8H84.4z M84.4,12.6V8.7h0.5v3.9H84.4z"/>
	<path class="st8" d="M89.3,12.6h-0.5v-2.2c0-0.5-0.1-0.8-0.2-1c-0.1-0.2-0.3-0.3-0.6-0.3c-0.2,0-0.3,0-0.5,0.1
		c-0.1,0.1-0.3,0.1-0.4,0.2c-0.1,0.1-0.2,0.2-0.3,0.4c-0.1,0.1-0.2,0.3-0.2,0.4v2.4H86V8.7h0.5v0.9c0.1-0.1,0.2-0.3,0.3-0.4
		C86.9,9.1,87,9,87.2,8.9s0.3-0.1,0.5-0.2c0.2,0,0.3-0.1,0.5-0.1c0.2,0,0.4,0,0.6,0.1S89,9,89,9.1c0.1,0.1,0.2,0.3,0.2,0.5
		s0.1,0.4,0.1,0.7V12.6z"/>
	<path class="st8" d="M96.4,11.3c0,0.2,0,0.4-0.1,0.6c-0.1,0.2-0.2,0.3-0.3,0.4c-0.1,0.1-0.3,0.2-0.5,0.3c-0.2,0.1-0.4,0.1-0.6,0.1
		h-2.5V7.3H95c0.2,0,0.4,0,0.5,0.1c0.2,0.1,0.3,0.2,0.4,0.3C96,7.9,96,8,96.1,8.2c0.1,0.2,0.1,0.3,0.1,0.5c0,0.3-0.1,0.5-0.2,0.7
		c-0.1,0.2-0.3,0.4-0.6,0.5c0.3,0.1,0.5,0.3,0.7,0.5C96.3,10.7,96.4,10.9,96.4,11.3z M92.9,7.8v2h1.8c0.1,0,0.3,0,0.4-0.1
		s0.2-0.1,0.3-0.2c0.1-0.1,0.1-0.2,0.2-0.3s0.1-0.2,0.1-0.4c0-0.1,0-0.3-0.1-0.4c0-0.1-0.1-0.2-0.2-0.3s-0.2-0.2-0.3-0.2
		c-0.1-0.1-0.2-0.1-0.3-0.1H92.9z M95.9,11.2c0-0.1,0-0.3-0.1-0.4s-0.1-0.2-0.2-0.3c-0.1-0.1-0.2-0.2-0.3-0.2
		c-0.1-0.1-0.2-0.1-0.4-0.1h-2v2h2c0.1,0,0.3,0,0.4-0.1c0.1-0.1,0.2-0.1,0.3-0.2c0.1-0.1,0.2-0.2,0.2-0.3
		C95.9,11.4,95.9,11.3,95.9,11.2z"/>
	<path class="st8" d="M99,12.7c-0.3,0-0.5-0.1-0.8-0.2c-0.2-0.1-0.4-0.3-0.6-0.4s-0.3-0.4-0.4-0.6C97.1,11.2,97,11,97,10.7
		c0-0.3,0-0.5,0.1-0.8c0.1-0.2,0.2-0.5,0.4-0.6c0.2-0.2,0.4-0.3,0.6-0.4c0.2-0.1,0.5-0.2,0.8-0.2s0.5,0.1,0.8,0.2
		c0.2,0.1,0.4,0.3,0.6,0.4s0.3,0.4,0.4,0.6c0.1,0.2,0.1,0.5,0.1,0.8c0,0,0,0.1,0,0.1c0,0,0,0.1,0,0.1h-3.3c0,0.2,0.1,0.4,0.1,0.6
		c0.1,0.2,0.2,0.3,0.3,0.5s0.3,0.2,0.4,0.3c0.2,0.1,0.3,0.1,0.5,0.1c0.1,0,0.3,0,0.4-0.1c0.1,0,0.2-0.1,0.3-0.1
		c0.1-0.1,0.2-0.1,0.3-0.2c0.1-0.1,0.1-0.2,0.2-0.3l0.4,0.1c-0.1,0.1-0.1,0.3-0.3,0.4c-0.1,0.1-0.2,0.2-0.4,0.3
		c-0.1,0.1-0.3,0.2-0.5,0.2C99.4,12.7,99.2,12.7,99,12.7z M100.4,10.5c0-0.2-0.1-0.4-0.1-0.6c-0.1-0.2-0.2-0.3-0.3-0.4
		c-0.1-0.1-0.3-0.2-0.4-0.3c-0.2-0.1-0.3-0.1-0.5-0.1c-0.2,0-0.4,0-0.5,0.1c-0.2,0.1-0.3,0.2-0.4,0.3c-0.1,0.1-0.2,0.3-0.3,0.5
		c-0.1,0.2-0.1,0.4-0.1,0.6H100.4z"/>
	<path class="st8" d="M103.3,12.7c-0.3,0-0.5-0.1-0.8-0.2c-0.2-0.1-0.4-0.3-0.6-0.4c-0.2-0.2-0.3-0.4-0.4-0.6s-0.1-0.5-0.1-0.8
		c0-0.3,0-0.5,0.1-0.8s0.2-0.5,0.4-0.6s0.3-0.3,0.6-0.4c0.2-0.1,0.5-0.2,0.7-0.2c0.3,0,0.6,0.1,0.9,0.3s0.5,0.4,0.6,0.6V7.2h0.5V12
		c0,0.1,0.1,0.2,0.2,0.2v0.5c-0.1,0-0.2,0-0.2,0c-0.1,0-0.2,0-0.3-0.1c-0.1-0.1-0.1-0.2-0.1-0.3v-0.4c-0.2,0.3-0.4,0.5-0.6,0.6
		S103.6,12.7,103.3,12.7z M103.4,12.3c0.1,0,0.3,0,0.4-0.1c0.1,0,0.3-0.1,0.4-0.2c0.1-0.1,0.2-0.2,0.3-0.3c0.1-0.1,0.1-0.2,0.2-0.4
		v-1.2c0-0.1-0.1-0.3-0.2-0.4s-0.2-0.2-0.3-0.3c-0.1-0.1-0.3-0.2-0.4-0.2c-0.1,0-0.3-0.1-0.4-0.1c-0.2,0-0.4,0-0.6,0.1
		c-0.2,0.1-0.3,0.2-0.4,0.4s-0.2,0.3-0.3,0.5s-0.1,0.4-0.1,0.6c0,0.2,0,0.4,0.1,0.6c0.1,0.2,0.2,0.4,0.3,0.5
		c0.1,0.1,0.3,0.3,0.5,0.3C103,12.2,103.2,12.3,103.4,12.3z"/>
	<path class="st8" d="M108.1,10c0-0.3,0-0.5,0.1-0.8s0.1-0.5,0.2-0.7c0.1-0.2,0.2-0.5,0.3-0.7c0.1-0.2,0.3-0.5,0.4-0.7l0.4,0.2
		c-0.1,0.1-0.2,0.3-0.3,0.6c-0.1,0.2-0.2,0.5-0.3,0.7c-0.1,0.3-0.2,0.5-0.2,0.8c-0.1,0.3-0.1,0.5-0.1,0.8c0,0.4,0.1,0.8,0.3,1.3
		c0.2,0.5,0.4,0.9,0.7,1.4l-0.4,0.2c-0.3-0.5-0.6-0.9-0.8-1.4C108.2,11,108.1,10.5,108.1,10z"/>
	<path class="st8" d="M111.9,12.7c-0.2,0-0.5,0-0.7-0.1s-0.4-0.1-0.5-0.3c-0.2-0.1-0.3-0.2-0.4-0.4c-0.1-0.2-0.2-0.3-0.2-0.5
		l0.3-0.3c0,0.1,0.1,0.3,0.1,0.4s0.2,0.2,0.3,0.3c0.1,0.1,0.3,0.2,0.5,0.2c0.2,0.1,0.4,0.1,0.6,0.1c0.2,0,0.4,0,0.5-0.1
		c0.2-0.1,0.3-0.1,0.4-0.2c0.1-0.1,0.2-0.2,0.3-0.3s0.1-0.3,0.1-0.4c0-0.2,0-0.3-0.1-0.4c-0.1-0.1-0.2-0.2-0.3-0.3
		c-0.2-0.1-0.3-0.2-0.5-0.2s-0.4-0.1-0.7-0.1h-0.3V9.7h0.3c0.5,0,0.9-0.1,1.2-0.2c0.3-0.2,0.4-0.4,0.4-0.7c0-0.2,0-0.3-0.1-0.4
		c-0.1-0.1-0.2-0.2-0.3-0.3c-0.1-0.1-0.2-0.2-0.4-0.2c-0.1-0.1-0.3-0.1-0.5-0.1c-0.3,0-0.6,0.1-0.8,0.2c-0.2,0.1-0.4,0.3-0.5,0.5
		l-0.4-0.3c0.1-0.1,0.2-0.3,0.3-0.4c0.1-0.1,0.2-0.2,0.4-0.3c0.1-0.1,0.3-0.1,0.5-0.2c0.2,0,0.3-0.1,0.5-0.1c0.3,0,0.5,0,0.7,0.1
		c0.2,0.1,0.4,0.2,0.6,0.3s0.3,0.3,0.4,0.5s0.1,0.4,0.1,0.6c0,0.3-0.1,0.6-0.3,0.8c-0.2,0.2-0.4,0.3-0.8,0.4c0.2,0,0.3,0.1,0.5,0.2
		c0.1,0.1,0.3,0.2,0.4,0.3c0.1,0.1,0.2,0.3,0.2,0.4s0.1,0.3,0.1,0.5c0,0.2-0.1,0.4-0.2,0.6c-0.1,0.2-0.2,0.3-0.4,0.5
		s-0.4,0.2-0.6,0.3C112.4,12.7,112.2,12.7,111.9,12.7z"/>
	<path class="st8" d="M118.2,11.2c0,0.2-0.1,0.4-0.2,0.6s-0.2,0.3-0.4,0.5c-0.2,0.1-0.4,0.2-0.6,0.3s-0.5,0.1-0.7,0.1
		c-0.3,0-0.5,0-0.7-0.1c-0.2-0.1-0.4-0.2-0.6-0.3c-0.2-0.1-0.3-0.3-0.4-0.5s-0.1-0.4-0.1-0.6c0-0.2,0-0.3,0.1-0.5s0.1-0.3,0.2-0.4
		s0.2-0.2,0.3-0.3c0.1-0.1,0.3-0.1,0.4-0.2c-0.1,0-0.2-0.1-0.3-0.2c-0.1-0.1-0.2-0.2-0.3-0.3c-0.1-0.1-0.1-0.2-0.2-0.3
		c0-0.1-0.1-0.2-0.1-0.4c0-0.2,0.1-0.4,0.2-0.6s0.2-0.3,0.4-0.4c0.2-0.1,0.3-0.2,0.5-0.3s0.4-0.1,0.6-0.1c0.2,0,0.4,0,0.6,0.1
		s0.4,0.1,0.5,0.3c0.2,0.1,0.3,0.3,0.4,0.4c0.1,0.2,0.1,0.4,0.1,0.6c0,0.1,0,0.3-0.1,0.4c0,0.1-0.1,0.2-0.2,0.3
		c-0.1,0.1-0.2,0.2-0.3,0.3s-0.2,0.1-0.3,0.2c0.1,0.1,0.3,0.1,0.4,0.2s0.2,0.2,0.3,0.3c0.1,0.1,0.2,0.2,0.2,0.4
		C118.2,10.8,118.2,11,118.2,11.2z M117.7,11.1c0-0.2,0-0.3-0.1-0.5s-0.2-0.3-0.3-0.3c-0.1-0.1-0.3-0.2-0.4-0.2
		c-0.2,0-0.3-0.1-0.5-0.1c-0.2,0-0.3,0-0.5,0.1c-0.2,0.1-0.3,0.1-0.4,0.2c-0.1,0.1-0.2,0.2-0.3,0.4c-0.1,0.1-0.1,0.3-0.1,0.5
		c0,0.2,0,0.3,0.1,0.5c0.1,0.1,0.2,0.3,0.3,0.3c0.1,0.1,0.3,0.2,0.4,0.2c0.2,0.1,0.3,0.1,0.5,0.1s0.3,0,0.5-0.1
		c0.2-0.1,0.3-0.1,0.4-0.2s0.2-0.2,0.3-0.4C117.7,11.5,117.7,11.3,117.7,11.1z M115.2,8.7c0,0.1,0,0.3,0.1,0.4
		c0.1,0.1,0.2,0.2,0.3,0.3c0.1,0.1,0.2,0.1,0.4,0.2c0.1,0,0.3,0.1,0.4,0.1c0.1,0,0.3,0,0.4-0.1s0.3-0.1,0.4-0.2
		c0.1-0.1,0.2-0.2,0.3-0.3c0.1-0.1,0.1-0.2,0.1-0.4c0-0.1,0-0.3-0.1-0.4c-0.1-0.1-0.2-0.2-0.3-0.3c-0.1-0.1-0.2-0.1-0.4-0.2
		s-0.3-0.1-0.4-0.1c-0.2,0-0.3,0-0.4,0.1S115.7,8,115.6,8c-0.1,0.1-0.2,0.2-0.3,0.3C115.3,8.4,115.2,8.6,115.2,8.7z"/>
	<path class="st8" d="M119,7.2c0.1,0,0.1,0,0.2,0c0.1,0,0.1,0,0.2,0.1c0.1,0,0.1,0.1,0.1,0.1s0.1,0.1,0.1,0.2v0.9h-0.4V7.7
		c0-0.1,0-0.1-0.1-0.1c0,0-0.1,0-0.1,0V7.2z M120,7.2c0.1,0,0.1,0,0.2,0c0.1,0,0.1,0,0.2,0.1c0.1,0,0.1,0.1,0.1,0.1s0.1,0.1,0.1,0.2
		v0.9h-0.4V7.7c0-0.1,0-0.1-0.1-0.1c0,0-0.1,0-0.1,0V7.2z"/>
	<path class="st8" d="M123.6,8.7l1.2,1.5l0.1,0.1l0.1-0.1l1.2-1.5h0.5l-1.5,2l1.5,1.9h-0.5l-1.2-1.5l-0.1-0.1l-0.1,0.1l-1.2,1.5
		h-0.6l1.5-1.9l-1.5-2H123.6z"/>
	<path class="st8" d="M131.8,7.8h-2.9V7.3h3.7l-2.7,5.3h-0.6L131.8,7.8z"/>
	<path class="st8" d="M134.7,9.3c0.2,0,0.5,0,0.7,0.1s0.4,0.2,0.5,0.3c0.2,0.2,0.3,0.3,0.4,0.5s0.1,0.4,0.1,0.7c0,0.3,0,0.5-0.1,0.7
		c-0.1,0.2-0.2,0.4-0.4,0.6c-0.2,0.2-0.4,0.3-0.6,0.4c-0.2,0.1-0.5,0.1-0.7,0.1c-0.4,0-0.7-0.1-1-0.3c-0.3-0.2-0.5-0.4-0.7-0.8
		l0.3-0.3c0.1,0.2,0.3,0.4,0.6,0.6s0.5,0.2,0.8,0.2c0.2,0,0.4,0,0.5-0.1s0.3-0.1,0.4-0.3c0.1-0.1,0.2-0.2,0.3-0.4
		c0.1-0.2,0.1-0.3,0.1-0.5c0-0.2,0-0.4-0.1-0.5c-0.1-0.2-0.2-0.3-0.3-0.4c-0.1-0.1-0.2-0.2-0.4-0.3c-0.2-0.1-0.3-0.1-0.5-0.1
		c-0.2,0-0.5,0.1-0.7,0.2s-0.4,0.3-0.5,0.4H133c0,0,0-0.1,0-0.2c0-0.1,0-0.2,0.1-0.4c0-0.1,0.1-0.3,0.1-0.5c0-0.2,0.1-0.4,0.1-0.5
		c0.1-0.4,0.2-0.9,0.3-1.4h2.6v0.5H134l-0.4,1.9c0.1-0.1,0.3-0.3,0.5-0.3S134.5,9.3,134.7,9.3z"/>
	<path class="st8" d="M137.2,7.2c0.1,0,0.1,0,0.2,0c0.1,0,0.1,0,0.2,0.1c0.1,0,0.1,0.1,0.1,0.1s0.1,0.1,0.1,0.2v0.9h-0.4V7.7
		c0-0.1,0-0.1-0.1-0.1c0,0-0.1,0-0.1,0V7.2z M138.1,7.2c0.1,0,0.1,0,0.2,0c0.1,0,0.1,0,0.2,0.1c0.1,0,0.1,0.1,0.1,0.1
		s0.1,0.1,0.1,0.2v0.9h-0.4V7.7c0-0.1,0-0.1-0.1-0.1c0,0-0.1,0-0.1,0V7.2z"/>
	<path class="st8" d="M140.9,10c0,0.5-0.1,1-0.3,1.4c-0.2,0.5-0.4,1-0.8,1.4l-0.4-0.2c0.3-0.5,0.5-0.9,0.7-1.4
		c0.2-0.5,0.3-0.9,0.3-1.3c0-0.2,0-0.5-0.1-0.8c-0.1-0.3-0.1-0.5-0.2-0.8c-0.1-0.2-0.2-0.5-0.3-0.7c-0.1-0.2-0.2-0.4-0.3-0.6
		l0.4-0.2c0.1,0.2,0.3,0.5,0.4,0.7c0.1,0.2,0.2,0.5,0.3,0.7c0.1,0.2,0.2,0.5,0.2,0.7C140.9,9.5,140.9,9.8,140.9,10z"/>
</g>
</svg>
