<?xml version="1.0" encoding="utf-8"?>
<!-- Generator: Adobe Illustrator 24.0.3, SVG Export Plug-In . SVG Version: 6.00 Build 0)  -->
<svg version="1.1" id="Layer_1" xmlns="http://www.w3.org/2000/svg" xmlns:xlink="http://www.w3.org/1999/xlink" x="0px" y="0px"
	 viewBox="0 0 180 180" style="enable-background:new 0 0 180 180;" xml:space="preserve">
<style type="text/css">
	.st0{opacity:0.9;}
	.st1{clip-path:url(#SVGID_2_);}
	.st2{fill:none;stroke:#F05C5A;stroke-width:8.000000e-02;stroke-miterlimit:10;stroke-dasharray:1.56,1.56;}
	.st3{fill:none;stroke:#F05C5A;stroke-width:0.94;stroke-linecap:round;stroke-linejoin:round;}
	.st4{opacity:0.2;}
	.st5{fill:#FAFAF9;stroke:#000000;stroke-width:1.02;stroke-miterlimit:10;}
	.st6{fill:#231F20;}
</style>
<title>XL on Queen Bed-01</title>
<g class="st0">
	<g>
		<defs>
			<rect id="SVGID_1_" x="4.9" y="24.1" width="169.3" height="144.6"/>
		</defs>
		<clipPath id="SVGID_2_">
			<use xlink:href="#SVGID_1_"  style="overflow:visible;"/>
		</clipPath>
		<g class="st1">
			<line class="st2" x1="3.6" y1="7.3" x2="3.6" y2="239"/>
			<line class="st2" x1="12.2" y1="7.7" x2="12.2" y2="239.4"/>
			<line class="st2" x1="20.4" y1="7.4" x2="20.4" y2="239.1"/>
			<line class="st2" x1="28.9" y1="7.8" x2="28.9" y2="239.5"/>
			<line class="st2" x1="37.2" y1="7.3" x2="37.2" y2="239"/>
			<line class="st2" x1="45.8" y1="7.7" x2="45.8" y2="239.4"/>
			<line class="st2" x1="54" y1="7.4" x2="54" y2="239.1"/>
			<line class="st2" x1="62.6" y1="7.8" x2="62.6" y2="239.4"/>
			<line class="st2" x1="71.3" y1="7.3" x2="71.3" y2="239"/>
			<line class="st2" x1="79.9" y1="7.7" x2="79.9" y2="239.4"/>
			<line class="st2" x1="88.1" y1="7.4" x2="88.1" y2="239.1"/>
			<line class="st2" x1="96.7" y1="7.8" x2="96.7" y2="239.5"/>
			<line class="st2" x1="105.1" y1="7.3" x2="105.1" y2="239"/>
			<line class="st2" x1="113.7" y1="7.7" x2="113.7" y2="239.4"/>
			<line class="st2" x1="121.9" y1="7.4" x2="121.9" y2="239.1"/>
			<line class="st2" x1="130.4" y1="7.8" x2="130.4" y2="239.4"/>
			<line class="st2" x1="139.2" y1="7.3" x2="139.2" y2="239"/>
			<line class="st2" x1="147.8" y1="7.7" x2="147.8" y2="239.4"/>
			<line class="st2" x1="156" y1="7.4" x2="156" y2="239.1"/>
			<line class="st2" x1="164.6" y1="7.8" x2="164.6" y2="239.5"/>
			<line class="st2" x1="178.8" y1="27.5" x2="-52.9" y2="27.5"/>
			<line class="st2" x1="178.4" y1="36" x2="-53.3" y2="36"/>
			<line class="st2" x1="178.7" y1="44.2" x2="-53" y2="44.2"/>
			<line class="st2" x1="178.3" y1="52.8" x2="-53.4" y2="52.8"/>
			<line class="st2" x1="178.7" y1="61.6" x2="-53" y2="61.6"/>
			<line class="st2" x1="178.3" y1="70.2" x2="-53.4" y2="70.2"/>
			<line class="st2" x1="178.6" y1="78.4" x2="-53.1" y2="78.4"/>
			<line class="st2" x1="178.2" y1="86.9" x2="-53.5" y2="86.9"/>
			<line class="st2" x1="178.7" y1="95.2" x2="-53" y2="95.2"/>
			<line class="st2" x1="178.3" y1="103.8" x2="-53.3" y2="103.8"/>
			<line class="st2" x1="178.6" y1="112" x2="-53" y2="112"/>
			<line class="st2" x1="178.2" y1="120.6" x2="-53.4" y2="120.6"/>
			<line class="st2" x1="178.7" y1="129.4" x2="-53" y2="129.4"/>
			<line class="st2" x1="178.3" y1="137.9" x2="-53.4" y2="137.9"/>
			<line class="st2" x1="178.6" y1="146.1" x2="-53.1" y2="146.1"/>
			<line class="st2" x1="178.2" y1="154.7" x2="-53.5" y2="154.7"/>
			<line class="st2" x1="178.7" y1="163.1" x2="-53" y2="163.1"/>
			<line class="st2" x1="178.3" y1="171.7" x2="-53.3" y2="171.7"/>
			<line class="st2" x1="178.6" y1="179.9" x2="-53" y2="179.9"/>
		</g>
	</g>
</g>
<path class="st3" d="M10.3,24.1h159.4c2.7,0,4.9,2.2,4.9,4.9v134.4c0,2.7-2.2,4.9-4.9,4.9H10.3c-2.7,0-4.8-2.2-4.8-4.8
	c0,0,0,0,0-0.1V28.9c0-2.6,2.1-4.8,4.7-4.8C10.2,24.1,10.3,24.1,10.3,24.1z"/>
<g class="st4">
	<path class="st5" d="M44.3,18.5h90.5c3,0,5.4,2.4,5.4,5.4c0,0,0,0,0,0v123c0,3-2.4,5.4-5.4,5.4c0,0,0,0,0,0H44.3
		c-3,0-5.4-2.4-5.4-5.4c0,0,0,0,0,0v-123C38.9,20.9,41.3,18.5,44.3,18.5C44.3,18.5,44.3,18.5,44.3,18.5z"/>
	<path class="st5" d="M93.7,20.6h41.5c1.6,0,2.9,1.3,2.9,2.9v27.7c0,1.6-1.3,2.9-2.9,2.9H93.7c-1.6,0-2.9-1.3-2.9-2.9c0,0,0,0,0,0
		V23.5C90.8,21.9,92.1,20.6,93.7,20.6L93.7,20.6z"/>
	<path class="st5" d="M44,20.6h41.5c1.6,0,2.9,1.3,2.9,2.9l0,0v27.7c0,1.6-1.3,2.9-2.9,2.9l0,0H44c-1.6,0-2.9-1.3-2.9-2.9
		c0,0,0,0,0,0V23.5C41.1,21.9,42.4,20.6,44,20.6L44,20.6z"/>
</g>
<g>
	<path class="st6" d="M36.5,8.3c-0.2-0.2-0.4-0.3-0.6-0.4S35.3,7.7,35,7.7c-0.5,0-0.8,0.1-1,0.3c-0.2,0.2-0.3,0.4-0.3,0.7
		c0,0.2,0,0.3,0.1,0.4c0.1,0.1,0.1,0.2,0.3,0.3c0.1,0.1,0.3,0.1,0.5,0.2c0.2,0.1,0.4,0.1,0.7,0.2c0.3,0.1,0.5,0.1,0.8,0.2
		s0.4,0.2,0.6,0.3c0.2,0.1,0.3,0.3,0.4,0.4c0.1,0.2,0.1,0.4,0.1,0.6c0,0.2,0,0.5-0.1,0.6c-0.1,0.2-0.2,0.3-0.4,0.5s-0.4,0.2-0.6,0.3
		c-0.2,0.1-0.5,0.1-0.8,0.1c-0.8,0-1.6-0.3-2.2-0.8l0.3-0.4c0.2,0.2,0.5,0.4,0.8,0.5c0.3,0.1,0.7,0.2,1.1,0.2c0.4,0,0.8-0.1,1-0.2
		c0.2-0.2,0.4-0.4,0.4-0.7c0-0.2,0-0.3-0.1-0.4c-0.1-0.1-0.2-0.2-0.3-0.3c-0.1-0.1-0.3-0.2-0.5-0.2s-0.4-0.1-0.7-0.2
		c-0.3-0.1-0.5-0.1-0.7-0.2c-0.2-0.1-0.4-0.2-0.5-0.3c-0.1-0.1-0.3-0.2-0.3-0.4c-0.1-0.1-0.1-0.3-0.1-0.5c0-0.2,0-0.5,0.1-0.7
		c0.1-0.2,0.2-0.4,0.4-0.5c0.2-0.1,0.4-0.2,0.6-0.3c0.2-0.1,0.5-0.1,0.8-0.1c0.4,0,0.7,0.1,1,0.2c0.3,0.1,0.5,0.3,0.8,0.5L36.5,8.3z
		"/>
	<path class="st6" d="M41.1,12.7h-0.5v-2.2c0-0.4-0.1-0.8-0.2-1S40,9.1,39.7,9.1c-0.1,0-0.3,0-0.4,0.1c-0.1,0.1-0.3,0.1-0.4,0.2
		c-0.1,0.1-0.2,0.2-0.3,0.4s-0.2,0.3-0.2,0.4v2.4h-0.5V7.2h0.5v2.5c0.2-0.3,0.4-0.5,0.7-0.7c0.3-0.2,0.6-0.3,0.9-0.3
		c0.2,0,0.4,0,0.6,0.1c0.2,0.1,0.3,0.2,0.4,0.3C40.9,9.3,41,9.5,41,9.7s0.1,0.4,0.1,0.7V12.7z"/>
	<path class="st6" d="M43.9,12.8c-0.3,0-0.6-0.1-0.8-0.2s-0.4-0.3-0.6-0.4c-0.2-0.2-0.3-0.4-0.4-0.7c-0.1-0.2-0.1-0.5-0.1-0.8
		c0-0.3,0-0.5,0.1-0.8c0.1-0.2,0.2-0.5,0.4-0.7c0.2-0.2,0.4-0.3,0.6-0.4c0.2-0.1,0.5-0.2,0.8-0.2s0.5,0.1,0.8,0.2
		c0.2,0.1,0.4,0.3,0.6,0.4c0.2,0.2,0.3,0.4,0.4,0.7c0.1,0.2,0.1,0.5,0.1,0.8c0,0.3,0,0.5-0.1,0.8c-0.1,0.2-0.2,0.5-0.4,0.7
		c-0.2,0.2-0.4,0.3-0.6,0.4C44.4,12.7,44.2,12.8,43.9,12.8z M42.5,10.7c0,0.2,0,0.4,0.1,0.6c0.1,0.2,0.2,0.4,0.3,0.5
		c0.1,0.1,0.3,0.3,0.5,0.3s0.4,0.1,0.6,0.1c0.2,0,0.4,0,0.6-0.1c0.2-0.1,0.3-0.2,0.5-0.3c0.1-0.1,0.2-0.3,0.3-0.5
		c0.1-0.2,0.1-0.4,0.1-0.6c0-0.2,0-0.4-0.1-0.6c-0.1-0.2-0.2-0.4-0.3-0.5s-0.3-0.3-0.5-0.3c-0.2-0.1-0.4-0.1-0.6-0.1s-0.4,0-0.6,0.1
		c-0.2,0.1-0.3,0.2-0.5,0.3c-0.1,0.1-0.2,0.3-0.3,0.5S42.5,10.5,42.5,10.7z"/>
	<path class="st6" d="M51.5,8.7H52l-1.7,3.9h-0.4l-0.8-2l-0.8,2h-0.4l-1.7-3.9h0.5l1.4,3.4l0.7-1.8l-0.7-1.6h0.4l0.5,1.3l0.5-1.3H50
		l-0.7,1.6l0.7,1.8L51.5,8.7z"/>
	<path class="st6" d="M56,12.7h-0.5v-2.2c0-0.5-0.1-0.8-0.2-1S55,9.1,54.7,9.1c-0.2,0-0.3,0-0.5,0.1s-0.3,0.1-0.4,0.2
		c-0.1,0.1-0.2,0.2-0.3,0.4c-0.1,0.1-0.2,0.3-0.2,0.5v2.4h-0.5V8.7h0.5v0.9c0.1-0.1,0.2-0.3,0.3-0.4s0.3-0.2,0.4-0.3
		s0.3-0.2,0.5-0.2c0.2,0,0.3-0.1,0.5-0.1c0.2,0,0.4,0,0.6,0.1c0.1,0.1,0.3,0.2,0.4,0.3s0.2,0.3,0.2,0.5s0.1,0.4,0.1,0.7V12.7z"/>
	<path class="st6" d="M60.7,12.8c-0.3,0-0.6-0.1-0.8-0.2s-0.4-0.3-0.6-0.4c-0.2-0.2-0.3-0.4-0.4-0.7c-0.1-0.2-0.1-0.5-0.1-0.8
		c0-0.3,0-0.5,0.1-0.8c0.1-0.2,0.2-0.5,0.4-0.7c0.2-0.2,0.4-0.3,0.6-0.4c0.2-0.1,0.5-0.2,0.8-0.2s0.5,0.1,0.8,0.2
		c0.2,0.1,0.4,0.3,0.6,0.4c0.2,0.2,0.3,0.4,0.4,0.7c0.1,0.2,0.1,0.5,0.1,0.8c0,0.3,0,0.5-0.1,0.8c-0.1,0.2-0.2,0.5-0.4,0.7
		c-0.2,0.2-0.4,0.3-0.6,0.4C61.3,12.7,61,12.8,60.7,12.8z M59.3,10.7c0,0.2,0,0.4,0.1,0.6c0.1,0.2,0.2,0.4,0.3,0.5
		c0.1,0.1,0.3,0.3,0.5,0.3s0.4,0.1,0.6,0.1c0.2,0,0.4,0,0.6-0.1c0.2-0.1,0.3-0.2,0.5-0.3c0.1-0.1,0.2-0.3,0.3-0.5
		c0.1-0.2,0.1-0.4,0.1-0.6c0-0.2,0-0.4-0.1-0.6c-0.1-0.2-0.2-0.4-0.3-0.5s-0.3-0.3-0.5-0.3c-0.2-0.1-0.4-0.1-0.6-0.1s-0.4,0-0.6,0.1
		c-0.2,0.1-0.3,0.2-0.5,0.3c-0.1,0.1-0.2,0.3-0.3,0.5S59.3,10.5,59.3,10.7z"/>
	<path class="st6" d="M66.8,12.7h-0.5v-2.2c0-0.5-0.1-0.8-0.2-1s-0.3-0.3-0.6-0.3c-0.2,0-0.3,0-0.5,0.1s-0.3,0.1-0.4,0.2
		c-0.1,0.1-0.2,0.2-0.3,0.4c-0.1,0.1-0.2,0.3-0.2,0.5v2.4h-0.5V8.7H64v0.9c0.1-0.1,0.2-0.3,0.3-0.4s0.3-0.2,0.4-0.3s0.3-0.2,0.5-0.2
		c0.2,0,0.3-0.1,0.5-0.1c0.2,0,0.4,0,0.6,0.1c0.1,0.1,0.3,0.2,0.4,0.3s0.2,0.3,0.2,0.5s0.1,0.4,0.1,0.7V12.7z"/>
	<path class="st6" d="M73.6,12.2c-0.2,0.2-0.4,0.3-0.7,0.4s-0.5,0.1-0.8,0.1c-0.4,0-0.7-0.1-1-0.2c-0.3-0.2-0.6-0.4-0.8-0.6
		s-0.4-0.5-0.5-0.9c-0.1-0.3-0.2-0.7-0.2-1c0-0.4,0.1-0.7,0.2-1s0.3-0.6,0.5-0.9c0.2-0.3,0.5-0.5,0.8-0.6c0.3-0.1,0.6-0.2,1-0.2
		c0.4,0,0.7,0.1,1,0.2c0.3,0.2,0.6,0.4,0.8,0.6c0.2,0.3,0.4,0.5,0.5,0.9c0.1,0.3,0.2,0.7,0.2,1c0,0.4-0.1,0.7-0.2,1.1
		s-0.3,0.6-0.6,0.9l0.6,0.7H74L73.6,12.2z M72.2,12.2c0.2,0,0.4,0,0.6-0.1s0.4-0.2,0.5-0.3L72.6,11h0.5l0.4,0.5
		c0.2-0.2,0.3-0.5,0.4-0.7s0.1-0.5,0.1-0.8c0-0.3,0-0.6-0.1-0.8c-0.1-0.3-0.2-0.5-0.4-0.7S73.2,8.1,73,7.9c-0.2-0.1-0.5-0.2-0.8-0.2
		c-0.3,0-0.6,0.1-0.8,0.2c-0.2,0.1-0.5,0.3-0.6,0.5c-0.2,0.2-0.3,0.5-0.4,0.7c-0.1,0.3-0.1,0.5-0.1,0.8c0,0.3,0,0.6,0.1,0.8
		c0.1,0.3,0.2,0.5,0.4,0.7c0.2,0.2,0.4,0.4,0.6,0.5S71.9,12.2,72.2,12.2z"/>
	<path class="st6" d="M76.8,12.8c-0.4,0-0.7-0.1-0.9-0.4s-0.3-0.7-0.3-1.3V8.7h0.5V11c0,0.9,0.3,1.3,0.9,1.3c0.2,0,0.3,0,0.4-0.1
		s0.3-0.1,0.4-0.2c0.1-0.1,0.2-0.2,0.3-0.3c0.1-0.1,0.2-0.3,0.2-0.4V8.7h0.5V12c0,0.1,0.1,0.2,0.2,0.2v0.5c-0.1,0-0.2,0-0.2,0
		c-0.1,0-0.2,0-0.3-0.1c-0.1-0.1-0.1-0.2-0.1-0.3v-0.5c-0.2,0.3-0.4,0.5-0.7,0.7C77.5,12.7,77.1,12.8,76.8,12.8z"/>
	<path class="st6" d="M81.8,12.8c-0.3,0-0.6-0.1-0.8-0.2s-0.5-0.3-0.6-0.4s-0.3-0.4-0.4-0.7c-0.1-0.2-0.1-0.5-0.1-0.8
		c0-0.3,0-0.5,0.1-0.8c0.1-0.2,0.2-0.5,0.4-0.6s0.4-0.3,0.6-0.4s0.5-0.2,0.8-0.2s0.6,0.1,0.8,0.2s0.4,0.3,0.6,0.4
		c0.2,0.2,0.3,0.4,0.4,0.6s0.1,0.5,0.1,0.8c0,0,0,0.1,0,0.1s0,0.1,0,0.1h-3.4c0,0.2,0.1,0.4,0.1,0.6c0.1,0.2,0.2,0.3,0.3,0.5
		c0.1,0.1,0.3,0.2,0.4,0.3s0.3,0.1,0.5,0.1c0.1,0,0.3,0,0.4-0.1c0.1,0,0.2-0.1,0.3-0.1s0.2-0.1,0.3-0.2c0.1-0.1,0.1-0.2,0.2-0.3
		l0.4,0.1c-0.1,0.1-0.1,0.3-0.3,0.4c-0.1,0.1-0.2,0.2-0.4,0.3s-0.3,0.2-0.5,0.2C82.2,12.7,82,12.8,81.8,12.8z M83.2,10.5
		c0-0.2-0.1-0.4-0.1-0.6c-0.1-0.2-0.2-0.3-0.3-0.5c-0.1-0.1-0.3-0.2-0.5-0.3S82,9.1,81.8,9.1s-0.4,0-0.5,0.1
		c-0.2,0.1-0.3,0.2-0.5,0.3c-0.1,0.1-0.2,0.3-0.3,0.5c-0.1,0.2-0.1,0.4-0.1,0.6H83.2z"/>
	<path class="st6" d="M86.2,12.8c-0.3,0-0.6-0.1-0.8-0.2s-0.5-0.3-0.6-0.4s-0.3-0.4-0.4-0.7c-0.1-0.2-0.1-0.5-0.1-0.8
		c0-0.3,0-0.5,0.1-0.8c0.1-0.2,0.2-0.5,0.4-0.6s0.4-0.3,0.6-0.4s0.5-0.2,0.8-0.2s0.6,0.1,0.8,0.2c0.2,0.1,0.4,0.3,0.6,0.4
		c0.2,0.2,0.3,0.4,0.4,0.6s0.1,0.5,0.1,0.8c0,0,0,0.1,0,0.1s0,0.1,0,0.1h-3.4c0,0.2,0.1,0.4,0.1,0.6c0.1,0.2,0.2,0.3,0.3,0.5
		c0.1,0.1,0.3,0.2,0.4,0.3s0.3,0.1,0.5,0.1c0.1,0,0.3,0,0.4-0.1c0.1,0,0.2-0.1,0.3-0.1c0.1-0.1,0.2-0.1,0.3-0.2
		c0.1-0.1,0.1-0.2,0.2-0.3l0.4,0.1c-0.1,0.1-0.1,0.3-0.3,0.4c-0.1,0.1-0.2,0.2-0.4,0.3s-0.3,0.2-0.5,0.2
		C86.6,12.7,86.4,12.8,86.2,12.8z M87.7,10.5c0-0.2-0.1-0.4-0.1-0.6c-0.1-0.2-0.2-0.3-0.3-0.5c-0.1-0.1-0.3-0.2-0.5-0.3
		c-0.2-0.1-0.4-0.1-0.5-0.1s-0.4,0-0.5,0.1c-0.2,0.1-0.3,0.2-0.5,0.3c-0.1,0.1-0.2,0.3-0.3,0.5c-0.1,0.2-0.1,0.4-0.1,0.6H87.7z"/>
	<path class="st6" d="M92.3,12.7h-0.5v-2.2c0-0.5-0.1-0.8-0.2-1c-0.1-0.2-0.3-0.3-0.6-0.3c-0.2,0-0.3,0-0.5,0.1S90.2,9.4,90,9.5
		c-0.1,0.1-0.2,0.2-0.3,0.4c-0.1,0.1-0.2,0.3-0.2,0.5v2.4H89V8.7h0.5v0.9c0.1-0.1,0.2-0.3,0.3-0.4C89.8,9.1,90,9,90.1,8.9
		c0.1-0.1,0.3-0.2,0.5-0.2s0.3-0.1,0.5-0.1c0.2,0,0.4,0,0.6,0.1C91.8,8.9,91.9,9,92,9.1c0.1,0.1,0.2,0.3,0.2,0.5s0.1,0.4,0.1,0.7
		V12.7z"/>
	<path class="st6" d="M99.4,11.3c0,0.2,0,0.4-0.1,0.6c-0.1,0.2-0.2,0.3-0.3,0.4c-0.1,0.1-0.3,0.2-0.5,0.3c-0.2,0.1-0.4,0.1-0.6,0.1
		h-2.5V7.3H98c0.2,0,0.4,0,0.5,0.1s0.3,0.2,0.4,0.3C99,7.9,99.1,8,99.1,8.2c0.1,0.2,0.1,0.3,0.1,0.5c0,0.3-0.1,0.5-0.2,0.7
		c-0.1,0.2-0.3,0.4-0.6,0.5c0.3,0.1,0.6,0.3,0.7,0.5C99.4,10.7,99.4,11,99.4,11.3z M95.9,7.8v2h1.8c0.1,0,0.3,0,0.4-0.1
		s0.2-0.1,0.3-0.2s0.1-0.2,0.2-0.3c0-0.1,0.1-0.2,0.1-0.4c0-0.1,0-0.3-0.1-0.4s-0.1-0.2-0.2-0.3c-0.1-0.1-0.2-0.2-0.3-0.2
		c-0.1-0.1-0.2-0.1-0.4-0.1H95.9z M98.9,11.2c0-0.1,0-0.3-0.1-0.4c0-0.1-0.1-0.2-0.2-0.3c-0.1-0.1-0.2-0.2-0.3-0.2
		c-0.1-0.1-0.2-0.1-0.4-0.1h-2.1v2h2c0.1,0,0.3,0,0.4-0.1s0.2-0.1,0.3-0.2c0.1-0.1,0.2-0.2,0.2-0.3S98.9,11.3,98.9,11.2z"/>
	<path class="st6" d="M102.1,12.8c-0.3,0-0.6-0.1-0.8-0.2s-0.5-0.3-0.6-0.4s-0.3-0.4-0.4-0.7c-0.1-0.2-0.1-0.5-0.1-0.8
		c0-0.3,0-0.5,0.1-0.8c0.1-0.2,0.2-0.5,0.4-0.6s0.4-0.3,0.6-0.4c0.2-0.1,0.5-0.2,0.8-0.2c0.3,0,0.6,0.1,0.8,0.2
		c0.2,0.1,0.4,0.3,0.6,0.4c0.2,0.2,0.3,0.4,0.4,0.6s0.1,0.5,0.1,0.8c0,0,0,0.1,0,0.1c0,0,0,0.1,0,0.1h-3.4c0,0.2,0.1,0.4,0.1,0.6
		c0.1,0.2,0.2,0.3,0.3,0.5c0.1,0.1,0.3,0.2,0.4,0.3c0.2,0.1,0.3,0.1,0.5,0.1c0.1,0,0.3,0,0.4-0.1c0.1,0,0.2-0.1,0.3-0.1
		c0.1-0.1,0.2-0.1,0.3-0.2c0.1-0.1,0.1-0.2,0.2-0.3l0.4,0.1c-0.1,0.1-0.1,0.3-0.3,0.4c-0.1,0.1-0.2,0.2-0.4,0.3
		c-0.1,0.1-0.3,0.2-0.5,0.2S102.2,12.8,102.1,12.8z M103.5,10.5c0-0.2-0.1-0.4-0.1-0.6c-0.1-0.2-0.2-0.3-0.3-0.5
		c-0.1-0.1-0.3-0.2-0.5-0.3c-0.2-0.1-0.4-0.1-0.5-0.1c-0.2,0-0.4,0-0.5,0.1c-0.2,0.1-0.3,0.2-0.5,0.3c-0.1,0.1-0.2,0.3-0.3,0.5
		s-0.1,0.4-0.1,0.6H103.5z"/>
	<path class="st6" d="M106.4,12.8c-0.3,0-0.5-0.1-0.8-0.2c-0.2-0.1-0.4-0.3-0.6-0.5s-0.3-0.4-0.4-0.6c-0.1-0.2-0.1-0.5-0.1-0.8
		c0-0.3,0-0.5,0.1-0.8c0.1-0.2,0.2-0.5,0.4-0.7c0.2-0.2,0.3-0.3,0.6-0.4s0.5-0.2,0.7-0.2c0.3,0,0.6,0.1,0.9,0.3
		c0.3,0.2,0.5,0.4,0.6,0.6V7.2h0.5V12c0,0.1,0.1,0.2,0.2,0.2v0.5c-0.1,0-0.2,0-0.2,0c-0.1,0-0.2,0-0.3-0.1s-0.1-0.2-0.1-0.3v-0.4
		c-0.2,0.3-0.4,0.5-0.6,0.6S106.7,12.8,106.4,12.8z M106.5,12.3c0.1,0,0.3,0,0.4-0.1s0.3-0.1,0.4-0.2c0.1-0.1,0.2-0.2,0.3-0.3
		s0.1-0.2,0.2-0.4v-1.2c-0.1-0.1-0.1-0.3-0.2-0.4c-0.1-0.1-0.2-0.2-0.3-0.3c-0.1-0.1-0.3-0.2-0.4-0.2c-0.1-0.1-0.3-0.1-0.4-0.1
		c-0.2,0-0.4,0-0.6,0.1c-0.2,0.1-0.3,0.2-0.4,0.4s-0.2,0.3-0.3,0.5c-0.1,0.2-0.1,0.4-0.1,0.6c0,0.2,0,0.4,0.1,0.6
		c0.1,0.2,0.2,0.4,0.3,0.5c0.1,0.1,0.3,0.3,0.5,0.3C106.1,12.3,106.3,12.3,106.5,12.3z"/>
	<path class="st6" d="M111.2,10.1c0-0.3,0-0.5,0.1-0.8c0.1-0.2,0.1-0.5,0.2-0.7c0.1-0.2,0.2-0.5,0.3-0.7c0.1-0.2,0.3-0.5,0.4-0.7
		l0.4,0.2c-0.1,0.2-0.2,0.3-0.3,0.6c-0.1,0.2-0.2,0.5-0.3,0.7c-0.1,0.3-0.2,0.5-0.2,0.8c-0.1,0.3-0.1,0.5-0.1,0.8
		c0,0.4,0.1,0.8,0.3,1.3c0.2,0.5,0.4,0.9,0.7,1.4l-0.4,0.2c-0.3-0.5-0.6-1-0.8-1.4C111.3,11,111.2,10.5,111.2,10.1z"/>
	<path class="st6" d="M117.1,10.9c0,0.3,0,0.5-0.1,0.7c-0.1,0.2-0.2,0.4-0.4,0.6c-0.2,0.2-0.4,0.3-0.6,0.4c-0.2,0.1-0.5,0.1-0.7,0.1
		c-0.3,0-0.5-0.1-0.8-0.2c-0.2-0.1-0.4-0.3-0.6-0.4c-0.2-0.2-0.3-0.4-0.4-0.7c-0.1-0.3-0.1-0.6-0.1-0.9c0-0.5,0-1,0.1-1.4
		c0.1-0.4,0.2-0.7,0.4-1c0.2-0.3,0.4-0.5,0.6-0.6c0.2-0.1,0.5-0.2,0.8-0.2c0.4,0,0.7,0.1,1,0.3c0.3,0.2,0.5,0.4,0.6,0.7l-0.3,0.3
		c-0.1-0.3-0.3-0.5-0.5-0.6c-0.2-0.2-0.5-0.2-0.8-0.2c-0.2,0-0.4,0.1-0.6,0.2s-0.3,0.3-0.5,0.5c-0.1,0.2-0.2,0.4-0.3,0.7
		c-0.1,0.3-0.1,0.6-0.1,1c0.1-0.3,0.3-0.5,0.6-0.7c0.3-0.2,0.6-0.3,0.9-0.3c0.3,0,0.5,0,0.7,0.1c0.2,0.1,0.4,0.2,0.6,0.4
		c0.2,0.2,0.3,0.4,0.4,0.6S117.1,10.7,117.1,10.9z M115.2,12.3c0.2,0,0.4,0,0.5-0.1s0.3-0.2,0.4-0.3c0.1-0.1,0.2-0.3,0.3-0.4
		s0.1-0.3,0.1-0.5c0-0.2,0-0.4-0.1-0.5c-0.1-0.2-0.2-0.3-0.3-0.4c-0.1-0.1-0.3-0.2-0.4-0.3c-0.2-0.1-0.4-0.1-0.5-0.1
		c-0.2,0-0.4,0-0.5,0.1c-0.2,0.1-0.3,0.2-0.5,0.3c-0.1,0.1-0.2,0.3-0.3,0.4s-0.1,0.3-0.1,0.5c0,0.2,0,0.4,0.1,0.5
		c0.1,0.2,0.2,0.3,0.3,0.4c0.1,0.1,0.3,0.2,0.4,0.3C114.9,12.3,115,12.3,115.2,12.3z"/>
	<path class="st6" d="M120.1,12.8c-0.4,0-0.7-0.1-1-0.3s-0.5-0.4-0.7-0.7c-0.2-0.3-0.3-0.6-0.4-0.9c-0.1-0.3-0.1-0.6-0.1-0.9
		c0-0.3,0.1-0.6,0.2-1c0.1-0.3,0.3-0.6,0.4-0.9c0.2-0.3,0.4-0.5,0.7-0.6s0.6-0.2,0.9-0.2c0.4,0,0.7,0.1,1,0.3
		c0.3,0.2,0.5,0.4,0.7,0.7c0.2,0.3,0.3,0.6,0.4,0.9c0.1,0.3,0.1,0.6,0.1,0.9c0,0.3-0.1,0.7-0.2,1c-0.1,0.3-0.3,0.6-0.4,0.9
		c-0.2,0.3-0.4,0.5-0.7,0.6C120.7,12.7,120.4,12.7,120.1,12.8z M118.4,10c0,0.3,0,0.5,0.1,0.8c0.1,0.3,0.2,0.5,0.3,0.7
		c0.1,0.2,0.3,0.4,0.5,0.5c0.2,0.1,0.5,0.2,0.7,0.2c0.3,0,0.5-0.1,0.7-0.2c0.2-0.1,0.4-0.3,0.5-0.5c0.1-0.2,0.2-0.5,0.3-0.7
		c0.1-0.3,0.1-0.5,0.1-0.8c0-0.3,0-0.5-0.1-0.8c-0.1-0.3-0.2-0.5-0.3-0.7c-0.1-0.2-0.3-0.4-0.5-0.5c-0.2-0.1-0.4-0.2-0.7-0.2
		c-0.3,0-0.5,0.1-0.7,0.2c-0.2,0.1-0.4,0.3-0.5,0.6c-0.1,0.2-0.2,0.5-0.3,0.7C118.4,9.5,118.4,9.8,118.4,10z"/>
	<path class="st6" d="M123.1,7.2c0.1,0,0.1,0,0.2,0c0.1,0,0.1,0,0.2,0.1c0.1,0,0.1,0.1,0.1,0.2c0,0.1,0.1,0.1,0.1,0.2v0.9h-0.4V7.7
		c0-0.1,0-0.1-0.1-0.1s-0.1,0-0.1,0V7.2z M124.1,7.2c0.1,0,0.1,0,0.2,0c0.1,0,0.1,0,0.2,0.1c0.1,0,0.1,0.1,0.1,0.2
		c0,0.1,0.1,0.1,0.1,0.2v0.9h-0.4V7.7c0-0.1,0-0.1-0.1-0.1c0,0-0.1,0-0.1,0V7.2z"/>
	<path class="st6" d="M127.7,8.7l1.2,1.5l0.1,0.1l0.1-0.1l1.2-1.5h0.6l-1.5,2l1.5,2h-0.6l-1.2-1.5L129,11l-0.1,0.1l-1.2,1.5h-0.6
		l1.5-2l-1.5-2H127.7z"/>
	<path class="st6" d="M136.9,11.2c0,0.2-0.1,0.5-0.2,0.6c-0.1,0.2-0.2,0.4-0.4,0.5c-0.2,0.1-0.4,0.2-0.6,0.3
		c-0.2,0.1-0.5,0.1-0.7,0.1c-0.3,0-0.5,0-0.7-0.1c-0.2-0.1-0.4-0.2-0.6-0.3c-0.2-0.1-0.3-0.3-0.4-0.5s-0.1-0.4-0.1-0.6
		c0-0.2,0-0.3,0.1-0.5c0.1-0.1,0.1-0.3,0.2-0.4c0.1-0.1,0.2-0.2,0.3-0.3c0.1-0.1,0.3-0.1,0.4-0.2c-0.1-0.1-0.2-0.1-0.3-0.2
		c-0.1-0.1-0.2-0.2-0.3-0.3c-0.1-0.1-0.1-0.2-0.2-0.3c0-0.1-0.1-0.2-0.1-0.4c0-0.2,0.1-0.4,0.2-0.6c0.1-0.2,0.2-0.3,0.4-0.4
		c0.2-0.1,0.3-0.2,0.5-0.3s0.4-0.1,0.6-0.1s0.4,0,0.6,0.1s0.4,0.1,0.5,0.3c0.2,0.1,0.3,0.3,0.4,0.4c0.1,0.2,0.2,0.4,0.2,0.6
		c0,0.1,0,0.3-0.1,0.4s-0.1,0.2-0.2,0.3c-0.1,0.1-0.2,0.2-0.3,0.3s-0.2,0.1-0.3,0.2c0.1,0.1,0.3,0.1,0.4,0.2
		c0.1,0.1,0.2,0.2,0.3,0.3c0.1,0.1,0.2,0.2,0.2,0.4C136.9,10.9,136.9,11,136.9,11.2z M136.4,11.1c0-0.2,0-0.3-0.1-0.5
		s-0.2-0.3-0.3-0.4c-0.1-0.1-0.3-0.2-0.4-0.2c-0.2-0.1-0.3-0.1-0.5-0.1c-0.2,0-0.3,0-0.5,0.1c-0.2,0.1-0.3,0.1-0.4,0.2
		c-0.1,0.1-0.2,0.2-0.3,0.4c-0.1,0.1-0.1,0.3-0.1,0.5c0,0.2,0,0.3,0.1,0.5s0.2,0.3,0.3,0.4c0.1,0.1,0.3,0.2,0.4,0.2
		c0.2,0.1,0.3,0.1,0.5,0.1c0.2,0,0.3,0,0.5-0.1c0.2-0.1,0.3-0.1,0.4-0.2c0.1-0.1,0.2-0.2,0.3-0.4S136.4,11.3,136.4,11.1z M133.9,8.7
		c0,0.1,0,0.3,0.1,0.4c0.1,0.1,0.2,0.2,0.3,0.3c0.1,0.1,0.2,0.1,0.4,0.2c0.1,0,0.3,0.1,0.4,0.1c0.1,0,0.3,0,0.4-0.1
		c0.1,0,0.3-0.1,0.4-0.2c0.1-0.1,0.2-0.2,0.3-0.3c0.1-0.1,0.1-0.2,0.1-0.4c0-0.1,0-0.3-0.1-0.4c-0.1-0.1-0.2-0.2-0.3-0.3
		c-0.1-0.1-0.2-0.1-0.4-0.2s-0.3-0.1-0.4-0.1s-0.3,0-0.4,0.1c-0.1,0-0.3,0.1-0.4,0.2c-0.1,0.1-0.2,0.2-0.3,0.3
		C133.9,8.4,133.9,8.6,133.9,8.7z"/>
	<path class="st6" d="M139.9,12.8c-0.4,0-0.7-0.1-1-0.3s-0.5-0.4-0.7-0.7c-0.2-0.3-0.3-0.6-0.4-0.9c-0.1-0.3-0.1-0.6-0.1-0.9
		c0-0.3,0.1-0.6,0.2-1c0.1-0.3,0.3-0.6,0.4-0.9c0.2-0.3,0.4-0.5,0.7-0.6s0.6-0.2,0.9-0.2c0.4,0,0.7,0.1,1,0.3
		c0.3,0.2,0.5,0.4,0.7,0.7c0.2,0.3,0.3,0.6,0.4,0.9c0.1,0.3,0.1,0.6,0.1,0.9c0,0.3-0.1,0.7-0.2,1c-0.1,0.3-0.3,0.6-0.4,0.9
		c-0.2,0.3-0.4,0.5-0.7,0.6C140.6,12.7,140.3,12.7,139.9,12.8z M138.2,10c0,0.3,0,0.5,0.1,0.8c0.1,0.3,0.2,0.5,0.3,0.7
		c0.1,0.2,0.3,0.4,0.5,0.5c0.2,0.1,0.5,0.2,0.7,0.2c0.3,0,0.5-0.1,0.7-0.2c0.2-0.1,0.4-0.3,0.5-0.5c0.1-0.2,0.2-0.5,0.3-0.7
		c0.1-0.3,0.1-0.5,0.1-0.8c0-0.3,0-0.5-0.1-0.8c-0.1-0.3-0.2-0.5-0.3-0.7c-0.1-0.2-0.3-0.4-0.5-0.5c-0.2-0.1-0.4-0.2-0.7-0.2
		c-0.3,0-0.5,0.1-0.7,0.2c-0.2,0.1-0.4,0.3-0.5,0.6c-0.1,0.2-0.2,0.5-0.3,0.7C138.3,9.5,138.2,9.8,138.2,10z"/>
	<path class="st6" d="M142.9,7.2c0.1,0,0.1,0,0.2,0c0.1,0,0.1,0,0.2,0.1c0.1,0,0.1,0.1,0.1,0.2c0,0.1,0.1,0.1,0.1,0.2v0.9h-0.4V7.7
		c0-0.1,0-0.1-0.1-0.1s-0.1,0-0.1,0V7.2z M143.9,7.2c0.1,0,0.1,0,0.2,0c0.1,0,0.1,0,0.2,0.1c0.1,0,0.1,0.1,0.1,0.2
		c0,0.1,0.1,0.1,0.1,0.2v0.9h-0.4V7.7c0-0.1,0-0.1-0.1-0.1c0,0-0.1,0-0.1,0V7.2z"/>
	<path class="st6" d="M146.7,10.1c0,0.5-0.1,1-0.3,1.5c-0.2,0.5-0.5,1-0.8,1.4l-0.4-0.2c0.3-0.5,0.5-0.9,0.7-1.4
		c0.2-0.5,0.3-0.9,0.3-1.3c0-0.2,0-0.5-0.1-0.8c-0.1-0.3-0.1-0.5-0.2-0.8c-0.1-0.3-0.2-0.5-0.3-0.7c-0.1-0.2-0.2-0.4-0.3-0.6
		l0.4-0.2c0.1,0.2,0.3,0.5,0.4,0.7c0.1,0.2,0.2,0.5,0.3,0.7c0.1,0.2,0.2,0.5,0.2,0.7C146.7,9.5,146.7,9.8,146.7,10.1z"/>
</g>
</svg>
