<?xml version="1.0" encoding="utf-8"?>
<!-- Generator: Adobe Illustrator 24.0.3, SVG Export Plug-In . SVG Version: 6.00 Build 0)  -->
<svg version="1.1" id="Layer_1" xmlns="http://www.w3.org/2000/svg" xmlns:xlink="http://www.w3.org/1999/xlink" x="0px" y="0px"
	 viewBox="0 0 180 180" style="enable-background:new 0 0 180 180;" xml:space="preserve">
<style type="text/css">
	.st0{opacity:0.2;}
	.st1{fill:#FBF9F9;stroke:#000000;stroke-width:0.89;stroke-miterlimit:10;}
	.st2{opacity:0.9;}
	.st3{clip-path:url(#SVGID_2_);}
	.st4{fill:none;stroke:#F15D5A;stroke-width:7.000000e-02;stroke-miterlimit:10;stroke-dasharray:1.47,1.47;}
	.st5{fill:none;stroke:#F15D5A;stroke-width:0.89;stroke-linecap:round;stroke-linejoin:round;}
	.st6{fill:#231F20;}
</style>
<title>XL on King Bed-01</title>
<g class="st0">
	<path class="st1" d="M29,18.5h122.5c3,0,5.4,2.4,5.4,5.4l0,0v130.2c0,3-2.4,5.4-5.4,5.4l0,0H29c-3,0-5.4-2.4-5.4-5.4l0,0V23.9
		C23.6,20.9,26,18.5,29,18.5z"/>
	<path class="st1" d="M94.8,20.8h56.4c1.6,0,2.9,1.3,2.9,2.9v29.5c0,1.6-1.3,2.9-2.9,2.9H94.8c-1.6,0-2.9-1.3-2.9-2.9l0,0V23.7
		C91.9,22.1,93.2,20.8,94.8,20.8L94.8,20.8z"/>
	<path class="st1" d="M29.3,20.8h56.4c1.6,0,2.9,1.3,2.9,2.9l0,0v29.5c0,1.6-1.3,2.9-2.9,2.9l0,0H29.3c-1.6,0-2.9-1.3-2.9-2.9l0,0
		V23.7C26.5,22.1,27.7,20.9,29.3,20.8z"/>
</g>
<g class="st2">
	<g>
		<g>
			<g>
				<defs>
					<rect id="SVGID_1_" x="10.6" y="30.6" width="159.3" height="136.1"/>
				</defs>
				<clipPath id="SVGID_2_">
					<use xlink:href="#SVGID_1_"  style="overflow:visible;"/>
				</clipPath>
				<g class="st3">
					<line class="st4" x1="1.1" y1="15.2" x2="1.1" y2="233.3"/>
					<line class="st4" x1="9.3" y1="14.8" x2="9.3" y2="232.9"/>
					<line class="st4" x1="17.4" y1="15.2" x2="17.4" y2="233.2"/>
					<line class="st4" x1="25.1" y1="14.9" x2="25.1" y2="232.9"/>
					<line class="st4" x1="33.2" y1="15.3" x2="33.2" y2="233.3"/>
					<line class="st4" x1="41" y1="14.8" x2="41" y2="232.8"/>
					<line class="st4" x1="49" y1="15.2" x2="49" y2="233.2"/>
					<line class="st4" x1="56.8" y1="14.9" x2="56.8" y2="232.9"/>
					<line class="st4" x1="64.8" y1="15.3" x2="64.8" y2="233.3"/>
					<line class="st4" x1="73.1" y1="14.9" x2="73.1" y2="232.9"/>
					<line class="st4" x1="81.2" y1="15.2" x2="81.2" y2="233.2"/>
					<line class="st4" x1="88.9" y1="14.9" x2="88.9" y2="233"/>
					<line class="st4" x1="96.9" y1="15.3" x2="96.9" y2="233.3"/>
					<line class="st4" x1="104.8" y1="14.8" x2="104.8" y2="232.8"/>
					<line class="st4" x1="112.9" y1="15.2" x2="112.9" y2="233.2"/>
					<line class="st4" x1="120.6" y1="14.9" x2="120.6" y2="232.9"/>
					<line class="st4" x1="128.7" y1="15.3" x2="128.7" y2="233.3"/>
					<line class="st4" x1="137" y1="14.9" x2="137" y2="232.9"/>
					<line class="st4" x1="145" y1="15.2" x2="145" y2="233.2"/>
					<line class="st4" x1="152.7" y1="14.9" x2="152.7" y2="233"/>
					<line class="st4" x1="160.8" y1="15.3" x2="160.8" y2="233.3"/>
					<line class="st4" x1="174.2" y1="33.8" x2="-43.8" y2="33.8"/>
					<line class="st4" x1="173.8" y1="41.9" x2="-44.2" y2="41.9"/>
					<line class="st4" x1="174.1" y1="49.6" x2="-43.9" y2="49.6"/>
					<line class="st4" x1="173.7" y1="57.7" x2="-44.3" y2="57.7"/>
					<line class="st4" x1="174.1" y1="65.9" x2="-43.9" y2="65.9"/>
					<line class="st4" x1="173.8" y1="74" x2="-44.3" y2="74"/>
					<line class="st4" x1="174" y1="81.7" x2="-44" y2="81.7"/>
					<line class="st4" x1="173.7" y1="89.8" x2="-44.3" y2="89.8"/>
					<line class="st4" x1="174.1" y1="97.6" x2="-43.9" y2="97.6"/>
					<line class="st4" x1="173.8" y1="105.7" x2="-44.2" y2="105.7"/>
					<line class="st4" x1="174.1" y1="113.4" x2="-44" y2="113.4"/>
					<line class="st4" x1="173.7" y1="121.4" x2="-44.3" y2="121.4"/>
					<line class="st4" x1="174.1" y1="129.7" x2="-43.9" y2="129.7"/>
					<line class="st4" x1="173.7" y1="137.8" x2="-44.3" y2="137.8"/>
					<line class="st4" x1="174" y1="145.5" x2="-44" y2="145.5"/>
					<line class="st4" x1="173.6" y1="153.6" x2="-44.4" y2="153.6"/>
					<line class="st4" x1="174.1" y1="161.4" x2="-43.9" y2="161.4"/>
					<line class="st4" x1="173.8" y1="169.5" x2="-44.2" y2="169.5"/>
					<line class="st4" x1="174.1" y1="177.2" x2="-44" y2="177.2"/>
				</g>
			</g>
		</g>
	</g>
</g>
<path class="st5" d="M15.6,30.6h150c2.5,0,4.6,2,4.6,4.6l0,0v126.4c0,2.5-2,4.6-4.6,4.6l0,0h-150c-2.5,0-4.6-2-4.6-4.6l0,0V35.2
	C11.1,32.7,13.1,30.7,15.6,30.6z"/>
<g>
	<path class="st6" d="M41.5,8.6c-0.2-0.2-0.4-0.3-0.6-0.4C40.7,8.1,40.4,8,40.1,8c-0.5,0-0.8,0.1-1,0.3c-0.2,0.2-0.3,0.4-0.3,0.7
		c0,0.2,0,0.3,0.1,0.4s0.1,0.2,0.3,0.3c0.1,0.1,0.3,0.1,0.5,0.2c0.2,0.1,0.4,0.1,0.7,0.2c0.3,0.1,0.5,0.1,0.8,0.2
		c0.2,0.1,0.4,0.2,0.6,0.3c0.2,0.1,0.3,0.2,0.4,0.4c0.1,0.2,0.1,0.4,0.1,0.6c0,0.2,0,0.5-0.1,0.6c-0.1,0.2-0.2,0.3-0.4,0.4
		s-0.4,0.2-0.6,0.3c-0.2,0.1-0.5,0.1-0.8,0.1c-0.8,0-1.5-0.3-2.1-0.8l0.3-0.4c0.2,0.2,0.5,0.4,0.8,0.5c0.3,0.1,0.7,0.2,1.1,0.2
		c0.4,0,0.8-0.1,1-0.2c0.2-0.2,0.4-0.4,0.4-0.7c0-0.2,0-0.3-0.1-0.4c-0.1-0.1-0.2-0.2-0.3-0.3c-0.1-0.1-0.3-0.2-0.5-0.2
		c-0.2-0.1-0.4-0.1-0.7-0.2c-0.3-0.1-0.5-0.1-0.7-0.2s-0.4-0.2-0.5-0.3s-0.2-0.2-0.3-0.4c-0.1-0.1-0.1-0.3-0.1-0.5
		c0-0.2,0-0.5,0.1-0.7s0.2-0.4,0.4-0.5c0.2-0.1,0.4-0.2,0.6-0.3c0.2-0.1,0.5-0.1,0.8-0.1c0.4,0,0.7,0.1,0.9,0.2
		c0.3,0.1,0.5,0.3,0.8,0.5L41.5,8.6z"/>
	<path class="st6" d="M46.1,12.9h-0.5v-2.2c0-0.4-0.1-0.8-0.2-1c-0.2-0.2-0.4-0.3-0.7-0.3c-0.1,0-0.3,0-0.4,0.1
		c-0.1,0.1-0.3,0.1-0.4,0.2s-0.2,0.2-0.3,0.4c-0.1,0.1-0.2,0.3-0.2,0.4v2.4h-0.5V7.5h0.5v2.5c0.2-0.3,0.4-0.5,0.7-0.7
		C44.3,9,44.6,9,44.9,9c0.2,0,0.4,0,0.6,0.1c0.2,0.1,0.3,0.2,0.4,0.3S46,9.8,46.1,10s0.1,0.4,0.1,0.7V12.9z"/>
	<path class="st6" d="M48.9,13c-0.3,0-0.5-0.1-0.8-0.2s-0.4-0.3-0.6-0.4c-0.2-0.2-0.3-0.4-0.4-0.6c-0.1-0.2-0.1-0.5-0.1-0.8
		c0-0.3,0-0.5,0.1-0.8c0.1-0.2,0.2-0.5,0.4-0.6c0.2-0.2,0.4-0.3,0.6-0.4C48.3,9,48.6,9,48.9,9c0.3,0,0.5,0.1,0.8,0.2
		s0.4,0.3,0.6,0.4c0.2,0.2,0.3,0.4,0.4,0.6c0.1,0.2,0.1,0.5,0.1,0.8c0,0.3,0,0.5-0.1,0.8s-0.2,0.5-0.4,0.6c-0.2,0.2-0.4,0.3-0.6,0.4
		S49.2,13,48.9,13z M47.5,11c0,0.2,0,0.4,0.1,0.6c0.1,0.2,0.2,0.4,0.3,0.5s0.3,0.3,0.5,0.3c0.2,0.1,0.4,0.1,0.6,0.1s0.4,0,0.6-0.1
		s0.3-0.2,0.5-0.3c0.1-0.1,0.2-0.3,0.3-0.5s0.1-0.4,0.1-0.6c0-0.2,0-0.4-0.1-0.6c-0.1-0.2-0.2-0.4-0.3-0.5c-0.1-0.1-0.3-0.3-0.4-0.3
		c-0.2-0.1-0.4-0.1-0.5-0.1c-0.2,0-0.4,0-0.6,0.1c-0.2,0.1-0.3,0.2-0.4,0.3s-0.2,0.3-0.3,0.5C47.5,10.6,47.5,10.8,47.5,11z"/>
	<path class="st6" d="M56.5,9H57l-1.7,3.9h-0.4l-0.8-2l-0.8,2h-0.4L51.1,9h0.5l1.4,3.4l0.7-1.8L53.1,9h0.4l0.5,1.3L54.5,9H55
		l-0.7,1.6l0.7,1.8L56.5,9z"/>
	<path class="st6" d="M60.9,12.9h-0.5v-2.2c0-0.5-0.1-0.8-0.2-1c-0.1-0.2-0.3-0.3-0.6-0.3c-0.2,0-0.3,0-0.5,0.1
		c-0.1,0.1-0.3,0.1-0.4,0.2c-0.1,0.1-0.2,0.2-0.3,0.4c-0.1,0.1-0.2,0.3-0.2,0.4v2.4h-0.5V9h0.5v0.9c0.1-0.1,0.2-0.3,0.3-0.4
		c0.1-0.1,0.2-0.2,0.4-0.3s0.3-0.1,0.5-0.2C59.4,9,59.6,9,59.7,9c0.2,0,0.4,0,0.6,0.1s0.3,0.2,0.4,0.3c0.1,0.1,0.2,0.3,0.2,0.5
		s0.1,0.4,0.1,0.7V12.9z"/>
	<path class="st6" d="M65.6,13c-0.3,0-0.5-0.1-0.8-0.2s-0.4-0.3-0.6-0.4c-0.2-0.2-0.3-0.4-0.4-0.6c-0.1-0.2-0.1-0.5-0.1-0.8
		c0-0.3,0-0.5,0.1-0.8c0.1-0.2,0.2-0.5,0.4-0.6c0.2-0.2,0.4-0.3,0.6-0.4C65,9,65.3,9,65.6,9c0.3,0,0.5,0.1,0.8,0.2s0.4,0.3,0.6,0.4
		c0.2,0.2,0.3,0.4,0.4,0.6c0.1,0.2,0.1,0.5,0.1,0.8c0,0.3,0,0.5-0.1,0.8s-0.2,0.5-0.4,0.6c-0.2,0.2-0.4,0.3-0.6,0.4S65.9,13,65.6,13
		z M64.2,11c0,0.2,0,0.4,0.1,0.6c0.1,0.2,0.2,0.4,0.3,0.5s0.3,0.3,0.5,0.3c0.2,0.1,0.4,0.1,0.6,0.1s0.4,0,0.6-0.1s0.3-0.2,0.5-0.3
		c0.1-0.1,0.2-0.3,0.3-0.5S67,11.2,67,11c0-0.2,0-0.4-0.1-0.6c-0.1-0.2-0.2-0.4-0.3-0.5c-0.1-0.1-0.3-0.3-0.4-0.3
		c-0.2-0.1-0.4-0.1-0.5-0.1c-0.2,0-0.4,0-0.6,0.1c-0.2,0.1-0.3,0.2-0.4,0.3s-0.2,0.3-0.3,0.5C64.2,10.6,64.2,10.8,64.2,11z"/>
	<path class="st6" d="M71.6,12.9h-0.5v-2.2c0-0.5-0.1-0.8-0.2-1c-0.1-0.2-0.3-0.3-0.6-0.3c-0.2,0-0.3,0-0.5,0.1
		c-0.1,0.1-0.3,0.1-0.4,0.2c-0.1,0.1-0.2,0.2-0.3,0.4c-0.1,0.1-0.2,0.3-0.2,0.4v2.4h-0.5V9h0.5v0.9c0.1-0.1,0.2-0.3,0.3-0.4
		c0.1-0.1,0.2-0.2,0.4-0.3S69.8,9.1,70,9C70.1,9,70.3,9,70.5,9c0.2,0,0.4,0,0.6,0.1s0.3,0.2,0.4,0.3c0.1,0.1,0.2,0.3,0.2,0.5
		s0.1,0.4,0.1,0.7V12.9z"/>
	<path class="st6" d="M74.7,12.9V7.6h0.5v3.1l2.9-3.1h0.6l-2.2,2.3l2.3,3h-0.6l-2-2.7l-1,1v1.6H74.7z"/>
	<path class="st6" d="M79.4,8.2V7.5h0.5v0.7H79.4z M79.4,12.9V9h0.5v3.9H79.4z"/>
	<path class="st6" d="M84.3,12.9h-0.5v-2.2c0-0.5-0.1-0.8-0.2-1c-0.1-0.2-0.3-0.3-0.6-0.3c-0.2,0-0.3,0-0.5,0.1
		c-0.1,0.1-0.3,0.1-0.4,0.2c-0.1,0.1-0.2,0.2-0.3,0.4c-0.1,0.1-0.2,0.3-0.2,0.4v2.4H81V9h0.5v0.9c0.1-0.1,0.2-0.3,0.3-0.4
		c0.1-0.1,0.2-0.2,0.4-0.3s0.3-0.1,0.5-0.2C82.8,9,83,9,83.1,9c0.2,0,0.4,0,0.6,0.1s0.3,0.2,0.4,0.3c0.1,0.1,0.2,0.3,0.2,0.5
		s0.1,0.4,0.1,0.7V12.9z"/>
	<path class="st6" d="M86.9,13c-0.3,0-0.5-0.1-0.7-0.2c-0.2-0.1-0.4-0.3-0.6-0.4c-0.2-0.2-0.3-0.4-0.4-0.6c-0.1-0.2-0.1-0.5-0.1-0.7
		c0-0.3,0-0.5,0.1-0.8s0.2-0.5,0.4-0.6c0.2-0.2,0.4-0.3,0.6-0.4C86.4,9,86.7,9,86.9,9c0.3,0,0.6,0.1,0.9,0.3s0.5,0.4,0.6,0.6V9h0.5
		v3.9c0,0.3-0.1,0.5-0.2,0.7c-0.1,0.2-0.2,0.4-0.4,0.5s-0.4,0.2-0.6,0.3c-0.2,0.1-0.5,0.1-0.7,0.1c-0.4,0-0.8-0.1-1.1-0.2
		c-0.3-0.2-0.5-0.4-0.7-0.6l0.3-0.2c0.2,0.2,0.4,0.4,0.6,0.6c0.3,0.1,0.5,0.2,0.8,0.2c0.2,0,0.4,0,0.5-0.1c0.2-0.1,0.3-0.1,0.5-0.2
		c0.1-0.1,0.2-0.2,0.3-0.4c0.1-0.2,0.1-0.3,0.1-0.6v-0.8c-0.2,0.2-0.4,0.4-0.6,0.6C87.5,12.9,87.2,13,86.9,13z M87.1,12.6
		c0.1,0,0.3,0,0.4-0.1s0.3-0.1,0.4-0.2c0.1-0.1,0.2-0.2,0.3-0.3c0.1-0.1,0.1-0.2,0.2-0.4v-1.2c-0.1-0.1-0.1-0.3-0.2-0.4
		c-0.1-0.1-0.2-0.2-0.3-0.3c-0.1-0.1-0.2-0.2-0.4-0.2c-0.1,0-0.3-0.1-0.4-0.1c-0.2,0-0.4,0-0.6,0.1c-0.2,0.1-0.3,0.2-0.4,0.4
		s-0.2,0.3-0.3,0.5c-0.1,0.2-0.1,0.4-0.1,0.6c0,0.2,0,0.4,0.1,0.6c0.1,0.2,0.2,0.4,0.3,0.5c0.1,0.1,0.3,0.3,0.5,0.3
		C86.7,12.5,86.9,12.6,87.1,12.6z"/>
	<path class="st6" d="M96,11.6c0,0.2,0,0.4-0.1,0.6s-0.2,0.3-0.3,0.4s-0.3,0.2-0.5,0.3c-0.2,0.1-0.4,0.1-0.6,0.1H92V7.6h2.6
		c0.2,0,0.4,0,0.5,0.1c0.1,0.1,0.3,0.2,0.4,0.3c0.1,0.1,0.2,0.3,0.2,0.4c0.1,0.2,0.1,0.3,0.1,0.5c0,0.3-0.1,0.5-0.2,0.7
		c-0.1,0.2-0.3,0.4-0.6,0.5c0.3,0.1,0.5,0.3,0.7,0.5S96,11.2,96,11.6z M92.5,8.1v2h1.8c0.1,0,0.2,0,0.4-0.1S95,9.8,95,9.7
		c0.1-0.1,0.1-0.2,0.2-0.3s0.1-0.2,0.1-0.4c0-0.1,0-0.3-0.1-0.4c0-0.1-0.1-0.2-0.2-0.3c-0.1-0.1-0.2-0.2-0.3-0.2
		c-0.1-0.1-0.2-0.1-0.3-0.1H92.5z M95.5,11.5c0-0.1,0-0.3-0.1-0.4s-0.1-0.2-0.2-0.3c-0.1-0.1-0.2-0.2-0.3-0.2
		c-0.1-0.1-0.2-0.1-0.4-0.1h-2v2h2c0.1,0,0.3,0,0.4-0.1c0.1-0.1,0.2-0.1,0.3-0.2c0.1-0.1,0.2-0.2,0.2-0.3
		C95.5,11.7,95.5,11.6,95.5,11.5z"/>
	<path class="st6" d="M98.6,13c-0.3,0-0.5-0.1-0.8-0.2c-0.2-0.1-0.4-0.3-0.6-0.4s-0.3-0.4-0.4-0.6c-0.1-0.2-0.1-0.5-0.1-0.8
		c0-0.3,0-0.5,0.1-0.8s0.2-0.5,0.4-0.6c0.2-0.2,0.4-0.3,0.6-0.4C98.1,9,98.3,9,98.6,9s0.5,0.1,0.8,0.2c0.2,0.1,0.4,0.3,0.6,0.4
		s0.3,0.4,0.4,0.6c0.1,0.2,0.1,0.5,0.1,0.8c0,0,0,0.1,0,0.1c0,0,0,0.1,0,0.1h-3.3c0,0.2,0.1,0.4,0.1,0.6c0.1,0.2,0.2,0.3,0.3,0.5
		c0.1,0.1,0.3,0.2,0.4,0.3c0.2,0.1,0.3,0.1,0.5,0.1c0.1,0,0.3,0,0.4-0.1c0.1,0,0.2-0.1,0.3-0.1c0.1-0.1,0.2-0.1,0.3-0.2
		c0.1-0.1,0.1-0.2,0.2-0.3l0.4,0.1c-0.1,0.1-0.1,0.3-0.3,0.4c-0.1,0.1-0.2,0.2-0.4,0.3c-0.1,0.1-0.3,0.2-0.5,0.2
		C99,13,98.8,13,98.6,13z M100.1,10.8c0-0.2-0.1-0.4-0.1-0.6c-0.1-0.2-0.2-0.3-0.3-0.4c-0.1-0.1-0.3-0.2-0.4-0.3
		c-0.2-0.1-0.3-0.1-0.5-0.1s-0.4,0-0.5,0.1c-0.2,0.1-0.3,0.2-0.4,0.3c-0.1,0.1-0.2,0.3-0.3,0.5c-0.1,0.2-0.1,0.4-0.1,0.6H100.1z"/>
	<path class="st6" d="M102.9,13c-0.3,0-0.5-0.1-0.8-0.2c-0.2-0.1-0.4-0.3-0.6-0.4c-0.2-0.2-0.3-0.4-0.4-0.6
		c-0.1-0.2-0.1-0.5-0.1-0.8c0-0.3,0-0.5,0.1-0.8s0.2-0.5,0.4-0.6s0.3-0.3,0.6-0.4c0.2-0.1,0.5-0.2,0.7-0.2c0.3,0,0.6,0.1,0.9,0.3
		s0.5,0.4,0.6,0.6V7.5h0.5v4.8c0,0.1,0.1,0.2,0.2,0.2v0.5c-0.1,0-0.2,0-0.2,0c-0.1,0-0.2,0-0.3-0.1c-0.1-0.1-0.1-0.2-0.1-0.3v-0.4
		c-0.2,0.3-0.4,0.5-0.6,0.6C103.5,12.9,103.2,13,102.9,13z M103,12.6c0.1,0,0.3,0,0.4-0.1c0.1,0,0.3-0.1,0.4-0.2
		c0.1-0.1,0.2-0.2,0.3-0.3c0.1-0.1,0.1-0.2,0.2-0.4v-1.2c0-0.1-0.1-0.3-0.2-0.4c-0.1-0.1-0.2-0.2-0.3-0.3c-0.1-0.1-0.3-0.2-0.4-0.2
		c-0.1,0-0.3-0.1-0.4-0.1c-0.2,0-0.4,0-0.6,0.1c-0.2,0.1-0.3,0.2-0.4,0.4s-0.2,0.3-0.3,0.5s-0.1,0.4-0.1,0.6c0,0.2,0,0.4,0.1,0.6
		c0.1,0.2,0.2,0.4,0.3,0.5s0.3,0.3,0.5,0.3C102.6,12.5,102.8,12.6,103,12.6z"/>
	<path class="st6" d="M107.7,10.3c0-0.3,0-0.5,0.1-0.8c0.1-0.2,0.1-0.5,0.2-0.7c0.1-0.2,0.2-0.5,0.3-0.7c0.1-0.2,0.3-0.5,0.4-0.7
		l0.4,0.2c-0.1,0.1-0.2,0.3-0.3,0.6c-0.1,0.2-0.2,0.5-0.3,0.7c-0.1,0.3-0.2,0.5-0.2,0.8c-0.1,0.3-0.1,0.5-0.1,0.8
		c0,0.4,0.1,0.8,0.3,1.3c0.2,0.5,0.4,0.9,0.7,1.4l-0.4,0.2c-0.3-0.5-0.6-0.9-0.8-1.4C107.8,11.3,107.7,10.8,107.7,10.3z"/>
	<path class="st6" d="M112.5,8.1h-2.9V7.6h3.7l-2.7,5.3H110L112.5,8.1z"/>
	<path class="st6" d="M117.5,11.2c0,0.3,0,0.5-0.1,0.7c-0.1,0.2-0.2,0.4-0.4,0.6c-0.2,0.2-0.4,0.3-0.6,0.4c-0.2,0.1-0.5,0.1-0.7,0.1
		c-0.3,0-0.5-0.1-0.8-0.2c-0.2-0.1-0.4-0.2-0.6-0.4s-0.3-0.4-0.4-0.7c-0.1-0.3-0.1-0.6-0.1-0.9c0-0.5,0-1,0.1-1.4
		c0.1-0.4,0.2-0.7,0.4-1c0.2-0.3,0.4-0.5,0.6-0.6s0.5-0.2,0.8-0.2c0.3,0,0.7,0.1,0.9,0.3c0.3,0.2,0.5,0.4,0.6,0.7l-0.3,0.3
		c-0.1-0.3-0.3-0.5-0.5-0.6c-0.2-0.2-0.5-0.2-0.8-0.2c-0.2,0-0.4,0.1-0.6,0.2c-0.2,0.1-0.3,0.3-0.5,0.5c-0.1,0.2-0.2,0.4-0.3,0.7
		s-0.1,0.6-0.1,1c0.1-0.3,0.3-0.5,0.6-0.7c0.3-0.2,0.6-0.3,0.9-0.3c0.3,0,0.5,0,0.7,0.1c0.2,0.1,0.4,0.2,0.6,0.4s0.3,0.4,0.4,0.6
		C117.4,10.7,117.5,10.9,117.5,11.2z M115.6,12.6c0.2,0,0.4,0,0.5-0.1c0.2-0.1,0.3-0.2,0.4-0.3c0.1-0.1,0.2-0.3,0.3-0.4
		s0.1-0.3,0.1-0.5s0-0.4-0.1-0.5s-0.2-0.3-0.3-0.4s-0.3-0.2-0.4-0.3c-0.2-0.1-0.3-0.1-0.5-0.1c-0.2,0-0.4,0-0.5,0.1
		c-0.2,0.1-0.3,0.2-0.4,0.3c-0.1,0.1-0.2,0.3-0.3,0.4c-0.1,0.2-0.1,0.3-0.1,0.5s0,0.4,0.1,0.5s0.2,0.3,0.3,0.4
		c0.1,0.1,0.3,0.2,0.4,0.3C115.2,12.5,115.4,12.6,115.6,12.6z"/>
	<path class="st6" d="M118.2,7.5c0.1,0,0.1,0,0.2,0c0.1,0,0.1,0,0.2,0.1c0.1,0,0.1,0.1,0.1,0.1s0.1,0.1,0.1,0.2v0.9h-0.4V8
		c0-0.1,0-0.1-0.1-0.1c0,0-0.1,0-0.1,0V7.5z M119.2,7.5c0.1,0,0.1,0,0.2,0c0.1,0,0.1,0,0.2,0.1c0.1,0,0.1,0.1,0.1,0.1
		s0.1,0.1,0.1,0.2v0.9h-0.4V8c0-0.1,0-0.1-0.1-0.1c0,0-0.1,0-0.1,0V7.5z"/>
	<path class="st6" d="M122.8,9l1.2,1.5l0.1,0.1l0.1-0.1l1.2-1.5h0.5l-1.5,2l1.5,1.9h-0.5l-1.2-1.5l-0.1-0.1l-0.1,0.1l-1.2,1.5h-0.6
		l1.5-1.9l-1.5-2H122.8z"/>
	<path class="st6" d="M131.9,11.5c0,0.2,0,0.4-0.2,0.6c-0.1,0.2-0.2,0.3-0.4,0.5c-0.2,0.1-0.4,0.2-0.6,0.3s-0.5,0.1-0.7,0.1
		c-0.3,0-0.5,0-0.7-0.1s-0.4-0.2-0.6-0.3c-0.2-0.1-0.3-0.3-0.4-0.5s-0.1-0.4-0.1-0.6c0-0.2,0-0.3,0.1-0.5s0.1-0.3,0.2-0.4
		c0.1-0.1,0.2-0.2,0.3-0.3c0.1-0.1,0.3-0.1,0.4-0.2c-0.1,0-0.2-0.1-0.3-0.2c-0.1-0.1-0.2-0.2-0.3-0.3c-0.1-0.1-0.1-0.2-0.2-0.3
		c0-0.1-0.1-0.2-0.1-0.4c0-0.2,0-0.4,0.1-0.6c0.1-0.2,0.2-0.3,0.4-0.4c0.2-0.1,0.3-0.2,0.5-0.3s0.4-0.1,0.6-0.1c0.2,0,0.4,0,0.6,0.1
		s0.4,0.1,0.5,0.3c0.2,0.1,0.3,0.3,0.4,0.4c0.1,0.2,0.2,0.4,0.2,0.6c0,0.1,0,0.3-0.1,0.4c0,0.1-0.1,0.2-0.2,0.3
		c-0.1,0.1-0.2,0.2-0.3,0.3s-0.2,0.1-0.3,0.2c0.1,0.1,0.3,0.1,0.4,0.2s0.2,0.2,0.3,0.3c0.1,0.1,0.2,0.2,0.2,0.4
		C131.9,11.1,131.9,11.3,131.9,11.5z M131.4,11.4c0-0.2,0-0.3-0.1-0.5s-0.2-0.3-0.3-0.3c-0.1-0.1-0.3-0.2-0.4-0.2
		c-0.2,0-0.3-0.1-0.5-0.1c-0.2,0-0.3,0-0.5,0.1c-0.2,0.1-0.3,0.1-0.4,0.2c-0.1,0.1-0.2,0.2-0.3,0.4c-0.1,0.1-0.1,0.3-0.1,0.5
		c0,0.2,0,0.3,0.1,0.5c0.1,0.1,0.2,0.3,0.3,0.3c0.1,0.1,0.3,0.2,0.4,0.2c0.2,0.1,0.3,0.1,0.5,0.1s0.3,0,0.5-0.1
		c0.2-0.1,0.3-0.1,0.4-0.2s0.2-0.2,0.3-0.4S131.4,11.6,131.4,11.4z M128.9,9c0,0.1,0,0.3,0.1,0.4c0.1,0.1,0.2,0.2,0.3,0.3
		c0.1,0.1,0.2,0.1,0.4,0.2s0.3,0.1,0.4,0.1c0.1,0,0.3,0,0.4-0.1c0.1,0,0.3-0.1,0.4-0.2c0.1-0.1,0.2-0.2,0.3-0.3
		c0.1-0.1,0.1-0.2,0.1-0.4c0-0.1,0-0.3-0.1-0.4c-0.1-0.1-0.2-0.2-0.3-0.3c-0.1-0.1-0.2-0.1-0.4-0.2c-0.1,0-0.3-0.1-0.4-0.1
		s-0.3,0-0.4,0.1s-0.3,0.1-0.4,0.2c-0.1,0.1-0.2,0.2-0.3,0.3C129,8.7,128.9,8.8,128.9,9z"/>
	<path class="st6" d="M134.9,13c-0.4,0-0.7-0.1-1-0.3c-0.3-0.2-0.5-0.4-0.7-0.6c-0.2-0.3-0.3-0.5-0.4-0.9c-0.1-0.3-0.1-0.6-0.1-0.9
		c0-0.3,0.1-0.6,0.2-1c0.1-0.3,0.2-0.6,0.4-0.9c0.2-0.3,0.4-0.5,0.7-0.6c0.3-0.2,0.6-0.2,0.9-0.2c0.4,0,0.7,0.1,1,0.3
		c0.3,0.2,0.5,0.4,0.7,0.7c0.2,0.3,0.3,0.6,0.4,0.9s0.1,0.6,0.1,0.9c0,0.3-0.1,0.6-0.2,1c-0.1,0.3-0.2,0.6-0.4,0.9
		c-0.2,0.3-0.4,0.5-0.7,0.6C135.5,12.9,135.2,13,134.9,13z M133.2,10.3c0,0.3,0,0.5,0.1,0.8s0.2,0.5,0.3,0.7
		c0.1,0.2,0.3,0.4,0.5,0.5c0.2,0.1,0.4,0.2,0.7,0.2c0.3,0,0.5-0.1,0.7-0.2c0.2-0.1,0.4-0.3,0.5-0.5c0.1-0.2,0.2-0.5,0.3-0.7
		c0.1-0.3,0.1-0.5,0.1-0.7c0-0.3,0-0.5-0.1-0.8c-0.1-0.3-0.2-0.5-0.3-0.7c-0.1-0.2-0.3-0.4-0.5-0.5c-0.2-0.1-0.4-0.2-0.7-0.2
		c-0.3,0-0.5,0.1-0.7,0.2c-0.2,0.1-0.4,0.3-0.5,0.5c-0.1,0.2-0.2,0.5-0.3,0.7C133.3,9.8,133.2,10.1,133.2,10.3z"/>
	<path class="st6" d="M137.9,7.5c0.1,0,0.1,0,0.2,0c0.1,0,0.1,0,0.2,0.1c0.1,0,0.1,0.1,0.1,0.1s0.1,0.1,0.1,0.2v0.9H138V8
		c0-0.1,0-0.1-0.1-0.1c0,0-0.1,0-0.1,0V7.5z M138.8,7.5c0.1,0,0.1,0,0.2,0c0.1,0,0.1,0,0.2,0.1c0.1,0,0.1,0.1,0.1,0.1
		s0.1,0.1,0.1,0.2v0.9H139V8c0-0.1,0-0.1-0.1-0.1c0,0-0.1,0-0.1,0V7.5z"/>
	<path class="st6" d="M141.6,10.3c0,0.5-0.1,1-0.3,1.4c-0.2,0.5-0.4,1-0.8,1.4l-0.4-0.2c0.3-0.5,0.5-0.9,0.7-1.4
		c0.2-0.5,0.3-0.9,0.3-1.3c0-0.2,0-0.5-0.1-0.8c-0.1-0.3-0.1-0.5-0.2-0.8c-0.1-0.2-0.2-0.5-0.3-0.7c-0.1-0.2-0.2-0.4-0.3-0.6
		l0.4-0.2c0.1,0.2,0.3,0.5,0.4,0.7c0.1,0.2,0.2,0.5,0.3,0.7c0.1,0.2,0.2,0.5,0.2,0.7C141.6,9.8,141.6,10.1,141.6,10.3z"/>
</g>
</svg>
